<svg xmlns="http://www.w3.org/2000/svg" xmlns:xlink="http://www.w3.org/1999/xlink" xmlns:lucid="lucid" width="2892" height="1388"><g transform="translate(8653 -2364)" lucid:page-tab-id="wVSJqJP_zoFC"><path d="M-8680 2366a6 6 0 0 1 6-6h2928a6 6 0 0 1 6 6v1428a6 6 0 0 1-6 6h-2928a6 6 0 0 1-6-6z" stroke="#5e5e5e" stroke-width="3" fill-opacity="0"/><use xlink:href="#a" transform="matrix(1,0,0,1,-8668,2372) translate(1424.141975308642 714.7152777777778)"/><path d="M-7780 2816a6 6 0 0 1 6-6h1588a6 6 0 0 1 6 6v868a6 6 0 0 1-6 6h-1588a6 6 0 0 1-6-6z" fill-opacity="0"/><path d="M-7758.96 2810h6m12.04 0h6.02m12.03 0h6m12.04 0h6.02m12.02 0h6m12.05 0h6m12.04 0h6.03m12.03 0h6m12.04 0h6.02m12.03 0h6m12.04 0h6m12.04 0h6m12.04 0h6.02m12.03 0h6m12.04 0h6.02m12.02 0h6m12.05 0h6m12.04 0h6.03m12.03 0h6m12.04 0h6.02m12.03 0h6m12.04 0h6m12.04 0h6m12.04 0h6.02m12.03 0h6m12.04 0h6.02m12.02 0h6m12.05 0h6m12.04 0h6.03m12.03 0h6m12.04 0h6.02m12.03 0h6m12.04 0h6m12.04 0h6m12.04 0h6.02m12.03 0h6m12.04 0h6.02m12.02 0h6m12.05 0h6m12.04 0h6.03m12.03 0h6m12.04 0h6.02m12.03 0h6m12.04 0h6m12.04 0h6m12.04 0h6.02m12.03 0h6m12.04 0h6.02m12.02 0h6m12.05 0h6m12.04 0h6.03m12.03 0h6m12.04 0h6.02m12.03 0h6m12.04 0h6m12.04 0h6m12.04 0h6.02m12.03 0h6m12.04 0h6.02m12.02 0h6m12.05 0h6m12.04 0h6.03m12.03 0h6m12.04 0h6.02m12.03 0h6m12.04 0h6m12.04 0h6m12.04 0h6.02m12.03 0h6m12.04 0h6.02m12.02 0h6m12.05 0h6m12.04 0h6.03m12.03 0h6m12.04 0h6.02m12.03 0h6m12.04 0h6m12.04 0h6m12.04 0h6.02m12.03 0h6m12.04 0h6.02m12.02 0h6m12.05 0h6m12.04 0h6.03m12.03 0h6m12.04 0h6.02m12.03 0h6m12.04 0h3l.94.07.9.22.88.35.8.5.72.6.6.72.5.8.37.88.23.9.07.95v3m0 12.07v6.03m0 12.05v6.03m0 12.06v6.02m0 12.06v6.03m0 12.05v6.03m0 12.06v6m0 12.07v6.03m0 12.05v6.03m0 12.06v6.02m0 12.06v6.03m0 12.05v6.03m0 12.06v6m0 12.07v6.03m0 12.05v6.03m0 12.06v6.02m0 12.06v6.03m0 12.05v6.03m0 12.06v6m0 12.07v6.03m0 12.05v6.03m0 12.06v6.02m0 12.06v6.03m0 12.05v6.03m0 12.06v6m0 12.07v6.03m0 12.05v6.03m0 12.06v6.02m0 12.06v6.03m0 12.05v6.03m0 12.06v6m0 12.07v6.03m0 12.05v6.03m0 12.06v6.02m0 12.06v6.03m0 12.05v6.03m0 12.06v6m0 12.07v6.03m0 12.05v6.03m0 12.06v6.02m0 12.06v6.03m0 12.05v6.03m0 12.06v6m0 12.07v6.03m0 12.05v6.03m0 12.06v6.02m0 12.06v6.03m0 12.05v6.03m0 12.06v3l-.07.94-.22.9-.35.88-.5.8-.6.72-.72.6-.8.5-.88.37-.9.23-.95.07h-3m-12.04 0h-6m-12.04 0h-6.02m-12.03 0h-6m-12.04 0h-6.02m-12.02 0h-6m-12.05 0h-6m-12.04 0h-6.03m-12.03 0h-6m-12.04 0h-6.02m-12.03 0h-6m-12.04 0h-6m-12.04 0h-6m-12.04 0h-6.02m-12.03 0h-6m-12.04 0h-6.02m-12.02 0h-6m-12.05 0h-6m-12.04 0h-6.03m-12.03 0h-6m-12.04 0h-6.02m-12.03 0h-6m-12.04 0h-6m-12.04 0h-6m-12.04 0h-6.02m-12.03 0h-6m-12.04 0h-6.02m-12.02 0h-6m-12.05 0h-6m-12.04 0h-6.03m-12.03 0h-6m-12.04 0h-6.02m-12.03 0h-6m-12.04 0h-6m-12.04 0h-6m-12.04 0h-6.02m-12.03 0h-6m-12.04 0h-6.02m-12.02 0h-6m-12.05 0h-6m-12.04 0h-6.03m-12.03 0h-6m-12.04 0h-6.02m-12.03 0h-6m-12.04 0h-6m-12.04 0h-6m-12.04 0h-6.02m-12.03 0h-6m-12.04 0h-6.02m-12.02 0h-6m-12.05 0h-6m-12.04 0h-6.03m-12.03 0h-6m-12.04 0h-6.02m-12.03 0h-6m-12.04 0h-6m-12.04 0h-6m-12.04 0h-6.02m-12.03 0h-6m-12.04 0h-6.02m-12.02 0h-6m-12.05 0h-6m-12.04 0h-6.03m-12.03 0h-6m-12.04 0h-6.02m-12.03 0h-6m-12.04 0h-6m-12.04 0h-6m-12.04 0h-6.02m-12.03 0h-6m-12.04 0h-6.02m-12.02 0h-6m-12.05 0h-6m-12.04 0h-6.03m-12.03 0h-6m-12.04 0h-6.02m-12.03 0h-6m-12.04 0h-6m-12.04 0h-6m-12.04 0h-6.02m-12.03 0h-6m-12.04 0h-6.02m-12.02 0h-6m-12.05 0h-6m-12.04 0h-6.03m-12.03 0h-6m-12.04 0h-6.02m-12.03 0h-6m-12.04 0h-3l-.94-.07-.9-.22-.88-.35-.8-.5-.72-.6-.6-.72-.5-.8-.37-.88-.23-.9-.07-.95v-3m0-12.07v-6.03m0-12.05v-6.03m0-12.06v-6.02m0-12.06v-6.03m0-12.05v-6.03m0-12.06v-6m0-12.07v-6.03m0-12.05v-6.03m0-12.06v-6.02m0-12.06v-6.03m0-12.05v-6.03m0-12.06v-6m0-12.07v-6.03m0-12.05v-6.03m0-12.06v-6.02m0-12.06v-6.03m0-12.05v-6.03m0-12.06v-6m0-12.07v-6.03m0-12.05v-6.03m0-12.06v-6.02m0-12.06v-6.03m0-12.05v-6.03m0-12.06v-6m0-12.07v-6.03m0-12.05v-6.03m0-12.06v-6.02m0-12.06v-6.03m0-12.05v-6.03m0-12.06v-6m0-12.07v-6.03m0-12.05v-6.03m0-12.06v-6.02m0-12.06v-6.03m0-12.05v-6.03m0-12.06v-6m0-12.07v-6.03m0-12.05v-6.03m0-12.06v-6.02m0-12.06v-6.03m0-12.05v-6.03m0-12.06v-6m0-12.07v-6.03m0-12.05v-6.03m0-12.06v-6.02m0-12.06v-6.03m0-12.05v-6.03m0-12.06v-3l.07-.94.22-.9.35-.88.5-.8.6-.72.72-.6.8-.5.88-.37.9-.23.95-.07h3" stroke="#fff" stroke-width="3" fill="none"/><path d="M-7760 2936a6 6 0 0 1 6-6h988a6 6 0 0 1 6 6v388a6 6 0 0 1-6 6h-988a6 6 0 0 1-6-6z" fill-opacity="0"/><path d="M-7739.03 2930h6m11.96 0h6m11.97 0h6m11.96 0h6m11.96 0h6m11.97 0h5.98m11.97 0h6m11.97 0h5.98m11.98 0h6m11.96 0h6m11.97 0h6m11.97 0h6m11.96 0h6m11.97 0h5.98m11.98 0h6m11.96 0h6m11.97 0h5.98m11.97 0h6m11.96 0h6m11.98 0h6m11.96 0h6m11.97 0h6m11.97 0h6m11.96 0h6m11.97 0h5.98m11.98 0h6m11.96 0h6m11.97 0h5.98m11.97 0h6m11.97 0h5.98m11.98 0h6m11.96 0h6m11.97 0h6m11.97 0h6m11.96 0h6m11.97 0h6m11.96 0h6m11.96 0h6m11.97 0h5.98m11.97 0h6m11.97 0h5.98m11.98 0h6m11.96 0h6m11.97 0h6m11.97 0h6m11.96 0h6m11.97 0h5.98m11.98 0h6m11.96 0h6m11.97 0h5.98m11.97 0h6m11.97 0h5.98m11.98 0h6m11.96 0h6m11.97 0h3l.94.07.9.22.88.35.8.5.72.6.6.72.5.8.37.88.23.9.07.95v2.94m0 11.76v5.88m0 11.75v5.88m0 11.77v5.88m0 11.76v5.9m0 11.74v5.88m0 11.76v5.88m0 11.75v5.9m0 11.75v5.88m0 11.76v5.87m0 11.75v5.88m0 11.76v5.88m0 11.76v5.88m0 11.75v5.88m0 11.77v5.88m0 11.76v5.9m0 11.74v5.88m0 11.76v5.88m0 11.75v5.9m0 11.75v5.88m0 11.76v5.87m0 11.75v5.88m0 11.76v2.94l-.07.94-.22.9-.35.88-.5.8-.6.72-.72.6-.8.5-.88.37-.9.23-.95.07h-3m-11.97 0h-6m-11.96 0h-6m-11.97 0h-6m-11.96 0h-6m-11.96 0h-6m-11.97 0h-5.98m-11.97 0h-6m-11.97 0h-5.98m-11.98 0h-6m-11.96 0h-6m-11.97 0h-6m-11.97 0h-6m-11.96 0h-6m-11.97 0h-5.98m-11.98 0h-6m-11.96 0h-6m-11.97 0h-5.98m-11.97 0h-6m-11.96 0h-6m-11.98 0h-6m-11.96 0h-6m-11.97 0h-6m-11.97 0h-6m-11.96 0h-6m-11.97 0h-5.98m-11.98 0h-6m-11.96 0h-6m-11.97 0h-5.98m-11.97 0h-6m-11.97 0h-5.98m-11.98 0h-6m-11.96 0h-6m-11.97 0h-6m-11.97 0h-6m-11.96 0h-6m-11.97 0h-6m-11.96 0h-6m-11.96 0h-6m-11.97 0h-5.98m-11.97 0h-6m-11.97 0h-5.98m-11.98 0h-6m-11.96 0h-6m-11.97 0h-6m-11.97 0h-6m-11.96 0h-6m-11.97 0h-5.98m-11.98 0h-6m-11.96 0h-6m-11.97 0h-5.98m-11.97 0h-6m-11.97 0h-5.98m-11.98 0h-6m-11.96 0h-6m-11.97 0h-3l-.94-.07-.9-.22-.88-.35-.8-.5-.72-.6-.6-.72-.5-.8-.37-.88-.23-.9-.07-.95v-2.94m0-11.76v-5.88m0-11.75v-5.88m0-11.77v-5.88m0-11.76v-5.9m0-11.74v-5.88m0-11.76v-5.88m0-11.75v-5.9m0-11.75v-5.88m0-11.76v-5.87m0-11.75v-5.88m0-11.76v-5.88m0-11.76v-5.88m0-11.75v-5.88m0-11.77v-5.88m0-11.76v-5.9m0-11.74v-5.88m0-11.76v-5.88m0-11.75v-5.9m0-11.75v-5.88m0-11.76v-5.87m0-11.75v-5.88m0-11.76V2936l.07-.94.22-.9.35-.88.5-.8.6-.72.72-.6.8-.5.88-.37.9-.23.95-.07h3" stroke="#fff" stroke-width="3" fill="none"/><path d="M-8120 3150h121.48v121.48H-8120V3150z" stroke="#fff" stroke-opacity="0" fill="#693cc5"/><path d="M-8041.43 3249.63c-.37 0-.66-.15-.95-.3-.44-.32-.68-.8-.68-1.33v-74.52c0-.55.3-1.1.78-1.4.48-.32 1.1-.32 1.6-.08l21.08 10.34c.56.24.9.78.9 1.4V3241c.02.78-.42 1.4-1.12 1.63l-21.05 7h-.56zm1.63-73.5v69.6l17.8-5.9v-55.07zM-8077.1 3249.63h-.5l-21.06-7c-.68-.24-1.12-.93-1.1-1.64v-57.26c0-.62.35-1.16.9-1.4l21.06-10.34c.54-.24 1.12-.24 1.64.08.48.3.75.85.75 1.4V3248c0 .54-.25 1-.7 1.32-.28.23-.6.3-1 .3zm-19.42-9.72l17.82 5.92v-69.7l-17.82 8.7z" stroke="#fff" stroke-opacity="0" fill="#fff"/><path d="M-8043.06 3194.54h-4.87v-3.24h4.87zm-9.73 0h-4.86v-3.24h4.87zm-9.7 0h-4.85v-3.24h4.86zm-9.7 0h-4.88v-3.24h4.87zM-8043.06 3230.18h-4.87v-3.24h4.87zm-9.73 0h-4.86v-3.24h4.87zm-9.7 0h-4.85v-3.24h4.86zm-9.7 0h-4.88v-3.24h4.87zM-8066.37 3216.3l-6.1-5.2c-.67-.56-.75-1.6-.17-2.28l.18-.18 6.07-5.2 2.12 2.47-4.64 4.03 4.64 3.96zM-8052.14 3216.3l-2.1-2.45 4.63-3.92-4.66-3.96 2.1-2.52 6.1 5.18c.68.58.76 1.6.18 2.3l-.18.16z" stroke="#fff" stroke-opacity="0" fill="#fff"/><path d="M-8064.02 3219.72l6.43-19.04 3.08 1.05-6.43 19.03-3.07-1.04z" stroke="#fff" stroke-opacity="0" stroke-width=".32" fill="#fff"/><use xlink:href="#b" transform="matrix(1,0,0,1,-8150,3280.476851851852) translate(3.1604938271604937 17.77777777777778)"/><use xlink:href="#c" transform="matrix(1,0,0,1,-8150,3280.476851851852) translate(83.8395061728395 17.77777777777778)"/><use xlink:href="#d" transform="matrix(1,0,0,1,-8150,3280.476851851852) translate(143.1604938271605 17.77777777777778)"/><use xlink:href="#e" transform="matrix(1,0,0,1,-8150,3280.476851851852) translate(51.64814814814815 44.44444444444444)"/><path d="M-6605 2459.95a6 6 0 0 1 6-6h413a6 6 0 0 1 6 6v308a6 6 0 0 1-6 6h-413a6 6 0 0 1-6-6z" fill-opacity="0"/><path d="M-6584.04 2453.95h6m11.96 0h6m11.96 0h5.98m11.97 0h6m11.96 0h5.97m11.98 0h5.98m11.97 0h6m11.96 0h6m11.96 0h5.98m11.97 0h6m11.96 0h5.98m12 0h5.97m11.97 0h6m11.96 0h5.98m11.97 0h6m11.96 0h6m11.97 0h5.98m11.98 0h5.98m11.98 0h6m11.96 0h5.98m11.97 0h5.98m11.97 0h6m11.96 0h3l.94.07.9.22.88.36.8.5.72.6.6.72.5.8.37.87.23.9.07.94v3.02m0 12.08v6.04m0 12.08v6.04m0 12.08v6.04m0 12.07v6.03m0 12.08v6.05m0 12.08v6.04m0 12.08v6.04m0 12.07v6.04m0 12.08v6.04m0 12.08v6.04m0 12.08v6.04m0 12.08v6.04m0 12.07v6.04m0 12.07v6.04m0 12.1v6.03m0 12.08v6.05m0 12.08v3.02l-.07.93-.22.92-.35.87-.5.8-.6.72-.72.6-.8.5-.88.35-.9.22-.95.07h-3m-11.96 0h-6m-11.96 0h-6m-11.96 0h-5.98m-11.97 0h-6m-11.96 0h-5.97m-11.98 0h-5.98m-11.97 0h-6m-11.96 0h-6m-11.96 0h-5.98m-11.97 0h-6m-11.96 0h-5.98m-12 0h-5.97m-11.97 0h-6m-11.96 0h-5.98m-11.97 0h-6m-11.96 0h-6m-11.97 0h-5.98m-11.98 0h-5.98m-11.98 0h-6m-11.96 0h-5.98m-11.97 0h-5.98m-11.97 0h-6m-11.96 0h-3l-.94-.07-.9-.22-.88-.36-.8-.5-.72-.6-.6-.73-.5-.8-.37-.87-.23-.92-.07-.93v-3.02m0-12.08v-6.04m0-12.07v-6.04m0-12.1v-6.03m0-12.08v-6.05m0-12.07v-6.04m0-12.08v-6.04m0-12.08v-6.04m0-12.08v-6.04m0-12.07v-6.03m0-12.08v-6.05m0-12.08v-6.04m0-12.08v-6.04m0-12.07v-6.03m0-12.08v-6.04m0-12.08v-6.04m0-12.08v-6.04m0-12.08v-3l.07-.95.22-.9.35-.88.5-.8.6-.72.72-.6.8-.5.88-.36.9-.22.95-.07h3" stroke="#fff" stroke-width="3" fill="none"/><path d="M-8240 2446a6 6 0 0 1 6-6h2388a6 6 0 0 1 6 6v1248a6 6 0 0 1-6 6h-2388a6 6 0 0 1-6-6z" stroke="#fff" stroke-width="3" fill="#fff" fill-opacity="0"/><path d="M-8240 2440h56v56h-56v-56z" stroke="#fff" stroke-opacity="0" fill="#fff"/><path d="M-8199.12 2481.22h-25c-4.13.05-7.57-3.1-7.9-7.2v-.64c-.15-3.4 1.97-6.38 5.25-7.36v-.66c.12-4.22 2.44-7.75 6.24-9.57 4.13-1.86 8.73-.96 11.8 2.3 1.1 1.1 1.85 2.2 2.45 3.6 1.2-1 2.72-1.32 4.24-.9 2.24.8 3.68 2.74 3.76 5.1 3.68.65 6.32 3.8 6.28 7.56 0 7.07-7.04 7.73-7.12 7.76zm-26.7-13.88c-2.83.6-4.75 3.14-4.6 6.04v.53c.3 3.33 3.1 5.84 6.4 5.76h24.98c3.04-.3 5.4-2.64 5.68-5.7.28-3.43-2.24-6.5-5.68-6.78-.44-.05-.72-.44-.64-.87.08-1.83-1-3.44-2.72-4.13-1.32-.37-2.64.13-3.44 1.24-.2.25-.44.38-.76.33-.28-.05-.48-.24-.6-.5-.6-1.6-1.4-2.85-2.6-4.04-2.7-2.8-6.6-3.6-10.13-2-3.24 1.6-5.2 4.63-5.32 8.24-.04.4-.04.74 0 1.14.04.4-.2.76-.6.84z" stroke="#fff" stroke-opacity="0" fill="#fff"/><use xlink:href="#f" transform="matrix(1,0,0,1,-8169,2460) translate(0 14.4)"/><use xlink:href="#g" transform="matrix(1,0,0,1,-8169,2460) translate(45.3 14.4)"/><path d="M-8467.1 3254.42h14.96v11.1h-14.96v-11.1zM-8410.1 3129.53h59.45v145.17h-59.46v-145.17z" fill="#29aae1"/><path d="M-8539.05 3154h157.34v100.58h-157.35v-100.6z" fill="#29aae1"/><path d="M-8531.86 3160.1h143.53v89.97h-143.53v-89.96z" fill="#fff" fill-opacity=".98"/><path d="M-8532.8 3266.33h143.33l-7 23.98H-8540l7.2-23.97z" fill="#29aae1"/><path d="M-8533.75 3265.53H-8387l12.3 24.94h-146.74l-12.3-24.94z" fill="#29aae1"/><path d="M-8483.95 3284.03h52.26v5h-52.25v-5zM-8512.73 3269.4h3.97v3.2h-3.97v-3.2zM-8505.92 3269.55h3.98v3.22h-3.98v-3.22zM-8497.02 3275.34h3.8v3.22h-3.8v-3.22zM-8498.53 3269.23h3.97v3.22h-3.97v-3.22zM-8491.9 3269.4h3.97v3.2h-3.98v-3.2zM-8485.28 3269.23h3.8v3.22h-3.8v-3.22zM-8444.95 3269.7h3.98v3.23h-3.98v-3.22zM-8438.9 3269.7h3.8v3.23h-3.8v-3.22zM-8433.4 3269.7h3.98v3.23h-3.98v-3.22zM-8426.77 3269.7h3.98v3.23h-3.97v-3.22zM-8420.52 3269.7h3.78v3.23h-3.78v-3.22zM-8427.9 3275.02h3.97v3.22h-3.98v-3.22zM-8413.52 3269.7h3.98v3.23h-3.98v-3.22zM-8489.82 3275.18h3.97v3.22h-3.97v-3.22zM-8482.25 3275.18h3.8v3.22h-3.8v-3.22zM-8433.97 3274.86h3.4v3.22h-3.4v-3.22zM-8440.6 3274.86h3.8v3.22h-3.8v-3.22zM-8478.08 3269.4h3.78v3.2h-3.78v-3.2zM-8470.9 3269.55h4v3.22h-4v-3.22zM-8464.07 3269.4h3.97v3.2h-3.97v-3.2zM-8456.5 3269.4h3.8v3.2h-3.8v-3.2zM-8450.44 3269.55h3.98v3.22h-3.98v-3.22zM-8475.62 3275.02h3.8v3.22h-3.8v-3.22zM-8468.43 3275.02h3.98v3.22h-3.98v-3.22zM-8461.42 3275.18h3.8v3.22h-3.8v-3.22zM-8454.8 3275.18h3.98v3.22h-3.97v-3.22zM-8447.8 3274.86h3.8v3.22h-3.8v-3.22z" fill="#fff"/><path d="M-8539.8 3290.3l165.1-.47-11.74-24.3-146.17.16-7.2 24.6z" fill="none"/><path d="M-8368.07 3137.1h10.6c1.14 0 1.14 0 1.14 1.12 0 1.13 0 1.13-1.14 1.13h-10.6c-1.14 0-1.14 0-1.14-1.13s0-1.13 1.13-1.13zM-8368.07 3142.4h10.8c.94 0 .94 0 .94.97 0 .96 0 .96-.95.96h-10.8c-1.13 0-1.13 0-1.13-.96 0-.97 0-.97 1.13-.97zM-8409.92 3152.38h28.6v1.3h-28.6v-1.3z" fill="#fff"/><path d="M-8381.33 3152.38h1.33v102.52h-1.33v-102.52z" fill="#fff"/><path d="M-8410.1 3254.74h29.9v1.45h-29.9v-1.46zM-8409.92 3262.95h22.9c1.15 0 1.15 0 1.15 1.13 0 1.28 0 1.28-1.14 1.28h-22.92c-1.14 0-1.14 0-1.14-1.28 0-1.13 0-1.13 1.14-1.13z" fill="#fff"/><path d="M-8386.06 3263.27l6.44 11.1-1.9 1.14-6.24-11.26 1.7-.97zM-8467.86 3254.42h16.1v1.6h-16.1v-1.6zM-8467.3 3263.76h15.35v1.77h-15.34v-1.77z" fill="#fff"/><path d="M-7700 3050h100v100h-100v-100z" stroke="#fff" stroke-opacity="0" stroke-width="2" fill="#d86613"/><path d="M-7619.33 3133.33h-16.43c-.54 0-.97-.26-1.18-.73l-23.26-48.6h-9.8c-.76 0-1.35-.6-1.35-1.33V3068c0-.73.6-1.33 1.34-1.33h20.52c.54 0 .97.26 1.18.73l23.15 48.6h5.82c.74 0 1.33.6 1.33 1.33V3132c0 .73-.6 1.33-1.33 1.33zm-15.58-2.66h14.23v-12h-5.33c-.53 0-.96-.27-1.18-.74l-23.15-48.6h-18.35v12h9.34c.53 0 .96.27 1.22.74z" stroke="#fff" stroke-opacity="0" stroke-width="2" fill="#fff"/><path d="M-7663.37 3133.33h-17.32c-.46 0-.87-.24-1.14-.6-.26-.45-.26-.94-.06-1.34l18.15-37.9c.2-.48.68-.77 1.18-.77.53 0 .97.3 1.2.73l8.68 17.87c.22.36.22.77 0 1.18l-9.46 19.98c-.18.53-.65.85-1.2.85zm-15.2-2.68h14.37l8.82-18.63-7.16-14.9z" stroke="#fff" stroke-opacity="0" stroke-width="2" fill="#fff"/><use xlink:href="#h" transform="matrix(1,0,0,1,-7730,3159) translate(-14.891975308642003 19.555555555555557)"/><path d="M-6540 2563.95h100v100h-100v-100z" stroke="#fff" stroke-opacity="0" stroke-width="2" fill="#3b48cc"/><path d="M-6470.78 2587.28c-.43-5.2-10.1-8-19.26-8-9.16 0-18.87 2.8-19.3 8v39.98c0 5.4 9.98 8.34 19.34 8.34s19.33-2.93 19.33-8.28v-40.05zm-19.26-5.36c10.3 0 16.63 3.33 16.63 5.7 0 2.36-6.35 5.68-16.64 5.68-10.28 0-16.63-3.32-16.63-5.7 0-2.35 6.3-5.67 16.63-5.67zm0 51.03c-10.32 0-16.63-3.32-16.63-5.63v-7.72c3.56 2.65 10.3 4 16.7 4 6.43 0 13.04-1.35 16.64-4v7.66c-.08 2.37-6.42 5.7-16.7 5.7zm.08-12c-10.3 0-16.63-3.32-16.63-5.68h-.06v-9c3.55 2.7 10.28 3.98 16.7 3.98s13.03-1.3 16.63-4v9.02c0 2.36-6.3 5.68-16.63 5.68zm0-13.34c-10.3 0-16.63-3.32-16.63-5.68h-.06v-9.97c3.6 2.6 10.24 4 16.62 4 6.38 0 13.15-1.35 16.7-4v9.97c0 2.36-6.3 5.7-16.62 5.7zM-6508 2637.95h2.67v8h-2.67v-8zM-6474.67 2637.95h2.67v8h-2.67v-8zM-6497.33 2640.6h2.66v8h-2.66v-8zM-6485.33 2640.6h2.66v8h-2.66v-8z" stroke="#fff" stroke-opacity="0" stroke-width="2" fill="#fff"/><use xlink:href="#i" transform="matrix(1,0,0,1,-6570,2672.9445) translate(38.14814814814815 17.77777777777778)"/><path d="M-7498.52 3050h100v100h-100v-100z" stroke="#fff" stroke-opacity="0" stroke-width="2" fill="#d86613"/><path d="M-7417.86 3133.33h-16.43c-.52 0-.95-.26-1.16-.73l-23.26-48.6h-9.82c-.74 0-1.33-.6-1.33-1.33V3068c0-.73.6-1.33 1.33-1.33h20.54c.54 0 .96.26 1.18.73l23.15 48.6h5.8c.76 0 1.35.6 1.35 1.33V3132c0 .73-.6 1.33-1.34 1.33zm-15.57-2.66h14.24v-12h-5.32c-.54 0-.96-.27-1.18-.74l-23.15-48.6h-18.35v12h9.33c.54 0 .96.27 1.23.74z" stroke="#fff" stroke-opacity="0" stroke-width="2" fill="#fff"/><path d="M-7461.9 3133.33h-17.3c-.48 0-.9-.24-1.16-.6-.27-.45-.27-.94-.06-1.34l18.14-37.9c.2-.48.68-.77 1.18-.77.53 0 .98.3 1.2.73l8.7 17.87c.2.36.2.77 0 1.18l-9.48 19.98c-.18.53-.65.85-1.2.85zm-15.2-2.68h14.38l8.82-18.63-7.17-14.9z" stroke="#fff" stroke-opacity="0" stroke-width="2" fill="#fff"/><use xlink:href="#j" transform="matrix(1,0,0,1,-7528.523148148148,3159) translate(5.37654320987653 19.555555555555557)"/><path d="M-7300 3050h100v100h-100v-100z" stroke="#fff" stroke-opacity="0" stroke-width="2" fill="#d86613"/><path d="M-7219.33 3133.33h-16.43c-.54 0-.97-.26-1.18-.73l-23.26-48.6h-9.8c-.76 0-1.35-.6-1.35-1.33V3068c0-.73.6-1.33 1.34-1.33h20.52c.54 0 .97.26 1.18.73l23.15 48.6h5.82c.74 0 1.33.6 1.33 1.33V3132c0 .73-.6 1.33-1.33 1.33zm-15.58-2.66h14.23v-12h-5.33c-.53 0-.96-.27-1.18-.74l-23.15-48.6h-18.35v12h9.34c.53 0 .96.27 1.22.74z" stroke="#fff" stroke-opacity="0" stroke-width="2" fill="#fff"/><path d="M-7263.37 3133.33h-17.32c-.46 0-.87-.24-1.14-.6-.26-.45-.26-.94-.06-1.34l18.15-37.9c.2-.48.68-.77 1.18-.77.53 0 .97.3 1.2.73l8.68 17.87c.22.36.22.77 0 1.18l-9.46 19.98c-.18.53-.65.85-1.2.85zm-15.2-2.68h14.37l8.82-18.63-7.16-14.9z" stroke="#fff" stroke-opacity="0" stroke-width="2" fill="#fff"/><use xlink:href="#k" transform="matrix(1,0,0,1,-7330,3159) translate(-2.669753086419746 19.555555555555557)"/><path d="M-7440 2936a6 6 0 0 1 6-6h328a6 6 0 0 1 6 6v115.33a6 6 0 0 1-6 6h-328a6 6 0 0 1-6-6z" stroke="#000" stroke-opacity="0" stroke-width="3" fill="#fff" fill-opacity="0"/><use xlink:href="#l" transform="matrix(1,0,0,1,-7435,2935) translate(116.70370370370372 65.31944444444443)"/><path d="M-6290 2565.42l49.98 8.62v5.1c0 7.53-22.4 13.63-50 13.63-27.58 0-49.98-6.1-49.98-13.64v-5.53z" fill="#8c3123"/><path d="M-6289.98 2602.13c20.85 0 38.73-3.54 46.18-8.5l2.5-4.78.98-4.4v5.45l-16.4 81c0 5.08-14.9 9.1-33.26 9.1-18.38 0-33.28-4.02-33.28-9.1l-16.4-81v-5.35l3.78 9.27c7.55 4.87 25.23 8.3 45.9 8.3z" fill="#8c3123"/><path d="M-6290 2560c27.6 0 50 6.12 50 13.62 0 7.5-22.4 13.57-50 13.57s-50-6.02-50-13.58c0-7.56 22.4-13.62 50-13.62z" fill="#e05243"/><path d="M-6290 2596.6c25.73 0 46.9-5.2 49.67-12.06l-16.4 81c0 5.05-14.9 9.1-33.28 9.1-18.4 0-33.3-4.05-33.3-9.1l-16.38-81c2.78 6.85 23.94 12.07 49.68 12.07z" fill="#e05243"/><path d="M-6301.77 2604.38h21.65v24.96h-21.65v-24.96zM-6308.3 2638.17c5.88 0 10.66 5.5 10.66 12.3 0 6.8-4.78 12.3-10.67 12.3-5.9 0-10.7-5.5-10.7-12.3 0-6.8 4.8-12.3 10.7-12.3zM-6263.44 2662.2h-21.38l10.7-22.94 10.68 22.94z" fill="#fff"/><use xlink:href="#m" transform="matrix(1,0,0,1,-6340,2680) translate(4.074074074074076 17.77777777777778)"/><use xlink:href="#n" transform="matrix(1,0,0,1,-6340,2680) translate(33.086419753086425 17.77777777777778)"/><path d="M-6502.5 2476a6 6 0 0 1 6-6h228a6 6 0 0 1 6 6v48a6 6 0 0 1-6 6h-228a6 6 0 0 1-6-6z" stroke="#000" stroke-opacity="0" stroke-width="3" fill="#fff" fill-opacity="0"/><use xlink:href="#o" transform="matrix(1,0,0,1,-6497.5,2475) translate(53.117283950617285 30.27777777777778)"/><use xlink:href="#p" transform="matrix(1,0,0,1,-6497.5,2475) translate(104.2283950617284 30.27777777777778)"/><path d="M-7100 3050h100v100h-100v-100z" stroke="#fff" stroke-opacity="0" stroke-width="2" fill="#d86613"/><path d="M-7019.33 3133.33h-16.43c-.54 0-.97-.26-1.18-.73l-23.26-48.6h-9.8c-.76 0-1.35-.6-1.35-1.33V3068c0-.73.6-1.33 1.34-1.33h20.52c.54 0 .97.26 1.18.73l23.15 48.6h5.82c.74 0 1.33.6 1.33 1.33V3132c0 .73-.6 1.33-1.33 1.33zm-15.58-2.66h14.23v-12h-5.33c-.53 0-.96-.27-1.18-.74l-23.15-48.6h-18.35v12h9.34c.53 0 .96.27 1.22.74z" stroke="#fff" stroke-opacity="0" stroke-width="2" fill="#fff"/><path d="M-7063.37 3133.33h-17.32c-.46 0-.87-.24-1.14-.6-.26-.45-.26-.94-.06-1.34l18.15-37.9c.2-.48.68-.77 1.18-.77.53 0 .97.3 1.2.73l8.68 17.87c.22.36.22.77 0 1.18l-9.46 19.98c-.18.53-.65.85-1.2.85zm-15.2-2.68h14.37l8.82-18.63-7.16-14.9z" stroke="#fff" stroke-opacity="0" stroke-width="2" fill="#fff"/><use xlink:href="#q" transform="matrix(1,0,0,1,-7130,3159) translate(21.02777777777778 19.555555555555557)"/><path d="M-6900 3050h100v100h-100v-100z" stroke="#fff" stroke-opacity="0" stroke-width="2" fill="#d86613"/><path d="M-6819.33 3133.33h-16.43c-.54 0-.97-.26-1.18-.73l-23.26-48.6h-9.8c-.76 0-1.35-.6-1.35-1.33V3068c0-.73.6-1.33 1.34-1.33h20.52c.54 0 .97.26 1.18.73l23.15 48.6h5.82c.74 0 1.33.6 1.33 1.33V3132c0 .73-.6 1.33-1.33 1.33zm-15.58-2.66h14.23v-12h-5.33c-.53 0-.96-.27-1.18-.74l-23.15-48.6h-18.35v12h9.34c.53 0 .96.27 1.22.74z" stroke="#fff" stroke-opacity="0" stroke-width="2" fill="#fff"/><path d="M-6863.37 3133.33h-17.32c-.46 0-.87-.24-1.14-.6-.26-.45-.26-.94-.06-1.34l18.15-37.9c.2-.48.68-.77 1.18-.77.53 0 .97.3 1.2.73l8.68 17.87c.22.36.22.77 0 1.18l-9.46 19.98c-.18.53-.65.85-1.2.85zm-15.2-2.68h14.37l8.82-18.63-7.16-14.9z" stroke="#fff" stroke-opacity="0" stroke-width="2" fill="#fff"/><use xlink:href="#r" transform="matrix(1,0,0,1,-6930,3159) translate(8.456790123456784 17.77777777777778)"/><path d="M-6720 2933.45a6 6 0 0 1 6-6h468a6 6 0 0 1 6 6V3604a6 6 0 0 1-6 6h-468a6 6 0 0 1-6-6z" fill-opacity="0"/><path d="M-6699 2927.45h6m12 0h6m12 0h6m12 0h6m12 0h6m12 0h6m12 0h6m12 0h6m12 0h6m12 0h6m12 0h6m12 0h6m12 0h6m12 0h6m12 0h6m12 0h6m12 0h6m12 0h6m12 0h6m12 0h6m12 0h6m12 0h6m12 0h6m12 0h6m12 0h6m12 0h3l.94.07.9.22.88.36.8.5.72.6.6.72.5.8.37.87.23.9.07.95v3.02m0 12.08v6.04m0 12.07v6.04m0 12.1v6.03m0 12.1v6.03m0 12.08v6.04m0 12.08v6.04m0 12.1v6.03m0 12.08v6.05m0 12.08v6.04m0 12.1v6.03m0 12.08v6.04m0 12.08v6.04m0 12.1v6.03m0 12.08v6.04m0 12.07v6.04m0 12.1v6.03m0 12.1v6.03m0 12.08v6.04m0 12.08v6.04m0 12.1v6.03m0 12.08v6.05m0 12.08v6.04m0 12.1v6.03m0 12.08v6.04m0 12.08v6.04m0 12.1v6.03m0 12.08v6.04m0 12.07v6.04m0 12.1v6.04m0 12.08v6.04m0 12.08v6.04m0 12.08v6.05m0 12.1v6.03m0 12.08v6.05m0 12.08v6.04m0 12.1v6.03m0 12.08v3.02l-.07.94-.22.9-.35.88-.5.8-.6.72-.72.6-.8.5-.88.37-.9.23-.95.07h-3m-12 0h-6m-12 0h-6m-12 0h-6m-12 0h-6m-12 0h-6m-12 0h-6m-12 0h-6m-12 0h-6m-12 0h-6m-12 0h-6m-12 0h-6m-12 0h-6m-12 0h-6m-12 0h-6m-12 0h-6m-12 0h-6m-12 0h-6m-12 0h-6m-12 0h-6m-12 0h-6m-12 0h-6m-12 0h-6m-12 0h-6m-12 0h-6m-12 0h-6m-12 0h-3l-.94-.07-.9-.22-.88-.35-.8-.5-.72-.6-.6-.72-.5-.8-.37-.88-.23-.9-.07-.95v-3.02m0-12.08v-6.04m0-12.1v-6.03m0-12.08v-6.04m0-12.07v-6.04m0-12.1v-6.04m0-12.08v-6.04m0-12.08v-6.04m0-12.08V3456m0-12.1v-6.03m0-12.08v-6.05m0-12.08v-6.05m0-12.08v-6.04m0-12.08v-6.04m0-12.08v-6.04m0-12.1v-6.03m0-12.08V3311m0-12.07v-6.04m0-12.1v-6.04m0-12.08v-6.04m0-12.08v-6.04m0-12.1v-6.03m0-12.1v-6.03m0-12.08v-6.05m0-12.08v-6.05m0-12.08v-6.04m0-12.08v-6.04m0-12.08v-6.04m0-12.1v-6.03m0-12.08v-6.04m0-12.07v-6.04m0-12.1v-6.04m0-12.08v-6.04m0-12.08v-6.04m0-12.1v-6.03m0-12.1v-6.03m0-12.08v-6.05m0-12.1v-3l.07-.94.22-.9.35-.88.5-.8.6-.72.72-.6.8-.5.88-.36.9-.22.95-.07h3" stroke="#fff" stroke-width="3" fill="none"/><path d="M-6640 3360h100v100h-100v-100z" stroke="#fff" stroke-opacity="0" stroke-width="2" fill="#d86613"/><path d="M-6559.33 3443.33h-16.43c-.54 0-.97-.26-1.18-.73l-23.26-48.6h-9.8c-.76 0-1.35-.6-1.35-1.33V3378c0-.73.6-1.33 1.34-1.33h20.52c.54 0 .97.26 1.18.73l23.15 48.6h5.82c.74 0 1.33.6 1.33 1.33V3442c0 .73-.6 1.33-1.33 1.33zm-15.58-2.66h14.23v-12h-5.33c-.53 0-.96-.27-1.18-.74l-23.15-48.6h-18.35v12h9.34c.53 0 .96.27 1.22.74z" stroke="#fff" stroke-opacity="0" stroke-width="2" fill="#fff"/><path d="M-6603.37 3443.33h-17.32c-.46 0-.87-.24-1.14-.6-.26-.45-.26-.94-.06-1.34l18.15-37.9c.2-.48.68-.77 1.18-.77.53 0 .97.3 1.2.73l8.68 17.87c.22.36.22.77 0 1.18l-9.46 19.98c-.18.53-.65.85-1.2.85zm-15.2-2.68h14.37l8.82-18.63-7.16-14.9z" stroke="#fff" stroke-opacity="0" stroke-width="2" fill="#fff"/><use xlink:href="#s" transform="matrix(1,0,0,1,-6670,3469) translate(-1.265432098765416 17.77777777777778)"/><path d="M-6420 3360h100v100h-100v-100z" stroke="#fff" stroke-opacity="0" stroke-width="2" fill="#d86613"/><path d="M-6339.33 3443.33h-16.43c-.54 0-.97-.26-1.18-.73l-23.26-48.6h-9.8c-.76 0-1.35-.6-1.35-1.33V3378c0-.73.6-1.33 1.34-1.33h20.52c.54 0 .97.26 1.18.73l23.15 48.6h5.82c.74 0 1.33.6 1.33 1.33V3442c0 .73-.6 1.33-1.33 1.33zm-15.58-2.66h14.23v-12h-5.33c-.53 0-.96-.27-1.18-.74l-23.15-48.6h-18.35v12h9.34c.53 0 .96.27 1.22.74z" stroke="#fff" stroke-opacity="0" stroke-width="2" fill="#fff"/><path d="M-6383.37 3443.33h-17.32c-.46 0-.87-.24-1.14-.6-.26-.45-.26-.94-.06-1.34l18.15-37.9c.2-.48.68-.77 1.18-.77.53 0 .97.3 1.2.73l8.68 17.87c.22.36.22.77 0 1.18l-9.46 19.98c-.18.53-.65.85-1.2.85zm-15.2-2.68h14.37l8.82-18.63-7.16-14.9z" stroke="#fff" stroke-opacity="0" stroke-width="2" fill="#fff"/><use xlink:href="#t" transform="matrix(1,0,0,1,-6450,3469) translate(-27.191358024691354 17.77777777777778)"/><path d="M-6650 3073.45a6 6 0 0 1 6-6h328a6 6 0 0 1 6 6v115.33a6 6 0 0 1-6 6h-328a6 6 0 0 1-6-6z" stroke="#000" stroke-opacity="0" stroke-width="3" fill="#fff" fill-opacity="0"/><use xlink:href="#u" transform="matrix(1,0,0,1,-6645,3072.4446666666668) translate(4.561728395061806 47.01388888888888)"/><use xlink:href="#v" transform="matrix(1,0,0,1,-6645,3072.4446666666668) translate(160.5493827160494 47.01388888888888)"/><use xlink:href="#w" transform="matrix(1,0,0,1,-6645,3072.4446666666668) translate(292.59876543209873 47.01388888888888)"/><use xlink:href="#x" transform="matrix(1,0,0,1,-6645,3072.4446666666668) translate(103.77160493827164 84.3472222222222)"/><path d="M-7141.5 2805.67a6 6 0 0 1 6-6h409.5a6 6 0 0 1 6 6v148a6 6 0 0 1-6 6h-409.5a6 6 0 0 1-6-6z" stroke="#000" stroke-opacity="0" stroke-width="3" fill="#fff" fill-opacity="0"/><use xlink:href="#y" transform="matrix(1,0,0,1,-7136.500082154002,2804.6666666666665) translate(157.9135802469136 58.99305555555554)"/><use xlink:href="#z" transform="matrix(1,0,0,1,-7136.500082154002,2804.6666666666665) translate(16.944444444444514 108.7708333333333)"/><use xlink:href="#A" transform="matrix(1,0,0,1,-7136.500082154002,2804.6666666666665) translate(250.83333333333331 108.7708333333333)"/><path d="M-7260 2927.5v-307.55a6 6 0 0 1 6-6h629" stroke="#fff" stroke-width="2" fill="none"/><path d="M-7259 2928.5h-2v-1.03h2z" stroke="#fff" stroke-width=".05" fill="#fff"/><path d="M-6609.74 2613.95l-14.26 4.63v-9.27z" stroke="#fff" stroke-width="2" fill="#fff"/><use xlink:href="#B" transform="matrix(1,0,0,1,-7035.027512644393,2575.277833333333) translate(0 23.111111111111097)"/><use xlink:href="#C" transform="matrix(1,0,0,1,-7035.027512644393,2575.277833333333) translate(111.06172839506165 23.111111111111097)"/><path d="M-6480 2924.95v-131" stroke="#fff" stroke-width="2" fill="none"/><path d="M-6479 2925.95h-2v-1.03h2z" stroke="#fff" stroke-width=".05" fill="#fff"/><path d="M-6480 2778.68l4.62 14.27h-9.27z" stroke="#fff" stroke-width="2" fill="#fff"/><use xlink:href="#D" transform="matrix(1,0,0,1,-6472.0016430736805,2833.3595832397227) translate(0 23.111111111111107)"/><path d="M-6000 3150h120v120h-120v-120z" stroke="#000" stroke-opacity="0" fill="url(#E)"/><path d="M-5902.35 3240.33c2.14 2 2.4 5.3.4 7.46-.98 1.06-2.47 1.68-3.87 1.68-1.24 0-2.56-.46-3.55-1.3l-9.66-8.78c-2.8 1.77-6.03 2.77-9.58 2.77-10.08 0-18.25-8.23-18.25-18.23 0-10.07 8.17-18.23 18.24-18.23 10.07 0 18.24 8.17 18.24 18.24 0 2.77-.58 5.3-1.65 7.7zm-26.26-1.93c8 0 14.52-6.46 14.52-14.46s-6.52-14.46-14.53-14.46c-7.93 0-14.45 6.46-14.45 14.46s6.52 14.46 14.44 14.46zm-38.23-44.22c0 .76 0 1.53.16 2.23 0 .54-.16 1.08-.5 1.47-.24.3-.65.54-1.07.6-3.46.94-9.32 3.7-9.32 11.94 0 6.24 3.46 9.62 6.35 11.47 1.23.77 2.4 1.15 3.3 1.15h16.92v3.77h-16.93c-1.66 0-3.47-.63-5.3-1.78-2.96-1.85-8.08-6.23-8.08-14.6 0-9.94 6.6-13.7 10.73-15.1 0-.38-.08-.76-.08-1.14 0-8.16 5.6-16.7 13.05-19.77 8.66-3.6 17.83-1.84 24.52 4.78 1.98 1.92 3.55 4.3 4.87 6.92 1.74-1.23 3.8-1.92 5.95-1.92 4.54 0 9.66 3.3 10.65 10.7 6.44 1.53 12.88 6.37 12.88 15.6 0 5.46-2.15 9.85-6.2 12.77l-2.14-3.08c3.06-2.15 4.63-5.46 4.63-9.7 0-9.3-7.93-11.68-11.32-12.22-.5-.08-.9-.38-1.23-.77-.25-.38-.34-.84-.25-1.3-.5-5.77-3.88-8.3-7.02-8.3-1.98 0-3.88 1-5.12 2.68-.4.54-1.07.85-1.73.7-.74-.1-1.32-.55-1.57-1.24-1.16-3.23-2.9-6-5.04-8.15-2.73-2.7-10.08-8.4-20.48-4-5.95 2.46-10.65 9.7-10.65 16.3zm49.7 29.76c0 6.3-5.12 11.4-11.48 11.4-6.28 0-11.4-5.1-11.4-11.4 0-6.3 5.12-11.38 11.4-11.38 6.35 0 11.47 5.08 11.47 11.38zm-3.8 0c0-4.23-3.38-7.7-7.68-7.7-4.22 0-7.68 3.47-7.68 7.7s3.46 7.62 7.67 7.62c4.3 0 7.67-3.4 7.67-7.62zm16.1 19.16l-9.16-8.24c-.65.77-1.3 1.54-1.98 2.24l9.17 8.23c.57.6 1.56.53 2.05-.08.58-.62.5-1.54-.08-2.15z" stroke="#000" stroke-opacity="0" fill="#fff"/><use xlink:href="#F" transform="matrix(1,0,0,1,-6030,3279) translate(5.924999999999997 14.4)"/><use xlink:href="#G" transform="matrix(1,0,0,1,-6030,3279) translate(76.875 14.4)"/><path d="M-6001 3210h-118.24H-6220" stroke="#fff" stroke-width="2" fill="none"/><path d="M-6000 3211h-1.03v-2h1.03z" stroke="#fff" stroke-width=".05" fill="#fff"/><path d="M-6235.26 3210l14.26-4.65v9.28z" stroke="#fff" stroke-width="2" fill="#fff"/><use xlink:href="#H" transform="matrix(1,0,0,1,-6143.469551576286,3171.333333333333) translate(0 23.11111111111111)"/><path d="M-7980.02 3210.74H-7780" stroke="#fff" stroke-width="2" fill="none"/><path d="M-7995.3 3210.74l14.28-4.64v9.27zM-7764.74 3210.75l-14.26 4.63v-9.27z" stroke="#fff" stroke-width="2" fill="#fff"/><use xlink:href="#I" transform="matrix(1,0,0,1,-7901.115880240855,3172.0719404007623) translate(0 23.11111111111111)"/><path d="M-7620 3416a6 6 0 0 1 6-6h608a6 6 0 0 1 6 6v243.7a6 6 0 0 1-6 6h-608a6 6 0 0 1-6-6z" fill-opacity="0"/><path d="M-7599.1 3410h5.96m11.92 0h5.97m11.92 0h5.96m11.92 0h5.96m11.93 0h5.96m11.9 0h5.97m11.93 0h5.96m11.92 0h5.96m11.92 0h5.96m11.92 0h5.96m11.93 0h5.96m11.9 0h5.97m11.92 0h5.95m11.92 0h5.96m11.93 0h5.96m11.92 0h5.96m11.92 0h5.96m11.92 0h5.96m11.92 0h5.97m11.92 0h5.96m11.92 0h5.96m11.93 0h5.96m11.9 0h5.97m11.93 0h5.96m11.92 0h5.96m11.92 0h5.96m11.92 0h5.96m11.93 0h5.96m11.9 0h5.97m11.92 0h5.95m11.92 0h5.96m11.93 0h5.96m11.92 0h5.96m11.92 0h2.98l.94.07.9.22.88.35.8.5.72.6.6.72.5.8.37.88.23.9.07.95v2.9m0 11.6v5.8m0 11.6v5.82m0 11.6v5.8m0 11.6v5.8m0 11.62v5.8m0 11.6v5.8m0 11.6v5.8m0 11.62v5.8m0 11.6v5.8m0 11.6v5.8m0 11.62v5.8m0 11.6v5.8m0 11.6v5.82m0 11.6v2.9l-.07.94-.22.92-.35.87-.5.8-.6.7-.72.63-.8.5-.88.35-.9.23-.95.07h-2.98m-11.92 0h-5.96m-11.92 0h-5.97m-11.92 0h-5.96m-11.92 0h-5.96m-11.93 0h-5.96m-11.9 0h-5.97m-11.93 0h-5.96m-11.92 0h-5.96m-11.92 0h-5.96m-11.92 0h-5.96m-11.93 0h-5.96m-11.9 0h-5.97m-11.92 0h-5.95m-11.92 0h-5.96m-11.93 0h-5.96m-11.92 0h-5.96m-11.92 0h-5.96m-11.92 0h-5.96m-11.92 0h-5.97m-11.92 0h-5.96m-11.92 0h-5.96m-11.93 0h-5.96m-11.9 0h-5.97m-11.93 0h-5.96m-11.92 0h-5.96m-11.92 0h-5.96m-11.92 0h-5.96m-11.93 0h-5.96m-11.9 0h-5.97m-11.92 0h-5.95m-11.92 0h-5.96m-11.93 0h-5.96m-11.92 0h-5.96m-11.92 0h-2.98l-.94-.07-.9-.22-.88-.35-.8-.5-.72-.6-.6-.72-.5-.8-.37-.87-.23-.92-.07-.94v-2.9m0-11.6v-5.8m0-11.6v-5.8m0-11.62v-5.8m0-11.6v-5.8m0-11.6v-5.82m0-11.6v-5.8m0-11.6v-5.8m0-11.62v-5.8m0-11.6v-5.8m0-11.6v-5.8m0-11.62v-5.8m0-11.6v-5.8m0-11.6v-5.8m0-11.62v-2.9l.07-.94.22-.9.35-.88.5-.8.6-.72.72-.6.8-.5.88-.37.9-.23.95-.07h2.98" stroke="#fff" stroke-width="3" fill="none"/><path d="M-7220 3430h120v120h-120v-120z" stroke="#fff" stroke-opacity="0" stroke-width="2" fill="#d6242d"/><path d="M-7141.86 3510.35l2.27-2.27 19.13 19.13-2.26 2.27-19.13-19.12zM-7199.52 3452.67l2.25-2.26 21.2 21.23-2.24 2.25-21.22-21.2zM-7194.73 3522.47l11.2-11.2 2.27 2.26-11.2 11.2-2.27-2.26zM-7138.73 3466.47l11.2-11.2 2.27 2.26-11.2 11.2-2.27-2.26z" stroke="#fff" stroke-opacity="0" stroke-width="1.41" fill="#fff"/><path d="M-7120 3488.4v3.2h-3.2c-.3 7.56-2.5 13.9-6.96 20l-2.6-1.9c4.03-5.53 6.03-11.28 6.3-18.1h-3.2v-3.2h3.2c-.3-6.82-2.27-12.53-6.3-18.06l2.6-1.94c4.43 6.1 6.63 12.44 6.93 20zM-7138.4 3460.16l-1.9 2.6c-5.53-4.03-11.28-6.03-18.1-6.32v3.2h-3.2v-3.2c-6.82.3-12.53 2.3-18.06 6.3l-1.94-2.58c6.1-4.43 12.44-6.63 20-6.92v-3.2h3.2v3.2c7.56.3 13.9 2.5 20 6.92zM-7138.4 3519.84c-6.1 4.43-12.44 6.63-20 6.92v3.2h-3.2v-3.2c-7.56-.3-13.9-2.5-20-6.92l1.9-2.6c5.53 4.03 11.28 6.03 18.1 6.32v-3.2h3.2v3.2c6.82-.3 12.53-2.3 18.06-6.3zM-7193.56 3491.6c.3 6.82 2.3 12.53 6.3 18.06l-2.58 1.94c-4.43-6.1-6.63-12.44-6.92-20h-3.2v-3.2h3.2c.3-7.56 2.5-13.9 6.92-20l2.6 1.9c-4.03 5.53-6.03 11.28-6.32 18.1h3.2v3.2z" stroke="#fff" stroke-opacity="0" stroke-width="2" fill="#fff"/><path d="M-7145.55 3479.9c-.46-.26-1-.26-1.48 0-.5.25-.8.7-.88 1.27-.12 1.02-.27 1.9-.5 2.87-.8-8.14-5.4-14.64-12.8-18.12-2.28-1.74-4.56-2.7-7.38-3.22-.57-.05-1.1.1-1.48.56-.57.66-.5 1.7.2 2.25 3.5 3.44 4.86 8.05 3.8 12.8-1.87-2.45-4.83-5.37-8.3-5.37-.56 0-1.02.26-1.32.72-.3.4-.38.97-.2 1.48.96 2.36 2.78 9.47.16 13.6l-.45.78c-3.65 6.66-1.75 14.85 4.44 19.25 3.3 2.2 6.3 3.74 10.07 5.02.2.05.38.1.57.1h.35c2.13-.2 16.6-2.05 19.57-13.56 4.06-15.6-4-20.2-4.37-20.4zm-17.9 29.78c-2.35-1.03-4.3-2.05-6.42-3.48-4.86-3.43-6.34-9.83-3.5-15.05l.4-.66c2.7-4.26 1.93-10 1.05-13.47 2.2 1.68 3.76 3.47 5.1 5.93.18.4.5.67.9.82.84.3 1.75-.15 2.06-.97 2.05-5.1 1.86-10.23-.54-15.14 2.13 1.23 3.6 2.82 4.68 5.07 2.28 4.7 1.74 11.2-1.33 16.78-3.27 6.5-4.07 13.1-2.4 20.18zm19.2-10.14c-2.1 8.2-12.1 10.5-15.7 11.06-.84-3.13-2.55-11.82 1.7-19.6 3.12-5.43 3.92-11.1 2.36-17.2 2.9 3.38 5.33 8.75 4.04 16.8-.08.45.04.9.34 1.27.57.66 1.56.76 2.24.2 2.2-2.1 3.46-4.5 4.03-7.47 1.52 2.2 3.15 6.7 1.03 14.94z" stroke="#fff" stroke-opacity="0" stroke-width="2" fill="#fff"/><use xlink:href="#J" transform="matrix(1,0,0,1,-7250,3559) translate(40.092592592592595 17.77777777777778)"/><use xlink:href="#K" transform="matrix(1,0,0,1,-7250,3559) translate(93.11728395061729 17.77777777777778)"/><path d="M-7518.52 3430h120v120h-120v-120z" stroke="#fff" stroke-opacity="0" fill="#d6242d"/><path d="M-7423 3460.4h-71.04c-2.48 0-4.48 2-4.48 4.5v50.2c0 2.5 2 4.5 4.48 4.5h71.04c2.48 0 4.48-2 4.48-4.5v-50.2c0-2.5-2-4.5-4.48-4.5zm1.28 54.7c0 .7-.56 1.3-1.28 1.3h-71.04c-.72 0-1.28-.6-1.28-1.3v-50.2c0-.7.56-1.3 1.28-1.3h71.04c.72 0 1.28.6 1.28 1.3z" stroke="#fff" stroke-opacity="0" fill="#fff"/><path d="M-7453.72 3481.2h16v3.2h-16v-3.2zM-7431.32 3481.2h3.2v3.2h-3.2v-3.2zM-7460.6 3486.5c-.3-.35-.67-.52-1.12-.52h-22.4v-8c.03-1.85.86-3.45 2.4-4.53 1.7-1.3 3.5-1.86 5.6-1.86 2.17-.05 4.06.64 5.76 2.03 1.4 1.08 2.17 2.6 2.24 4.36v7.98h3.2v-8.64c-.07-2.63-1.25-4.84-3.4-6.4-2.33-1.76-4.86-2.6-7.8-2.54-6.18 0-11.2 4.02-11.2 8.94v8.64h-3.2c-.9 0-1.6.74-1.6 1.6V3510c0 .87.7 1.6 1.6 1.6h28.8c.9 0 1.6-.73 1.6-1.6v-22.42c0-.43-.16-.78-.45-1.08zm-2.72 7.52h-4.8v3.2h4.8v3.2h-4.8v3.2h4.8v4.78h-25.6v-19.18h25.6z" stroke="#fff" stroke-opacity="0" fill="#fff"/><path d="M-7476.12 3491.7c-2 .03-3.7 1.2-4.4 3.1-.88 2.4.37 5.1 2.8 6v4.4h3.2v-4.4c1.87-.7 3.06-2.38 3.07-4.38 0-2.6-2.1-4.7-4.67-4.7zm0 6.73c-1.13 0-2.03-.9-2.03-2.02 0-1.13.9-2.03 2.03-2.03 1.12 0 2.03.9 2.03 2.04 0 1.13-.9 2.03-2.02 2.03zM-7453.72 3489.2h11.2v3.2h-11.2v-3.2zM-7436.12 3489.2h8v3.2h-8v-3.2zM-7453.72 3497.2h20.8v3.2h-20.8v-3.2z" stroke="#fff" stroke-opacity="0" fill="#fff"/><use xlink:href="#J" transform="matrix(1,0,0,1,-7548.523148148148,3559) translate(10.185185185185176 17.77777777777778)"/><use xlink:href="#L" transform="matrix(1,0,0,1,-7548.523148148148,3559) translate(63.209876543209866 17.77777777777778)"/><use xlink:href="#M" transform="matrix(1,0,0,1,-7548.523148148148,3559) translate(137.77777777777777 17.77777777777778)"/><use xlink:href="#N" transform="matrix(1,0,0,1,-7548.523148148148,3559) translate(58.641975308641975 44.44444444444444)"/><use xlink:href="#O" transform="matrix(1,0,0,1,-7548.523148148148,3559) translate(0.4320987654321016 71.11111111111111)"/><use xlink:href="#P" transform="matrix(1,0,0,1,-7548.523148148148,3559) translate(121.79012345679011 71.11111111111111)"/><path d="M-6997.5 3537.85h137.46a.04.04 0 0 1 .04.04.04.04 0 0 0 .04.03H-6740" stroke="#fff" stroke-width="2" fill="none"/><path d="M-6997.47 3538.85h-1.03v-2h1.03z" stroke="#fff" stroke-width=".05" fill="#fff"/><path d="M-6724.74 3537.93l-14.26 4.63v-9.27z" stroke="#fff" stroke-width="2" fill="#fff"/><g><use xlink:href="#Q" transform="matrix(1,0,0,1,-6903.651199657938,3499.184732938617) translate(0 23.11111111111111)"/></g><path d="M-7310 3407.5V3350" stroke="#fff" stroke-width="2" fill="none"/><path d="M-7309 3408.5h-2v-1.03h2z" stroke="#fff" stroke-width=".05" fill="#fff"/><path d="M-7310 3334.74l4.63 14.26h-9.27z" stroke="#fff" stroke-width="2" fill="#fff"/><g><use xlink:href="#Q" transform="matrix(1,0,0,1,-7302,3362.3153039761182) translate(0 23.11111111111111)"/></g><path d="M-8332.15 3210h96.45a.37.37 0 0 1 .37.37.37.37 0 0 0 .37.37h96.46" stroke="#fff" stroke-width="2" fill="none"/><path d="M-8347.42 3210l14.27-4.64v9.28zM-8123.24 3210.74l-14.26 4.63v-9.27z" stroke="#fff" stroke-width="2" fill="#fff"/><path d="M-8660 3256a6 6 0 0 1 6-6h409.5a6 6 0 0 1 6 6v148a6 6 0 0 1-6 6H-8654a6 6 0 0 1-6-6z" stroke="#000" stroke-opacity="0" stroke-width="3" fill="#fff" fill-opacity="0"/><g><use xlink:href="#R" transform="matrix(1,0,0,1,-8655,3255) translate(117.79012345679016 82.43055555555554)"/></g><defs><path fill="#333" d="M75-108c48 3 76-12 76-58s-28-57-76-54v112zm111-58c-1 60-46 78-111 74v78l37 5v9H13v-9l28-5v-208l-31-4v-10c81 1 178-14 176 70" id="S"/><path fill="#333" d="M57-145c16-10 35-24 60-25v45c-19 1-8-30-40-17l-20 6v124l29 4v8H7v-8l21-4v-141c-8-3-24 2-21-12h48" id="T"/><path fill="#333" d="M90-170c52 0 76 32 76 87 0 54-24 87-77 87-51 0-75-34-75-87 0-54 24-87 76-87zM89-10c39 0 46-35 46-73 0-39-7-73-46-73-39 1-44 34-44 73s6 72 44 73" id="U"/><path fill="#333" d="M45-84c0 64 52 80 104 63 1 25-30 25-55 25-56 0-80-32-80-88 0-76 62-98 131-80v46h-10c-5-15-4-31-23-35-47-10-67 21-67 69" id="V"/><path fill="#333" d="M84-170c49 0 66 33 63 87H46c-8 60 38 80 95 63v10C128-2 108 4 88 4 34 4 14-29 14-84c-1-54 22-86 70-86zm33 73c12-57-57-82-69-24-1 7-2 15-2 24h71" id="W"/><path fill="#333" d="M41-130c7 48 86 23 86 84 0 56-69 57-112 41v-40c20 0 9 29 31 31 35 19 77-26 41-50-27-18-72-13-72-59 0-50 58-52 100-41v36c-19 1-8-25-28-25-21-7-50-1-46 23" id="X"/><g id="a"><use transform="matrix(0.06172839506172839,0,0,0.06172839506172839,0,0)" xlink:href="#S"/><use transform="matrix(0.06172839506172839,0,0,0.06172839506172839,12.345679012345679,0)" xlink:href="#T"/><use transform="matrix(0.06172839506172839,0,0,0.06172839506172839,19.691358024691358,0)" xlink:href="#U"/><use transform="matrix(0.06172839506172839,0,0,0.06172839506172839,30.80246913580247,0)" xlink:href="#V"/><use transform="matrix(0.06172839506172839,0,0,0.06172839506172839,40.617283950617285,0)" xlink:href="#W"/><use transform="matrix(0.06172839506172839,0,0,0.06172839506172839,50.4320987654321,0)" xlink:href="#X"/><use transform="matrix(0.06172839506172839,0,0,0.06172839506172839,59.074074074074076,0)" xlink:href="#X"/></g><path fill="#fff" d="M81-9v9H4v-9l26-5 81-224h33l83 224 30 5v9h-99v-9l31-5-23-68H73L49-14zm38-203L78-98h82" id="Y"/><path fill="#fff" d="M126-118c4-37-42-32-68-25v131l24 4v8H8C5-13 21-9 28-12v-141c-7-3-23 1-20-12h48l1 13c22-15 77-30 92 2 32-22 104-36 104 29v109c8 3 24-2 21 12h-75v-8l25-4v-106c3-39-45-31-72-24 7 37 1 88 3 130l25 4v8h-78v-8l24-4v-106" id="Z"/><path fill="#fff" d="M32-163c41-10 102-14 102 39v112c8 3 24-2 21 12h-45l-4-17C83 13 3 13 13-46c-2-50 45-50 92-51 4-36-5-70-42-56-6 2-12 4-16 6-4 7 0 23-15 20v-36zM42-47c0 41 41 33 63 22v-59c-34 1-63-1-63 37" id="aa"/><path fill="#fff" d="M10 0v-8l90-143c-23 2-54-4-70 6-5 8 1 26-14 24v-44h122v8L47-14c29-2 65 3 86-8l9-35h8l-5 57H10" id="ab"/><path fill="#fff" d="M90-170c52 0 76 32 76 87 0 54-24 87-77 87-51 0-75-34-75-87 0-54 24-87 76-87zM89-10c39 0 46-35 46-73 0-39-7-73-46-73-39 1-44 34-44 73s6 72 44 73" id="ac"/><path fill="#fff" d="M125-118c4-37-41-34-68-26v132l23 4v8H8C5-13 21-9 28-12v-141c-7-3-23 1-20-12h47l2 13c31-23 98-29 98 31v109c7 3 23-1 20 12h-72v-8l22-4v-106" id="ad"/><g id="b"><use transform="matrix(0.06172839506172839,0,0,0.06172839506172839,0,0)" xlink:href="#Y"/><use transform="matrix(0.06172839506172839,0,0,0.06172839506172839,15.987654320987653,0)" xlink:href="#Z"/><use transform="matrix(0.06172839506172839,0,0,0.06172839506172839,33.2716049382716,0)" xlink:href="#aa"/><use transform="matrix(0.06172839506172839,0,0,0.06172839506172839,43.08641975308642,0)" xlink:href="#ab"/><use transform="matrix(0.06172839506172839,0,0,0.06172839506172839,52.901234567901234,0)" xlink:href="#ac"/><use transform="matrix(0.06172839506172839,0,0,0.06172839506172839,64.01234567901234,0)" xlink:href="#ad"/></g><path fill="#fff" d="M199-173c-1 36-21 56-49 65l64 94 26 5v9h-57l-66-103H75v89l35 5v9H13v-9l28-5v-208l-31-4v-10c80 4 190-20 189 63zM75-119c50 2 89-1 89-51 0-49-39-52-89-50v101" id="ae"/><path fill="#fff" d="M10-9l31-5v-208l-31-4v-10h177v57h-11l-6-38c-28-4-63-3-95-3v92h63l6-28h11v73h-11l-6-29H75v96l105-3 10-43h12l-3 62H10v-9" id="af"/><path fill="#fff" d="M178-68c0 79-95 82-154 59v-54h12c1 35 22 52 60 52 50 0 69-58 33-82-39-24-105-21-105-85 0-67 86-66 142-53v49h-12l-6-29c-31-27-121-7-89 42 28 43 119 24 119 101" id="ag"/><path fill="#fff" d="M55 0v-9l38-5v-207c-22 1-53 0-70 4l-5 37H7v-56h207v56h-12l-5-37-70-3v206l37 5v9H55" id="ah"/><g id="c"><use transform="matrix(0.06172839506172839,0,0,0.06172839506172839,0,0)" xlink:href="#ae"/><use transform="matrix(0.06172839506172839,0,0,0.06172839506172839,14.814814814814813,0)" xlink:href="#af"/><use transform="matrix(0.06172839506172839,0,0,0.06172839506172839,28.33333333333333,0)" xlink:href="#ag"/><use transform="matrix(0.06172839506172839,0,0,0.06172839506172839,40.679012345679006,0)" xlink:href="#ah"/></g><path fill="#fff" d="M75-108c48 3 76-12 76-58s-28-57-76-54v112zm111-58c-1 60-46 78-111 74v78l37 5v9H13v-9l28-5v-208l-31-4v-10c81 1 178-14 176 70" id="ai"/><path fill="#fff" d="M77-14l30 5v9H13v-9l30-5v-208l-30-4v-10h94v10l-30 4v208" id="aj"/><g id="d"><use transform="matrix(0.06172839506172839,0,0,0.06172839506172839,0,0)" xlink:href="#Y"/><use transform="matrix(0.06172839506172839,0,0,0.06172839506172839,15.987654320987653,0)" xlink:href="#ai"/><use transform="matrix(0.06172839506172839,0,0,0.06172839506172839,28.333333333333332,0)" xlink:href="#aj"/></g><path fill="#fff" d="M52-115c0 90 69 126 140 93v-67l-30-5v-9h87v9l-23 5v77c-27 8-56 16-90 16C59 2 15-37 15-115c-1-82 41-123 122-123 31 0 59 4 83 10v51h-12l-5-29c-15-12-38-18-65-18-66-1-86 42-86 109" id="ak"/><path fill="#fff" d="M54-38c-1 25 24 26 44 20v12C71 10 25 9 25-35v-115H4c-2-14 14-10 21-15l18-38h11v38h38v15H54v112" id="al"/><path fill="#fff" d="M84-170c49 0 66 33 63 87H46c-8 60 38 80 95 63v10C128-2 108 4 88 4 34 4 14-29 14-84c-1-54 22-86 70-86zm33 73c12-57-57-82-69-24-1 7-2 15-2 24h71" id="am"/><path fill="#fff" d="M240-154L185 4h-14l-41-109L90 4H77L20-153c-7-3-23 1-20-12h79v8l-27 4L91-41l40-108h14l40 109 38-113-28-4v-8h63v8" id="an"/><path fill="#fff" d="M161-154L85 37C75 66 49 86 8 75V39c18-2 6 24 29 21 30-4 38-32 47-58L21-153c-7-3-20 0-17-12h77v8l-26 4 45 116 43-116-26-4v-8h62v8" id="ao"/><g id="e"><use transform="matrix(0.06172839506172839,0,0,0.06172839506172839,0,0)" xlink:href="#ak"/><use transform="matrix(0.06172839506172839,0,0,0.06172839506172839,15.987654320987653,0)" xlink:href="#aa"/><use transform="matrix(0.06172839506172839,0,0,0.06172839506172839,25.80246913580247,0)" xlink:href="#al"/><use transform="matrix(0.06172839506172839,0,0,0.06172839506172839,31.975308641975307,0)" xlink:href="#am"/><use transform="matrix(0.06172839506172839,0,0,0.06172839506172839,41.79012345679012,0)" xlink:href="#an"/><use transform="matrix(0.06172839506172839,0,0,0.06172839506172839,57.77777777777777,0)" xlink:href="#aa"/><use transform="matrix(0.06172839506172839,0,0,0.06172839506172839,67.59259259259258,0)" xlink:href="#ao"/></g><path fill="#fff" d="M205 0l-28-72H64L36 0H1l101-248h38L239 0h-34zm-38-99l-47-123c-12 45-31 82-46 123h93" id="ap"/><path fill="#fff" d="M266 0h-40l-56-210L115 0H75L2-248h35L96-30l15-64 43-154h32l59 218 59-218h35" id="aq"/><path fill="#fff" d="M185-189c-5-48-123-54-124 2 14 75 158 14 163 119 3 78-121 87-175 55-17-10-28-26-33-46l33-7c5 56 141 63 141-1 0-78-155-14-162-118-5-82 145-84 179-34 5 7 8 16 11 25" id="ar"/><g id="f"><use transform="matrix(0.05,0,0,0.05,0,0)" xlink:href="#ap"/><use transform="matrix(0.05,0,0,0.05,11.35,0)" xlink:href="#aq"/><use transform="matrix(0.05,0,0,0.05,28.299999999999997,0)" xlink:href="#ar"/></g><path fill="#fff" d="M212-179c-10-28-35-45-73-45-59 0-87 40-87 99 0 60 29 101 89 101 43 0 62-24 78-52l27 14C228-24 195 4 139 4 59 4 22-46 18-125c-6-104 99-153 187-111 19 9 31 26 39 46" id="as"/><path fill="#fff" d="M24 0v-261h32V0H24" id="at"/><path fill="#fff" d="M100-194c62-1 85 37 85 99 1 63-27 99-86 99S16-35 15-95c0-66 28-99 85-99zM99-20c44 1 53-31 53-75 0-43-8-75-51-75s-53 32-53 75 10 74 51 75" id="au"/><path fill="#fff" d="M84 4C-5 8 30-112 23-190h32v120c0 31 7 50 39 49 72-2 45-101 50-169h31l1 190h-30c-1-10 1-25-2-33-11 22-28 36-60 37" id="av"/><path fill="#fff" d="M85-194c31 0 48 13 60 33l-1-100h32l1 261h-30c-2-10 0-23-3-31C134-8 116 4 85 4 32 4 16-35 15-94c0-66 23-100 70-100zm9 24c-40 0-46 34-46 75 0 40 6 74 45 74 42 0 51-32 51-76 0-42-9-74-50-73" id="aw"/><g id="g"><use transform="matrix(0.05,0,0,0.05,0,0)" xlink:href="#as"/><use transform="matrix(0.05,0,0,0.05,12.950000000000001,0)" xlink:href="#at"/><use transform="matrix(0.05,0,0,0.05,16.900000000000002,0)" xlink:href="#au"/><use transform="matrix(0.05,0,0,0.05,26.900000000000002,0)" xlink:href="#av"/><use transform="matrix(0.05,0,0,0.05,36.900000000000006,0)" xlink:href="#aw"/></g><path fill="#fff" d="M75-106v92l39 5v9H13v-9l28-5v-208l-31-4v-10h177v57h-11l-6-38c-28-4-63-3-95-3v98h69l5-28h11v73h-11l-5-29H75" id="ax"/><path fill="#fff" d="M45-84c0 64 52 80 104 63 1 25-30 25-55 25-56 0-80-32-80-88 0-76 62-98 131-80v46h-10c-5-15-4-31-23-35-47-10-67 21-67 69" id="ay"/><path fill="#fff" d="M126-119c3-38-42-31-69-25v132l23 4v8H7v-8l21-4v-226l-24-4v-8h53l-1 98c31-22 99-31 99 31v109c7 3 23-1 20 12h-71v-8l22-4v-107" id="az"/><path fill="#fff" d="M-3 46V28h186v18H-3" id="aA"/><path fill="#fff" d="M65-12l28 4v8H7v-8l28-4v-226l-28-4v-8h58v238" id="aB"/><path fill="#fff" d="M41-130c7 48 86 23 86 84 0 56-69 57-112 41v-40c20 0 9 29 31 31 35 19 77-26 41-50-27-18-72-13-72-59 0-50 58-52 100-41v36c-19 1-8-25-28-25-21-7-50-1-46 23" id="aC"/><path fill="#fff" d="M124-13C89 8 26 15 26-45v-108c-8-3-24 2-21-12h50v118c-3 37 42 32 69 25v-131l-25-4v-8h54v153c8 3 24-2 21 12h-48" id="aD"/><path fill="#fff" d="M166-85c3 67-44 102-111 85l1 64 29 4v9H6v-9l21-4v-217c-7-3-22 1-19-12h46l1 9c11-8 26-14 45-14 47 2 64 36 66 85zM56-13c53 14 83-14 78-72 7-53-33-79-78-60v132" id="aE"/><path fill="#fff" d="M13-81c0-71 46-101 114-85l-1-72-28-4v-8h57v238c8 3 24-2 21 12h-47l-2-12C80 23 13-1 13-81zm77-74c-37 1-44 33-45 74 0 38 9 66 45 66 14 0 27-3 36-7v-130c-10-1-24-3-36-3" id="aF"/><g id="h"><use transform="matrix(0.06790123456790123,0,0,0.06790123456790123,0,0)" xlink:href="#ax"/><use transform="matrix(0.06790123456790123,0,0,0.06790123456790123,13.580246913580247,0)" xlink:href="#am"/><use transform="matrix(0.06790123456790123,0,0,0.06790123456790123,24.376543209876544,0)" xlink:href="#al"/><use transform="matrix(0.06790123456790123,0,0,0.06790123456790123,31.166666666666668,0)" xlink:href="#ay"/><use transform="matrix(0.06790123456790123,0,0,0.06790123456790123,41.96296296296296,0)" xlink:href="#az"/><use transform="matrix(0.06790123456790123,0,0,0.06790123456790123,54.18518518518518,0)" xlink:href="#aA"/><use transform="matrix(0.06790123456790123,0,0,0.06790123456790123,66.4074074074074,0)" xlink:href="#aB"/><use transform="matrix(0.06790123456790123,0,0,0.06790123456790123,73.19753086419753,0)" xlink:href="#aa"/><use transform="matrix(0.06790123456790123,0,0,0.06790123456790123,83.99382716049382,0)" xlink:href="#aC"/><use transform="matrix(0.06790123456790123,0,0,0.06790123456790123,93.5,0)" xlink:href="#al"/><use transform="matrix(0.06790123456790123,0,0,0.06790123456790123,100.29012345679013,0)" xlink:href="#aA"/><use transform="matrix(0.06790123456790123,0,0,0.06790123456790123,112.51234567901236,0)" xlink:href="#aD"/><use transform="matrix(0.06790123456790123,0,0,0.06790123456790123,124.73456790123457,0)" xlink:href="#aE"/><use transform="matrix(0.06790123456790123,0,0,0.06790123456790123,136.9567901234568,0)" xlink:href="#aF"/><use transform="matrix(0.06790123456790123,0,0,0.06790123456790123,149.17901234567904,0)" xlink:href="#aa"/><use transform="matrix(0.06790123456790123,0,0,0.06790123456790123,159.97530864197532,0)" xlink:href="#al"/><use transform="matrix(0.06790123456790123,0,0,0.06790123456790123,166.76543209876547,0)" xlink:href="#am"/><use transform="matrix(0.06790123456790123,0,0,0.06790123456790123,177.56172839506178,0)" xlink:href="#aF"/></g><path fill="#fff" d="M152 0h-7L59-203v189l32 5v9H10v-9l31-5v-208l-31-4v-10h72l76 180 84-180h68v10l-31 4v208l31 5v9h-96v-9l32-5v-189" id="aG"/><path fill="#fff" d="M57-145c16-10 35-24 60-25v45c-19 1-8-30-40-17l-20 6v124l29 4v8H7v-8l21-4v-141c-8-3-24 2-21-12h48" id="aH"/><path fill="#fff" d="M47-200c-23 0-25-39 0-38 13 0 18 7 20 19-1 11-8 19-20 19zM65-12l28 4v8H8v-8l28-4v-141l-24-4v-8h53v153" id="aI"/><path fill="#fff" d="M75-17c87 13 134-18 134-103 0-78-51-106-134-100v203zm171-102C246 5 139 7 10 0v-9l31-5v-208l-31-4v-10h107c82 0 129 35 129 117" id="aJ"/><path fill="#fff" d="M75-131c50 2 93 3 93-48 0-46-48-41-93-41v89zm0 115c55 4 111 6 111-51 0-53-58-48-111-48v99zm148-52C223 24 102-3 10 0v-9l31-5v-208l-31-4v-10c77 6 193-24 194 56 0 33-20 48-48 54 36 5 67 20 67 58" id="aK"/><g id="i"><use transform="matrix(0.06172839506172839,0,0,0.06172839506172839,0,0)" xlink:href="#aG"/><use transform="matrix(0.06172839506172839,0,0,0.06172839506172839,19.753086419753085,0)" xlink:href="#aa"/><use transform="matrix(0.06172839506172839,0,0,0.06172839506172839,29.5679012345679,0)" xlink:href="#aH"/><use transform="matrix(0.06172839506172839,0,0,0.06172839506172839,36.913580246913575,0)" xlink:href="#aI"/><use transform="matrix(0.06172839506172839,0,0,0.06172839506172839,43.08641975308642,0)" xlink:href="#aa"/><use transform="matrix(0.06172839506172839,0,0,0.06172839506172839,52.901234567901234,0)" xlink:href="#aJ"/><use transform="matrix(0.06172839506172839,0,0,0.06172839506172839,68.88888888888889,0)" xlink:href="#aK"/></g><path fill="#fff" d="M53-14c58 12 82-15 82-73 0-52-35-77-82-58v131zM89 4C64 4 42-2 24-9v-229l-24-4v-8h53l-1 94c48-33 114-4 114 69 0 57-23 91-77 91" id="aL"/><g id="j"><use transform="matrix(0.06790123456790123,0,0,0.06790123456790123,0,0)" xlink:href="#ax"/><use transform="matrix(0.06790123456790123,0,0,0.06790123456790123,13.580246913580247,0)" xlink:href="#am"/><use transform="matrix(0.06790123456790123,0,0,0.06790123456790123,24.376543209876544,0)" xlink:href="#al"/><use transform="matrix(0.06790123456790123,0,0,0.06790123456790123,31.166666666666668,0)" xlink:href="#ay"/><use transform="matrix(0.06790123456790123,0,0,0.06790123456790123,41.96296296296296,0)" xlink:href="#az"/><use transform="matrix(0.06790123456790123,0,0,0.06790123456790123,54.18518518518518,0)" xlink:href="#aA"/><use transform="matrix(0.06790123456790123,0,0,0.06790123456790123,66.4074074074074,0)" xlink:href="#Z"/><use transform="matrix(0.06790123456790123,0,0,0.06790123456790123,85.41975308641975,0)" xlink:href="#ac"/><use transform="matrix(0.06790123456790123,0,0,0.06790123456790123,97.64197530864197,0)" xlink:href="#aL"/><use transform="matrix(0.06790123456790123,0,0,0.06790123456790123,109.8641975308642,0)" xlink:href="#aI"/><use transform="matrix(0.06790123456790123,0,0,0.06790123456790123,116.65432098765433,0)" xlink:href="#aB"/><use transform="matrix(0.06790123456790123,0,0,0.06790123456790123,123.44444444444446,0)" xlink:href="#aI"/><use transform="matrix(0.06790123456790123,0,0,0.06790123456790123,130.23456790123458,0)" xlink:href="#al"/><use transform="matrix(0.06790123456790123,0,0,0.06790123456790123,137.0246913580247,0)" xlink:href="#ao"/></g><g id="k"><use transform="matrix(0.06790123456790123,0,0,0.06790123456790123,0,0)" xlink:href="#ax"/><use transform="matrix(0.06790123456790123,0,0,0.06790123456790123,13.580246913580247,0)" xlink:href="#am"/><use transform="matrix(0.06790123456790123,0,0,0.06790123456790123,24.376543209876544,0)" xlink:href="#al"/><use transform="matrix(0.06790123456790123,0,0,0.06790123456790123,31.166666666666668,0)" xlink:href="#ay"/><use transform="matrix(0.06790123456790123,0,0,0.06790123456790123,41.96296296296296,0)" xlink:href="#az"/><use transform="matrix(0.06790123456790123,0,0,0.06790123456790123,54.18518518518518,0)" xlink:href="#aA"/><use transform="matrix(0.06790123456790123,0,0,0.06790123456790123,66.4074074074074,0)" xlink:href="#aE"/><use transform="matrix(0.06790123456790123,0,0,0.06790123456790123,78.62962962962962,0)" xlink:href="#aH"/><use transform="matrix(0.06790123456790123,0,0,0.06790123456790123,86.70987654320987,0)" xlink:href="#am"/><use transform="matrix(0.06790123456790123,0,0,0.06790123456790123,97.50617283950616,0)" xlink:href="#aF"/><use transform="matrix(0.06790123456790123,0,0,0.06790123456790123,109.72839506172838,0)" xlink:href="#aI"/><use transform="matrix(0.06790123456790123,0,0,0.06790123456790123,116.51851851851852,0)" xlink:href="#ay"/><use transform="matrix(0.06790123456790123,0,0,0.06790123456790123,127.3148148148148,0)" xlink:href="#al"/><use transform="matrix(0.06790123456790123,0,0,0.06790123456790123,134.1049382716049,0)" xlink:href="#aI"/><use transform="matrix(0.06790123456790123,0,0,0.06790123456790123,140.89506172839504,0)" xlink:href="#ac"/><use transform="matrix(0.06790123456790123,0,0,0.06790123456790123,153.11728395061726,0)" xlink:href="#ad"/></g><path fill="#fff" d="M138 4C60 2 18-37 18-118s41-120 122-120c80 0 122 39 122 120 0 59-22 97-65 112 17 20 30 48 67 42v15c-34 14-83 3-102-19zm2-225c-55 0-64 47-64 103S8-14 140-14c56 0 64-48 64-104s-9-103-64-103" id="aM"/><path fill="#fff" d="M73-51c-3 31 27 38 51 25v-123l-16-5v-11h66v149l17 4V0h-65l-2-14C94 9 22 18 22-44v-105l-17-5v-11h68v114" id="aN"/><path fill="#fff" d="M12-83c0-55 22-85 75-86 52-1 66 33 63 88H64c-1 37 6 64 44 63 14 0 28-4 39-6 3 28-28 25-55 27-57 4-80-31-80-86zm90-17c2-26 0-63-27-48-10 9-11 28-11 48h38" id="aO"/><path fill="#fff" d="M132-132c-21 0-37 9-50 16v100l26 4V0H10v-12l21-4v-133l-21-5v-11h69l2 34c17-18 35-41 71-40v61c-17 3-14-14-20-22" id="aP"/><path fill="#fff" d="M81 5L15-149c-7-2-13-5-11-16h84v11l-20 5 39 91 35-91-19-5v-11h53c2 11-4 13-11 15C134-81 111-5 75 58 65 77 34 83 8 74V32h11c0 24 29 35 43 12 7-11 13-25 19-39" id="aQ"/><g id="l"><use transform="matrix(0.0987654320987654,0,0,0.0987654320987654,0,0)" xlink:href="#aM"/><use transform="matrix(0.0987654320987654,0,0,0.0987654320987654,27.654320987654312,0)" xlink:href="#aN"/><use transform="matrix(0.0987654320987654,0,0,0.0987654320987654,47.40740740740739,0)" xlink:href="#aO"/><use transform="matrix(0.0987654320987654,0,0,0.0987654320987654,63.11111111111109,0)" xlink:href="#aP"/><use transform="matrix(0.0987654320987654,0,0,0.0987654320987654,78.81481481481478,0)" xlink:href="#aQ"/></g><path fill="#fff" d="M104-123c39 3 61 21 62 59C167 7 83 12 19-4l-2-50h12c2 29 16 43 51 43 38 0 54-19 54-55 2-43-34-49-75-50v-14c37 0 64-7 64-48 0-47-47-56-81-36l-6 29H24v-46c51-13 135-13 131 51-2 34-20 52-51 57" id="aR"/><g id="m"><use transform="matrix(0.06172839506172839,0,0,0.06172839506172839,0,0)" xlink:href="#ag"/><use transform="matrix(0.06172839506172839,0,0,0.06172839506172839,12.345679012345679,0)" xlink:href="#aR"/></g><path fill="#fff" d="M60-80l68-73c-7-3-20 0-17-12h58c3 13-13 9-20 12l-47 48 60 93c7 3 21-1 18 12h-68c-3-12 9-9 15-12L82-83 60-60v48c7 3 21-1 18 12H10v-8l21-4v-226l-24-4v-8h53v170" id="aS"/><g id="n"><use transform="matrix(0.06172839506172839,0,0,0.06172839506172839,0,0)" xlink:href="#aK"/><use transform="matrix(0.06172839506172839,0,0,0.06172839506172839,14.814814814814813,0)" xlink:href="#aD"/><use transform="matrix(0.06172839506172839,0,0,0.06172839506172839,25.925925925925924,0)" xlink:href="#ay"/><use transform="matrix(0.06172839506172839,0,0,0.06172839506172839,35.74074074074074,0)" xlink:href="#aS"/><use transform="matrix(0.06172839506172839,0,0,0.06172839506172839,46.85185185185185,0)" xlink:href="#am"/><use transform="matrix(0.06172839506172839,0,0,0.06172839506172839,56.666666666666664,0)" xlink:href="#al"/></g><path fill="#fff" d="M92-20c74 11 92-29 92-98 0-66-23-103-92-98v196zm150-99C242 9 136 6 6 0v-13l31-5v-200l-31-5v-13h112c81 0 124 34 124 117" id="aT"/><path fill="#fff" d="M31-163c51-5 127-20 127 40v107l17 4V0h-61l-4-13C82 13 12 12 12-46c0-51 46-52 95-53 9-45-22-69-57-44l-7 20H31v-40zM62-47c0 30 26 34 45 23v-59c-28 0-45 6-45 36" id="aU"/><path fill="#fff" d="M78-41c-2 24 21 26 40 20C122 3 98 2 77 4 5 10 32-84 27-147H6v-11l25-7 21-38h26v38h35v18H78v106" id="aV"/><g id="o"><use transform="matrix(0.06172839506172839,0,0,0.06172839506172839,0,0)" xlink:href="#aT"/><use transform="matrix(0.06172839506172839,0,0,0.06172839506172839,15.987654320987653,0)" xlink:href="#aU"/><use transform="matrix(0.06172839506172839,0,0,0.06172839506172839,27.098765432098766,0)" xlink:href="#aV"/><use transform="matrix(0.06172839506172839,0,0,0.06172839506172839,34.44444444444444,0)" xlink:href="#aU"/></g><path fill="#fff" d="M185-72C185 13 82 14 19-9v-63h16c2 37 21 58 61 58 46 0 69-51 31-71-42-23-106-23-106-90 0-69 87-70 148-56v56h-16l-7-32c-26-25-110-13-82 35 39 34 121 26 121 100" id="aW"/><path fill="#fff" d="M90-170c54-1 76 32 76 87 1 56-23 87-77 87-53 0-75-32-75-87s23-86 76-87zM89-14c28-2 26-38 26-69s3-69-26-69c-27 0-24 39-24 69s-3 66 24 69" id="aX"/><path fill="#fff" d="M9 41c2-18 18-26 32-33C29 1 16-9 16-28l29-33c-21-9-31-25-31-51-2-56 61-65 111-53l39-20c13 12-9 24-14 36 35 54-17 114-90 92-17 34 27 28 56 28 36-1 61 12 60 46-2 46-39 62-91 62-38 0-71-6-76-38zm35-3c6 35 97 29 94-9-2-28-50-14-78-17-8 7-15 14-16 26zm20-150c0 22 4 40 23 40 20 0 24-17 24-40 0-24-4-40-24-40-19 0-23 17-23 40" id="aY"/><g id="p"><use transform="matrix(0.06172839506172839,0,0,0.06172839506172839,0,0)" xlink:href="#aW"/><use transform="matrix(0.06172839506172839,0,0,0.06172839506172839,12.345679012345679,0)" xlink:href="#aV"/><use transform="matrix(0.06172839506172839,0,0,0.06172839506172839,19.691358024691358,0)" xlink:href="#aX"/><use transform="matrix(0.06172839506172839,0,0,0.06172839506172839,30.80246913580247,0)" xlink:href="#aP"/><use transform="matrix(0.06172839506172839,0,0,0.06172839506172839,40.617283950617285,0)" xlink:href="#aU"/><use transform="matrix(0.06172839506172839,0,0,0.06172839506172839,51.72839506172839,0)" xlink:href="#aY"/><use transform="matrix(0.06172839506172839,0,0,0.06172839506172839,62.839506172839506,0)" xlink:href="#aO"/></g><g id="q"><use transform="matrix(0.06790123456790123,0,0,0.06790123456790123,0,0)" xlink:href="#ax"/><use transform="matrix(0.06790123456790123,0,0,0.06790123456790123,13.580246913580247,0)" xlink:href="#am"/><use transform="matrix(0.06790123456790123,0,0,0.06790123456790123,24.376543209876544,0)" xlink:href="#al"/><use transform="matrix(0.06790123456790123,0,0,0.06790123456790123,31.166666666666668,0)" xlink:href="#ay"/><use transform="matrix(0.06790123456790123,0,0,0.06790123456790123,41.96296296296296,0)" xlink:href="#az"/><use transform="matrix(0.06790123456790123,0,0,0.06790123456790123,54.18518518518518,0)" xlink:href="#aA"/><use transform="matrix(0.06790123456790123,0,0,0.06790123456790123,66.4074074074074,0)" xlink:href="#aC"/><use transform="matrix(0.06790123456790123,0,0,0.06790123456790123,75.91358024691358,0)" xlink:href="#aE"/><use transform="matrix(0.06790123456790123,0,0,0.06790123456790123,88.1358024691358,0)" xlink:href="#aI"/><use transform="matrix(0.06790123456790123,0,0,0.06790123456790123,94.92592592592592,0)" xlink:href="#aS"/><use transform="matrix(0.06790123456790123,0,0,0.06790123456790123,107.14814814814815,0)" xlink:href="#am"/></g><g id="r"><use transform="matrix(0.06172839506172839,0,0,0.06172839506172839,0,0)" xlink:href="#ax"/><use transform="matrix(0.06172839506172839,0,0,0.06172839506172839,12.345679012345679,0)" xlink:href="#am"/><use transform="matrix(0.06172839506172839,0,0,0.06172839506172839,22.160493827160494,0)" xlink:href="#al"/><use transform="matrix(0.06172839506172839,0,0,0.06172839506172839,28.333333333333332,0)" xlink:href="#ay"/><use transform="matrix(0.06172839506172839,0,0,0.06172839506172839,38.148148148148145,0)" xlink:href="#az"/><use transform="matrix(0.06172839506172839,0,0,0.06172839506172839,49.25925925925925,0)" xlink:href="#aA"/><use transform="matrix(0.06172839506172839,0,0,0.06172839506172839,60.37037037037037,0)" xlink:href="#aC"/><use transform="matrix(0.06172839506172839,0,0,0.06172839506172839,69.01234567901234,0)" xlink:href="#ao"/><use transform="matrix(0.06172839506172839,0,0,0.06172839506172839,80.12345679012346,0)" xlink:href="#Z"/><use transform="matrix(0.06172839506172839,0,0,0.06172839506172839,97.4074074074074,0)" xlink:href="#aE"/><use transform="matrix(0.06172839506172839,0,0,0.06172839506172839,108.51851851851852,0)" xlink:href="#al"/><use transform="matrix(0.06172839506172839,0,0,0.06172839506172839,114.69135802469135,0)" xlink:href="#ac"/><use transform="matrix(0.06172839506172839,0,0,0.06172839506172839,125.80246913580247,0)" xlink:href="#Z"/></g><g id="s"><use transform="matrix(0.06172839506172839,0,0,0.06172839506172839,0,0)" xlink:href="#aD"/><use transform="matrix(0.06172839506172839,0,0,0.06172839506172839,11.11111111111111,0)" xlink:href="#aE"/><use transform="matrix(0.06172839506172839,0,0,0.06172839506172839,22.22222222222222,0)" xlink:href="#aF"/><use transform="matrix(0.06172839506172839,0,0,0.06172839506172839,33.33333333333333,0)" xlink:href="#aa"/><use transform="matrix(0.06172839506172839,0,0,0.06172839506172839,43.148148148148145,0)" xlink:href="#al"/><use transform="matrix(0.06172839506172839,0,0,0.06172839506172839,49.32098765432099,0)" xlink:href="#am"/><use transform="matrix(0.06172839506172839,0,0,0.06172839506172839,59.135802469135804,0)" xlink:href="#aA"/><use transform="matrix(0.06172839506172839,0,0,0.06172839506172839,70.24691358024691,0)" xlink:href="#ay"/><use transform="matrix(0.06172839506172839,0,0,0.06172839506172839,80.06172839506172,0)" xlink:href="#aa"/><use transform="matrix(0.06172839506172839,0,0,0.06172839506172839,89.87654320987653,0)" xlink:href="#aC"/><use transform="matrix(0.06172839506172839,0,0,0.06172839506172839,98.5185185185185,0)" xlink:href="#am"/><use transform="matrix(0.06172839506172839,0,0,0.06172839506172839,108.33333333333331,0)" xlink:href="#aA"/><use transform="matrix(0.06172839506172839,0,0,0.06172839506172839,119.44444444444443,0)" xlink:href="#al"/><use transform="matrix(0.06172839506172839,0,0,0.06172839506172839,125.61728395061726,0)" xlink:href="#aa"/><use transform="matrix(0.06172839506172839,0,0,0.06172839506172839,135.43209876543207,0)" xlink:href="#aL"/><use transform="matrix(0.06172839506172839,0,0,0.06172839506172839,146.5432098765432,0)" xlink:href="#aB"/><use transform="matrix(0.06172839506172839,0,0,0.06172839506172839,152.71604938271602,0)" xlink:href="#am"/></g><g id="t"><use transform="matrix(0.06172839506172839,0,0,0.06172839506172839,0,0)" xlink:href="#aD"/><use transform="matrix(0.06172839506172839,0,0,0.06172839506172839,11.11111111111111,0)" xlink:href="#aE"/><use transform="matrix(0.06172839506172839,0,0,0.06172839506172839,22.22222222222222,0)" xlink:href="#aF"/><use transform="matrix(0.06172839506172839,0,0,0.06172839506172839,33.33333333333333,0)" xlink:href="#aa"/><use transform="matrix(0.06172839506172839,0,0,0.06172839506172839,43.148148148148145,0)" xlink:href="#al"/><use transform="matrix(0.06172839506172839,0,0,0.06172839506172839,49.32098765432099,0)" xlink:href="#am"/><use transform="matrix(0.06172839506172839,0,0,0.06172839506172839,59.135802469135804,0)" xlink:href="#aA"/><use transform="matrix(0.06172839506172839,0,0,0.06172839506172839,70.24691358024691,0)" xlink:href="#aE"/><use transform="matrix(0.06172839506172839,0,0,0.06172839506172839,81.35802469135803,0)" xlink:href="#aH"/><use transform="matrix(0.06172839506172839,0,0,0.06172839506172839,88.70370370370371,0)" xlink:href="#am"/><use transform="matrix(0.06172839506172839,0,0,0.06172839506172839,98.51851851851852,0)" xlink:href="#aF"/><use transform="matrix(0.06172839506172839,0,0,0.06172839506172839,109.62962962962963,0)" xlink:href="#aI"/><use transform="matrix(0.06172839506172839,0,0,0.06172839506172839,115.80246913580247,0)" xlink:href="#ay"/><use transform="matrix(0.06172839506172839,0,0,0.06172839506172839,125.61728395061728,0)" xlink:href="#al"/><use transform="matrix(0.06172839506172839,0,0,0.06172839506172839,131.79012345679013,0)" xlink:href="#aI"/><use transform="matrix(0.06172839506172839,0,0,0.06172839506172839,137.96296296296296,0)" xlink:href="#ac"/><use transform="matrix(0.06172839506172839,0,0,0.06172839506172839,149.07407407407408,0)" xlink:href="#ad"/><use transform="matrix(0.06172839506172839,0,0,0.06172839506172839,160.1851851851852,0)" xlink:href="#aA"/><use transform="matrix(0.06172839506172839,0,0,0.06172839506172839,171.2962962962963,0)" xlink:href="#al"/><use transform="matrix(0.06172839506172839,0,0,0.06172839506172839,177.46913580246914,0)" xlink:href="#aa"/><use transform="matrix(0.06172839506172839,0,0,0.06172839506172839,187.28395061728395,0)" xlink:href="#aL"/><use transform="matrix(0.06172839506172839,0,0,0.06172839506172839,198.39506172839506,0)" xlink:href="#aB"/><use transform="matrix(0.06172839506172839,0,0,0.06172839506172839,204.5679012345679,0)" xlink:href="#am"/></g><path fill="#fff" d="M75-13V0H4v-13l17-5 84-220h51l83 220 18 5V0H152v-13l28-5-23-61H67L45-18zm38-189L74-98h76" id="aZ"/><path fill="#fff" d="M126-114c3-31-27-37-49-25v123l15 4V0H10v-12l16-4v-133l-16-5v-11h64l2 14c24-16 81-33 96 3 30-24 105-39 105 27v105l17 4V0h-82v-12l14-4v-98c4-33-27-37-51-24 5 35 0 82 2 122l17 4V0h-83v-12l15-4v-98" id="ba"/><path fill="#fff" d="M15-82c-4-69 47-101 113-83l-1-69-17-4v-12h68v234l18 4V0h-63l-4-9C77 23 5-9 15-82zm112-66c-43-16-64 17-61 65 2 33 3 67 32 67 12 0 22-3 29-8v-124" id="bb"/><g id="u"><use transform="matrix(0.0864197530864197,0,0,0.0864197530864197,0,0)" xlink:href="#aZ"/><use transform="matrix(0.0864197530864197,0,0,0.0864197530864197,22.382716049382704,0)" xlink:href="#aN"/><use transform="matrix(0.0864197530864197,0,0,0.0864197530864197,39.66666666666664,0)" xlink:href="#aV"/><use transform="matrix(0.0864197530864197,0,0,0.0864197530864197,49.95061728395059,0)" xlink:href="#aX"/><use transform="matrix(0.0864197530864197,0,0,0.0864197530864197,65.50617283950614,0)" xlink:href="#ba"/><use transform="matrix(0.0864197530864197,0,0,0.0864197530864197,91.34567901234563,0)" xlink:href="#aU"/><use transform="matrix(0.0864197530864197,0,0,0.0864197530864197,106.90123456790117,0)" xlink:href="#aV"/><use transform="matrix(0.0864197530864197,0,0,0.0864197530864197,117.18518518518512,0)" xlink:href="#aO"/><use transform="matrix(0.0864197530864197,0,0,0.0864197530864197,130.92592592592587,0)" xlink:href="#bb"/></g><path fill="#fff" d="M91-218c7 77-29 197 56 197 84 0 47-121 55-197l-31-5v-13h80v13l-27 5v137c-1 56-32 84-91 84-59-1-96-26-97-85v-136l-27-5v-13h112v13" id="bc"/><path fill="#fff" d="M186-86c2 69-46 103-114 85l1 62 25 4v12H5V65l18-4v-210l-18-5v-11h67v8c12-8 26-13 46-13 49 2 67 30 68 84zm-83 71c28 0 31-33 31-69 0-34-2-66-30-66-12 0-23 3-31 7v124c9 2 20 4 30 4" id="bd"/><path fill="#fff" d="M77-16l18 4V0H8v-12l18-4v-133l-17-5v-11h68v149zM51-196c-16 0-27-10-27-27s10-27 27-27 27 11 27 27c0 17-10 27-27 27" id="be"/><path fill="#fff" d="M127-114c3-31-26-38-50-25v123l15 4V0H10v-12l16-4v-133l-16-5v-11h64l2 14c31-23 102-32 102 30v105l17 4V0h-82v-12l14-4v-98" id="bf"/><g id="v"><use transform="matrix(0.0864197530864197,0,0,0.0864197530864197,0,0)" xlink:href="#bc"/><use transform="matrix(0.0864197530864197,0,0,0.0864197530864197,22.382716049382704,0)" xlink:href="#bd"/><use transform="matrix(0.0864197530864197,0,0,0.0864197530864197,39.66666666666664,0)" xlink:href="#bb"/><use transform="matrix(0.0864197530864197,0,0,0.0864197530864197,56.950617283950585,0)" xlink:href="#aU"/><use transform="matrix(0.0864197530864197,0,0,0.0864197530864197,72.50617283950614,0)" xlink:href="#aV"/><use transform="matrix(0.0864197530864197,0,0,0.0864197530864197,82.79012345679008,0)" xlink:href="#be"/><use transform="matrix(0.0864197530864197,0,0,0.0864197530864197,91.43209876543204,0)" xlink:href="#bf"/><use transform="matrix(0.0864197530864197,0,0,0.0864197530864197,108.716049382716,0)" xlink:href="#aY"/></g><g id="w"><use transform="matrix(0.0864197530864197,0,0,0.0864197530864197,0,0)" xlink:href="#aX"/><use transform="matrix(0.0864197530864197,0,0,0.0864197530864197,15.555555555555546,0)" xlink:href="#bf"/></g><path fill="#fff" d="M72-18c49 15 64-22 62-69-1-34-4-62-34-63-10-1-23 2-28 6v126zm33 22C77 4 48-3 21-8v-226l-16-4v-12h67c-1 31 2 66-2 94 11-8 28-14 47-14 51 0 70 31 69 83-1 55-26 91-81 91" id="bg"/><path fill="#fff" d="M102-142c-14-17-68-15-54 18 24 26 83 17 83 72 0 62-72 62-120 47v-45h12c4 23 16 37 43 37 35 0 39-37 9-46-31-9-65-19-64-61 0-52 59-55 108-45v43h-11" id="bh"/><g id="x"><use transform="matrix(0.0864197530864197,0,0,0.0864197530864197,0,0)" xlink:href="#aT"/><use transform="matrix(0.0864197530864197,0,0,0.0864197530864197,22.382716049382704,0)" xlink:href="#aU"/><use transform="matrix(0.0864197530864197,0,0,0.0864197530864197,37.93827160493825,0)" xlink:href="#aV"/><use transform="matrix(0.0864197530864197,0,0,0.0864197530864197,48.22222222222219,0)" xlink:href="#aU"/><use transform="matrix(0.0864197530864197,0,0,0.0864197530864197,63.77777777777774,0)" xlink:href="#bg"/><use transform="matrix(0.0864197530864197,0,0,0.0864197530864197,81.06172839506169,0)" xlink:href="#aU"/><use transform="matrix(0.0864197530864197,0,0,0.0864197530864197,96.61728395061724,0)" xlink:href="#bh"/><use transform="matrix(0.0864197530864197,0,0,0.0864197530864197,108.716049382716,0)" xlink:href="#aO"/></g><path fill="#fff" d="M92-101v83l39 5V0H8v-13l28-5v-200l-30-5v-13h197v64h-17l-5-42c-27-3-59-2-89-2v96h57l6-30h15v80h-15l-6-31H92" id="bi"/><g id="y"><use transform="matrix(0.12345679012345674,0,0,0.12345679012345674,0,0)" xlink:href="#bi"/><use transform="matrix(0.12345679012345674,0,0,0.12345679012345674,27.037037037037027,0)" xlink:href="#aU"/><use transform="matrix(0.12345679012345674,0,0,0.12345679012345674,49.25925925925924,0)" xlink:href="#aU"/><use transform="matrix(0.12345679012345674,0,0,0.12345679012345674,71.48148148148145,0)" xlink:href="#aW"/></g><path fill="#fff" d="M6-13l30-5v-200l-30-5v-13h201v60h-16l-6-38-93-2v86h61l6-26h16v73h-16l-6-27H92v91l104-3 10-44h16l-4 66H6v-13" id="bj"/><path fill="#fff" d="M168-150L102 4H81L12-149c-7-2-15-4-12-16h85v11l-20 5 42 94 38-94-19-5v-11h54v11" id="bk"/><path fill="#fff" d="M13-69v-31h94v31H13" id="bl"/><g id="z"><use transform="matrix(0.11111111111111108,0,0,0.11111111111111108,0,0)" xlink:href="#bj"/><use transform="matrix(0.11111111111111108,0,0,0.11111111111111108,26.666666666666657,0)" xlink:href="#bk"/><use transform="matrix(0.11111111111111108,0,0,0.11111111111111108,46.66666666666665,0)" xlink:href="#aO"/><use transform="matrix(0.11111111111111108,0,0,0.11111111111111108,64.33333333333331,0)" xlink:href="#bf"/><use transform="matrix(0.11111111111111108,0,0,0.11111111111111108,86.55555555555553,0)" xlink:href="#aV"/><use transform="matrix(0.11111111111111108,0,0,0.11111111111111108,99.77777777777774,0)" xlink:href="#bl"/><use transform="matrix(0.11111111111111108,0,0,0.11111111111111108,112.99999999999996,0)" xlink:href="#bb"/><use transform="matrix(0.11111111111111108,0,0,0.11111111111111108,135.22222222222217,0)" xlink:href="#aP"/><use transform="matrix(0.11111111111111108,0,0,0.11111111111111108,152.88888888888883,0)" xlink:href="#be"/><use transform="matrix(0.11111111111111108,0,0,0.11111111111111108,163.99999999999994,0)" xlink:href="#bk"/><use transform="matrix(0.11111111111111108,0,0,0.11111111111111108,183.99999999999994,0)" xlink:href="#aO"/><use transform="matrix(0.11111111111111108,0,0,0.11111111111111108,201.6666666666666,0)" xlink:href="#bf"/></g><path fill="#fff" d="M109-18c15 0 31-2 42-6v14c-11 9-31 13-51 13-59 0-86-28-88-86-3-75 66-101 135-80v48h-13c-3-20-7-40-34-37-51 7-55 138 9 134" id="bm"/><path fill="#fff" d="M77-79l64-71-17-4v-11h63v11c-32 3-40 30-59 46l57 92 15 4V0h-80c-2-11 3-15 10-16L97-74 77-60v44l16 4V0H10v-12l16-4v-218l-17-4v-12h68v171" id="bn"/><g id="A"><use transform="matrix(0.11111111111111108,0,0,0.11111111111111108,0,0)" xlink:href="#bg"/><use transform="matrix(0.11111111111111108,0,0,0.11111111111111108,22.222222222222214,0)" xlink:href="#aU"/><use transform="matrix(0.11111111111111108,0,0,0.11111111111111108,42.22222222222221,0)" xlink:href="#bm"/><use transform="matrix(0.11111111111111108,0,0,0.11111111111111108,59.88888888888887,0)" xlink:href="#bn"/><use transform="matrix(0.11111111111111108,0,0,0.11111111111111108,82.11111111111109,0)" xlink:href="#aO"/><use transform="matrix(0.11111111111111108,0,0,0.11111111111111108,99.77777777777774,0)" xlink:href="#bf"/><use transform="matrix(0.11111111111111108,0,0,0.11111111111111108,121.99999999999996,0)" xlink:href="#bb"/></g><path fill="#fff" d="M222-170c0 37-18 56-47 65l63 87 25 5V0h-76l-66-100H92v82l30 5V0H8v-13l28-5v-200l-30-5v-13c89 5 214-24 216 66zM92-119c45 2 75-3 75-50s-30-49-75-47v97" id="bo"/><g id="B"><use transform="matrix(0.08024691358024685,0,0,0.08024691358024685,0,0)" xlink:href="#bo"/><use transform="matrix(0.08024691358024685,0,0,0.08024691358024685,20.783950617283935,0)" xlink:href="#aO"/><use transform="matrix(0.08024691358024685,0,0,0.08024691358024685,33.54320987654319,0)" xlink:href="#aV"/><use transform="matrix(0.08024691358024685,0,0,0.08024691358024685,43.09259259259257,0)" xlink:href="#aP"/><use transform="matrix(0.08024691358024685,0,0,0.08024691358024685,55.85185185185182,0)" xlink:href="#be"/><use transform="matrix(0.08024691358024685,0,0,0.08024691358024685,63.8765432098765,0)" xlink:href="#aO"/><use transform="matrix(0.08024691358024685,0,0,0.08024691358024685,76.63580246913575,0)" xlink:href="#bk"/><use transform="matrix(0.08024691358024685,0,0,0.08024691358024685,91.08024691358018,0)" xlink:href="#aO"/></g><path fill="#fff" d="M107-230c-31-13-29 30-29 65h34v18H78v131l27 4V0H10v-12l18-4v-131H3v-12l25-7c-8-66 31-98 95-84v39h-11" id="bp"/><g id="C"><use transform="matrix(0.08024691358024685,0,0,0.08024691358024685,0,0)" xlink:href="#bp"/><use transform="matrix(0.08024691358024685,0,0,0.08024691358024685,9.549382716049376,0)" xlink:href="#aP"/><use transform="matrix(0.08024691358024685,0,0,0.08024691358024685,21.746913580246897,0)" xlink:href="#aX"/><use transform="matrix(0.08024691358024685,0,0,0.08024691358024685,36.19135802469133,0)" xlink:href="#ba"/></g><g id="D"><use transform="matrix(0.0802469135802469,0,0,0.0802469135802469,0,0)" xlink:href="#aN"/><use transform="matrix(0.0802469135802469,0,0,0.0802469135802469,16.04938271604938,0)" xlink:href="#bd"/><use transform="matrix(0.0802469135802469,0,0,0.0802469135802469,32.09876543209876,0)" xlink:href="#bb"/><use transform="matrix(0.0802469135802469,0,0,0.0802469135802469,48.14814814814814,0)" xlink:href="#aU"/><use transform="matrix(0.0802469135802469,0,0,0.0802469135802469,62.59259259259258,0)" xlink:href="#aV"/><use transform="matrix(0.0802469135802469,0,0,0.0802469135802469,72.14197530864196,0)" xlink:href="#aO"/></g><linearGradient gradientUnits="userSpaceOnUse" id="E" x1="-6000" y1="3270" x2="-5880" y2="3150"><stop offset="0%" stop-color="#b0084d"/><stop offset="100%" stop-color="#ff4f8b"/></linearGradient><path fill="#fff" d="M210-169c-67 3-38 105-44 169h-31v-121c0-29-5-50-35-48C34-165 62-65 56 0H25l-1-190h30c1 10-1 24 2 32 10-44 99-50 107 0 11-21 27-35 58-36 85-2 47 119 55 194h-31v-121c0-29-5-49-35-48" id="bq"/><path fill="#fff" d="M141-36C126-15 110 5 73 4 37 3 15-17 15-53c-1-64 63-63 125-63 3-35-9-54-41-54-24 1-41 7-42 31l-33-3c5-37 33-52 76-52 45 0 72 20 72 64v82c-1 20 7 32 28 27v20c-31 9-61-2-59-35zM48-53c0 20 12 33 32 33 41-3 63-29 60-74-43 2-92-5-92 41" id="br"/><path fill="#fff" d="M9 0v-24l116-142H16v-24h144v24L44-24h123V0H9" id="bs"/><path fill="#fff" d="M117-194c89-4 53 116 60 194h-32v-121c0-31-8-49-39-48C34-167 62-67 57 0H25l-1-190h30c1 10-1 24 2 32 11-22 29-35 61-36" id="bt"/><g id="F"><use transform="matrix(0.05,0,0,0.05,0,0)" xlink:href="#ap"/><use transform="matrix(0.05,0,0,0.05,12,0)" xlink:href="#bq"/><use transform="matrix(0.05,0,0,0.05,26.950000000000003,0)" xlink:href="#br"/><use transform="matrix(0.05,0,0,0.05,36.95,0)" xlink:href="#bs"/><use transform="matrix(0.05,0,0,0.05,45.95,0)" xlink:href="#au"/><use transform="matrix(0.05,0,0,0.05,55.95,0)" xlink:href="#bt"/></g><path fill="#fff" d="M59-47c-2 24 18 29 38 22v24C64 9 27 4 27-40v-127H5v-23h24l9-43h21v43h35v23H59v120" id="bu"/><path fill="#fff" d="M96-169c-40 0-48 33-48 73s9 75 48 75c24 0 41-14 43-38l32 2c-6 37-31 61-74 61-59 0-76-41-82-99-10-93 101-131 147-64 4 7 5 14 7 22l-32 3c-4-21-16-35-41-35" id="bv"/><path fill="#fff" d="M106-169C34-169 62-67 57 0H25v-261h32l-1 103c12-21 28-36 61-36 89 0 53 116 60 194h-32v-121c2-32-8-49-39-48" id="bw"/><g id="G"><use transform="matrix(0.05,0,0,0.05,0,0)" xlink:href="#as"/><use transform="matrix(0.05,0,0,0.05,12.950000000000001,0)" xlink:href="#at"/><use transform="matrix(0.05,0,0,0.05,16.900000000000002,0)" xlink:href="#au"/><use transform="matrix(0.05,0,0,0.05,26.900000000000002,0)" xlink:href="#av"/><use transform="matrix(0.05,0,0,0.05,36.900000000000006,0)" xlink:href="#aw"/><use transform="matrix(0.05,0,0,0.05,46.900000000000006,0)" xlink:href="#aq"/><use transform="matrix(0.05,0,0,0.05,63.2,0)" xlink:href="#br"/><use transform="matrix(0.05,0,0,0.05,73.2,0)" xlink:href="#bu"/><use transform="matrix(0.05,0,0,0.05,78.2,0)" xlink:href="#bv"/><use transform="matrix(0.05,0,0,0.05,87.2,0)" xlink:href="#bw"/></g><g id="H"><use transform="matrix(0.08024691358024691,0,0,0.08024691358024691,0,0)" xlink:href="#aV"/><use transform="matrix(0.08024691358024691,0,0,0.08024691358024691,9.549382716049383,0)" xlink:href="#aP"/><use transform="matrix(0.08024691358024691,0,0,0.08024691358024691,22.308641975308642,0)" xlink:href="#be"/><use transform="matrix(0.08024691358024691,0,0,0.08024691358024691,30.33333333333333,0)" xlink:href="#aY"/><use transform="matrix(0.08024691358024691,0,0,0.08024691358024691,44.77777777777778,0)" xlink:href="#aY"/><use transform="matrix(0.08024691358024691,0,0,0.08024691358024691,59.22222222222221,0)" xlink:href="#aO"/><use transform="matrix(0.08024691358024691,0,0,0.08024691358024691,71.98148148148147,0)" xlink:href="#aP"/></g><path fill="#fff" d="M256-236v13l-22 5L143 5h-24L23-218l-19-5v-13h103v13l-25 5 66 154 62-154-23-5v-13h69" id="bx"/><g id="I"><use transform="matrix(0.08024691358024691,0,0,0.08024691358024691,0,0)" xlink:href="#bx"/><use transform="matrix(0.08024691358024691,0,0,0.08024691358024691,19.74074074074074,0)" xlink:href="#be"/><use transform="matrix(0.08024691358024691,0,0,0.08024691358024691,27.76543209876543,0)" xlink:href="#aU"/></g><path fill="#fff" d="M319-222L242 5h-10l-61-162L108 5h-9L21-222l-21-4v-10h90v10l-34 4 56 166 63-163h8l61 163 54-166-37-4v-10h78v10" id="by"/><g id="J"><use transform="matrix(0.06172839506172839,0,0,0.06172839506172839,0,0)" xlink:href="#Y"/><use transform="matrix(0.06172839506172839,0,0,0.06172839506172839,14.19753086419753,0)" xlink:href="#by"/><use transform="matrix(0.06172839506172839,0,0,0.06172839506172839,35.123456790123456,0)" xlink:href="#ag"/></g><g id="K"><use transform="matrix(0.06172839506172839,0,0,0.06172839506172839,0,0)" xlink:href="#by"/><use transform="matrix(0.06172839506172839,0,0,0.06172839506172839,18.456790123456788,0)" xlink:href="#Y"/><use transform="matrix(0.06172839506172839,0,0,0.06172839506172839,34.44444444444444,0)" xlink:href="#ax"/></g><g id="L"><use transform="matrix(0.06172839506172839,0,0,0.06172839506172839,0,0)" xlink:href="#aj"/><use transform="matrix(0.06172839506172839,0,0,0.06172839506172839,7.345679012345679,0)" xlink:href="#aF"/><use transform="matrix(0.06172839506172839,0,0,0.06172839506172839,18.45679012345679,0)" xlink:href="#am"/><use transform="matrix(0.06172839506172839,0,0,0.06172839506172839,28.271604938271608,0)" xlink:href="#ad"/><use transform="matrix(0.06172839506172839,0,0,0.06172839506172839,39.38271604938272,0)" xlink:href="#al"/><use transform="matrix(0.06172839506172839,0,0,0.06172839506172839,45.555555555555564,0)" xlink:href="#aI"/><use transform="matrix(0.06172839506172839,0,0,0.06172839506172839,51.728395061728406,0)" xlink:href="#al"/><use transform="matrix(0.06172839506172839,0,0,0.06172839506172839,57.90123456790125,0)" xlink:href="#ao"/></g><g id="M"><use transform="matrix(0.06172839506172839,0,0,0.06172839506172839,0,0)" xlink:href="#aa"/><use transform="matrix(0.06172839506172839,0,0,0.06172839506172839,9.814814814814815,0)" xlink:href="#ad"/><use transform="matrix(0.06172839506172839,0,0,0.06172839506172839,20.925925925925924,0)" xlink:href="#aF"/></g><g id="N"><use transform="matrix(0.06172839506172839,0,0,0.06172839506172839,0,0)" xlink:href="#Y"/><use transform="matrix(0.06172839506172839,0,0,0.06172839506172839,15.987654320987653,0)" xlink:href="#ay"/><use transform="matrix(0.06172839506172839,0,0,0.06172839506172839,25.80246913580247,0)" xlink:href="#ay"/><use transform="matrix(0.06172839506172839,0,0,0.06172839506172839,35.617283950617285,0)" xlink:href="#am"/><use transform="matrix(0.06172839506172839,0,0,0.06172839506172839,45.4320987654321,0)" xlink:href="#aC"/><use transform="matrix(0.06172839506172839,0,0,0.06172839506172839,54.074074074074076,0)" xlink:href="#aC"/></g><path fill="#fff" d="M141-152c28 39 5 97-54 97-9 0-20-2-27-3L49-35c29 22 130-14 124 52-4 45-38 57-88 61C21 83-8 26 45-2 33-6 22-15 21-31l28-31c-19-9-28-26-28-51-2-51 53-65 100-52l38-20 7 8zM85 64c35 0 61-11 61-42 0-35-57-17-89-21-9 8-16 19-17 34 0 25 19 29 45 29zM52-113c1 26 7 46 35 44 28-1 34-16 35-44 0-26-6-43-34-43s-36 17-36 43" id="bz"/><g id="O"><use transform="matrix(0.06172839506172839,0,0,0.06172839506172839,0,0)" xlink:href="#aG"/><use transform="matrix(0.06172839506172839,0,0,0.06172839506172839,19.753086419753085,0)" xlink:href="#aa"/><use transform="matrix(0.06172839506172839,0,0,0.06172839506172839,29.5679012345679,0)" xlink:href="#ad"/><use transform="matrix(0.06172839506172839,0,0,0.06172839506172839,40.67901234567901,0)" xlink:href="#aa"/><use transform="matrix(0.06172839506172839,0,0,0.06172839506172839,50.49382716049383,0)" xlink:href="#bz"/><use transform="matrix(0.06172839506172839,0,0,0.06172839506172839,61.60493827160494,0)" xlink:href="#am"/><use transform="matrix(0.06172839506172839,0,0,0.06172839506172839,71.41975308641975,0)" xlink:href="#Z"/><use transform="matrix(0.06172839506172839,0,0,0.06172839506172839,88.7037037037037,0)" xlink:href="#am"/><use transform="matrix(0.06172839506172839,0,0,0.06172839506172839,98.5185185185185,0)" xlink:href="#ad"/><use transform="matrix(0.06172839506172839,0,0,0.06172839506172839,109.62962962962962,0)" xlink:href="#al"/></g><path fill="#fff" d="M108-235c-52 28-62 95-58 178 3 56 21 97 58 119v15C7 49-17-153 67-223c12-10 25-19 41-27v15" id="bA"/><path fill="#fff" d="M12-250C113-222 137-19 52 49 40 59 28 69 12 77V62C56 37 70-16 70-87c0-70-13-123-58-148v-15" id="bB"/><g id="P"><use transform="matrix(0.06172839506172839,0,0,0.06172839506172839,0,0)" xlink:href="#bA"/><use transform="matrix(0.06172839506172839,0,0,0.06172839506172839,7.345679012345679,0)" xlink:href="#aj"/><use transform="matrix(0.06172839506172839,0,0,0.06172839506172839,14.691358024691358,0)" xlink:href="#Y"/><use transform="matrix(0.06172839506172839,0,0,0.06172839506172839,30.679012345679013,0)" xlink:href="#aG"/><use transform="matrix(0.06172839506172839,0,0,0.06172839506172839,50.4320987654321,0)" xlink:href="#bB"/></g><g id="Q"><use transform="matrix(0.08024691358024691,0,0,0.08024691358024691,0,0)" xlink:href="#bd"/><use transform="matrix(0.08024691358024691,0,0,0.08024691358024691,16.049382716049383,0)" xlink:href="#aP"/><use transform="matrix(0.08024691358024691,0,0,0.08024691358024691,28.24691358024691,0)" xlink:href="#aX"/><use transform="matrix(0.08024691358024691,0,0,0.08024691358024691,42.691358024691354,0)" xlink:href="#aV"/><use transform="matrix(0.08024691358024691,0,0,0.08024691358024691,52.24074074074074,0)" xlink:href="#aO"/><use transform="matrix(0.08024691358024691,0,0,0.08024691358024691,64.99999999999999,0)" xlink:href="#bm"/><use transform="matrix(0.08024691358024691,0,0,0.08024691358024691,77.75925925925924,0)" xlink:href="#aV"/></g><g id="R"><use transform="matrix(0.12345679012345674,0,0,0.12345679012345674,0,0)" xlink:href="#bi"/><use transform="matrix(0.12345679012345674,0,0,0.12345679012345674,27.037037037037027,0)" xlink:href="#aP"/><use transform="matrix(0.12345679012345674,0,0,0.12345679012345674,45.802469135802454,0)" xlink:href="#aX"/><use transform="matrix(0.12345679012345674,0,0,0.12345679012345674,68.02469135802467,0)" xlink:href="#bf"/><use transform="matrix(0.12345679012345674,0,0,0.12345679012345674,92.71604938271602,0)" xlink:href="#aV"/><use transform="matrix(0.12345679012345674,0,0,0.12345679012345674,107.40740740740738,0)" xlink:href="#aO"/><use transform="matrix(0.12345679012345674,0,0,0.12345679012345674,127.03703703703698,0)" xlink:href="#bf"/><use transform="matrix(0.12345679012345674,0,0,0.12345679012345674,151.72839506172835,0)" xlink:href="#bb"/></g></defs></g></svg>