<svg xmlns="http://www.w3.org/2000/svg" xmlns:xlink="http://www.w3.org/1999/xlink" xmlns:lucid="lucid" width="1837" height="1652"><g transform="translate(12056 -2353)" lucid:page-tab-id="wVSJqJP_zoFC"><path d="M-11360 3186a6 6 0 0 1 6-6h728a6 6 0 0 1 6 6v488a6 6 0 0 1-6 6h-728a6 6 0 0 1-6-6z" fill-opacity="0"/><path d="M-11338.83 3180h6.06m12.14 0h6.06m12.14 0h6.06m12.14 0h6.06m12.14 0h6.06m12.14 0h6.06m12.14 0h6.06m12.14 0h6.06m12.14 0h6.06m12.14 0h6.06m12.14 0h6.06m12.14 0h6.06m12.14 0h6.06m12.14 0h6.06m12.14 0h6.06m12.14 0h6.06m12.14 0h6.06m12.14 0h6.06m12.14 0h6.06m12.14 0h6.06m12.14 0h6.06m12.14 0h6.06m12.14 0h6.06m12.14 0h6.06m12.14 0h6.06m12.14 0h6.06m12.14 0h6.06m12.14 0h6.06m12.14 0h6.06m12.14 0h6.06m12.14 0h6.06m12.14 0h6.06m12.14 0h6.06m12.14 0h6.06m12.14 0h6.06m12.14 0h6.06m12.14 0h6.06m12.14 0h6.06m12.14 0h6.06m12.14 0h3.03l.94.07.9.22.88.35.8.5.72.6.6.72.5.8.37.88.23.9.07.95v3m0 12.06v6.03m0 12.04v6.02m0 12.05v6.04m0 12.04v6.03m0 12.06v6.02m0 12.05v6.03m0 12.05v6.03m0 12.05v6.03m0 12.05v6.03m0 12.05v6.02m0 12.05v6.03m0 12.05v6.02m0 12.05v6.03m0 12.05v6.02m0 12.05v6.02m0 12.05v6.03m0 12.05v6.02m0 12.05v6.03m0 12.05v6.02m0 12.05v6.02m0 12.04v6.03m0 12.05v6.02m0 12.05v6.02m0 12.05v6.02m0 12.04v6.02m0 12.05v6.04m0 12.05v3l-.07.94-.22.9-.35.88-.5.8-.6.72-.72.6-.8.5-.88.37-.9.23-.95.07h-3.03m-12.14 0h-6.06m-12.14 0h-6.06m-12.14 0h-6.06m-12.14 0h-6.06m-12.14 0h-6.06m-12.14 0h-6.06m-12.14 0h-6.06m-12.14 0h-6.06m-12.14 0h-6.06m-12.14 0h-6.06m-12.14 0h-6.06m-12.14 0h-6.06m-12.14 0h-6.06m-12.14 0h-6.06m-12.14 0h-6.06m-12.14 0h-6.06m-12.14 0h-6.06m-12.14 0h-6.06m-12.14 0h-6.06m-12.14 0h-6.06m-12.14 0h-6.06m-12.14 0h-6.06m-12.14 0h-6.06m-12.14 0h-6.06m-12.14 0h-6.06m-12.14 0h-6.06m-12.14 0h-6.06m-12.14 0h-6.06m-12.14 0h-6.06m-12.14 0h-6.06m-12.14 0h-6.06m-12.14 0h-6.06m-12.14 0h-6.06m-12.14 0h-6.06m-12.14 0h-6.06m-12.14 0h-6.06m-12.14 0h-6.06m-12.14 0h-6.06m-12.14 0h-6.06m-12.14 0h-3.03l-.94-.07-.9-.22-.88-.35-.8-.5-.72-.6-.6-.72-.5-.8-.37-.88-.23-.9-.07-.95v-3m0-12.06v-6.03m0-12.04v-6.02m0-12.05v-6.04m0-12.04v-6.03m0-12.06v-6.02m0-12.05v-6.03m0-12.05v-6.03m0-12.05v-6.03m0-12.05v-6.03m0-12.05v-6.02m0-12.05v-6.03m0-12.05v-6.02m0-12.05v-6.03m0-12.05v-6.02m0-12.05v-6.02m0-12.05v-6.03m0-12.05v-6.02m0-12.05v-6.03m0-12.05v-6.02m0-12.05v-6.02m0-12.04v-6.03m0-12.05v-6.02m0-12.05v-6.02m0-12.05v-6.02m0-12.04v-6.02m0-12.05v-6.04m0-12.05v-3l.07-.94.22-.9.35-.88.5-.8.6-.72.72-.6.8-.5.88-.37.9-.23.95-.07h3.03" stroke="#1071e5" stroke-width="3" fill="none"/><path d="M-11246.82 3342.94h174.1v174.12h-174.1v-174.12z" stroke="#fff" stroke-opacity="0" stroke-width="2" fill="#3b48cc"/><path d="M-11126.3 3383.56c-.75-9.02-17.58-13.92-33.53-13.92-15.96 0-32.86 4.9-33.6 13.92v69.63c0 9.4 17.37 14.5 33.67 14.5s33.66-5.1 33.66-14.4v-69.74zm-33.53-9.3c17.9 0 28.95 5.77 28.95 9.9 0 4.1-11.04 9.9-28.95 9.9-17.9 0-28.95-5.8-28.95-9.9 0-4.13 10.97-9.9 28.95-9.9zm0 88.83c-17.98 0-28.95-5.8-28.95-9.8v-13.45c6.2 4.6 17.9 6.97 29.08 6.97s22.7-2.36 28.95-6.97v13.34c-.13 4.1-11.17 9.9-29.08 9.9zm.13-20.9c-17.9 0-28.95-5.78-28.95-9.9h-.13v-15.7c6.2 4.72 17.9 6.97 29.08 6.97s22.7-2.25 28.95-6.96v15.7c0 4.12-10.97 9.9-28.95 9.9zm0-23.23c-17.9 0-28.95-5.8-28.95-9.9h-.13v-17.37c6.26 4.5 17.84 6.97 28.95 6.97 11.1 0 22.9-2.36 29.08-6.97v17.36c0 4.12-10.97 9.9-28.95 9.9zM-11191.1 3471.8h4.64v13.92h-4.65v-13.93zM-11133.07 3471.8h4.65v13.92h-4.65v-13.93zM-11172.53 3476.43h4.64v13.93h-4.63v-13.93zM-11151.64 3476.43h4.64v13.93h-4.64v-13.93z" stroke="#fff" stroke-opacity="0" stroke-width="2" fill="#fff"/><use xlink:href="#a" transform="matrix(1,0,0,1,-11276.823529411766,3526.0588235294117) translate(19.43518518518522 30.222222222222214)"/><path d="M-10811.55 3354.7l87.05 14.26v8.43c0 12.5-39 22.6-87.05 22.6-48.04 0-87.04-10.1-87.04-22.6v-9.16z" fill="#8c3123"/><path d="M-10811.5 3415.5c36.32 0 67.45-5.87 80.42-14.1l4.32-7.9 1.73-7.28v9.02l-28.53 134.17c0 8.4-25.95 15.04-57.94 15.04-32 0-57.94-6.64-57.94-15.03l-28.54-134.16v-8.86l6.57 15.34c13.14 8.07 43.92 13.77 79.9 13.77z" fill="#8c3123"/><path d="M-10811.53 3345.7c48.05 0 87.04 10.14 87.04 22.58 0 12.42-38.98 22.47-87.03 22.47-48.05 0-87.04-9.95-87.04-22.47 0-12.53 39-22.57 87.04-22.57z" fill="#e05243"/><path d="M-10811.54 3406.35c44.8 0 81.65-8.65 86.5-20l-28.55 134.17c0 8.36-25.94 15.08-57.94 15.08-32 0-57.95-6.72-57.95-15.08l-28.53-134.16c4.84 11.34 41.7 20 86.5 20z" fill="#e05243"/><path d="M-10832.02 3419.2h37.7v41.35h-37.7v-41.34zM-10843.42 3475.18c10.26 0 18.6 9.13 18.6 20.38 0 11.25-8.34 20.38-18.6 20.38-10.26 0-18.6-9.13-18.6-20.38 0-11.25 8.34-20.38 18.6-20.38zM-10765.28 3515h-37.23l18.6-38 18.62 38z" fill="#fff"/><use xlink:href="#b" transform="matrix(1,0,0,1,-10898.588235294119,3544.4617187500007) translate(6.330246913580282 30.222222222222214)"/><use xlink:href="#c" transform="matrix(1,0,0,1,-10898.588235294119,3544.4617187500007) translate(55.651234567901255 30.222222222222214)"/><path d="M-11181.53 3211.1a6 6 0 0 1 6-6h405.88a6 6 0 0 1 6 6v81.74a6 6 0 0 1-6 6h-405.88a6 6 0 0 1-6-6z" stroke="#000" stroke-opacity="0" stroke-width="3" fill="#fff" fill-opacity="0"/><use xlink:href="#d" transform="matrix(1,0,0,1,-11176.529411764704,3210.0867187500007) translate(98.79938271604942 48.597222222222214)"/><use xlink:href="#e" transform="matrix(1,0,0,1,-11176.529411764704,3210.0867187500007) translate(185.68827160493828 48.597222222222214)"/><path d="M-11919.26 2886a6 6 0 0 1 6-6h228a6 6 0 0 1 6 6v48a6 6 0 0 1-6 6h-228a6 6 0 0 1-6-6z" stroke="#000" stroke-opacity="0" stroke-width="3" fill="#fff" fill-opacity="0"/><use xlink:href="#f" transform="matrix(1,0,0,1,-11914.261574074073,2884.9999995114104) translate(17.77469135802474 33.347222222222214)"/><use xlink:href="#g" transform="matrix(1,0,0,1,-11914.261574074073,2884.9999995114104) translate(139.08333333333331 33.347222222222214)"/><a xlink:href="http://Next.js" target="_blank" transform="matrix(1,0,0,1,-11914.261574074073,2884.9999995114104)"><path class="lucid-link lucid-hotspot lucid-overlay-hotspot" fill-opacity="0" d="M17.77 3.13h111.86v45.33H17.77z"/></a><path d="M-11919.26 3546a6 6 0 0 1 6-6h228a6 6 0 0 1 6 6v48a6 6 0 0 1-6 6h-228a6 6 0 0 1-6-6z" stroke="#000" stroke-opacity="0" stroke-width="3" fill="#fff" fill-opacity="0"/><use xlink:href="#h" transform="matrix(1,0,0,1,-11914.261574074073,3545) translate(43.79938271604941 33.347222222222214)"/><path d="M-11129.26 2866a6 6 0 0 1 6-6h268a6 6 0 0 1 6 6v88.67a6 6 0 0 1-6 6h-268a6 6 0 0 1-6-6z" stroke="#000" stroke-opacity="0" stroke-width="3" fill="#fff" fill-opacity="0"/><use xlink:href="#i" transform="matrix(1,0,0,1,-11124.261574074075,2865) translate(9.966049382716093 52.972222222222214)"/><use xlink:href="#j" transform="matrix(1,0,0,1,-11124.261574074075,2865) translate(117.73765432098766 52.972222222222214)"/><path d="M-11709 2789.96h610.52M-11708.98 2789.96h-1.02" stroke="#fff" stroke-width="2" fill="none"/><path d="M-11083.2 2789.96l-14.28 4.63v-9.28z" stroke="#fff" stroke-width="2" fill="#fff"/><use xlink:href="#k" transform="matrix(1,0,0,1,-11451.749035386636,2759.292238982155) translate(0 17.77777777777777)"/><use xlink:href="#l" transform="matrix(1,0,0,1,-11451.749035386636,2759.292238982155) translate(43.82716049382715 17.77777777777777)"/><path d="M-10989.26 2961.67V3024a6 6 0 0 1-6 6h-158.5a6 6 0 0 0-6 6v288.44" stroke="#fff" stroke-width="2" fill="none"/><path d="M-10988.26 2961.7h-2v-1.03h2z" stroke="#fff" stroke-width=".05" fill="#fff"/><path d="M-11159.76 3339.7l-4.64-14.26h9.27z" stroke="#fff" stroke-width="2" fill="#fff"/><use xlink:href="#m" transform="matrix(1,0,0,1,-11283.690631808278,3084.7316687671328) translate(0 17.777777777777768)"/><use xlink:href="#n" transform="matrix(1,0,0,1,-11283.690631808278,3084.7316687671328) translate(46.234567901234534 17.777777777777768)"/><path d="M-11799.26 2941v119" stroke="#fff" stroke-width="2" fill="none"/><path d="M-11798.26 2941.03h-2V2940h2z" stroke="#fff" stroke-width=".05" fill="#fff"/><path d="M-11799.26 3075.26l-4.64-14.26h9.27z" stroke="#fff" stroke-width="2" fill="#fff"/><path d="M-11719.26 3140c0 33.14-35.82 60-80 60s-80-26.86-80-60 35.82-60 80-60 80 26.86 80 60z" stroke="#5e5e5e" stroke-width="3" fill-opacity="0"/><use xlink:href="#o" transform="matrix(1,0,0,1,-11879.261574074073,3080) translate(26.08000000000001 44.4)"/><use xlink:href="#p" transform="matrix(1,0,0,1,-11879.261574074073,3080) translate(80.03 44.4)"/><use xlink:href="#q" transform="matrix(1,0,0,1,-11879.261574074073,3080) translate(95.98 44.4)"/><use xlink:href="#r" transform="matrix(1,0,0,1,-11879.261574074073,3080) translate(29.65500000000001 66)"/><use xlink:href="#s" transform="matrix(1,0,0,1,-11879.261574074073,3080) translate(65.605 66)"/><use xlink:href="#t" transform="matrix(1,0,0,1,-11879.261574074073,3080) translate(50.55500000000001 87.6)"/><path d="M-11699.26 3140h210.97a6 6 0 0 1 6 6v278a6 6 0 0 0 6 6h210.97" stroke="#fff" stroke-width="2" fill="none"/><path d="M-11714.52 3140l14.26-4.64v9.28zM-11250.06 3430l-14.27 4.64v-9.28z" stroke="#fff" stroke-width="2" fill="#fff"/><use xlink:href="#u" transform="matrix(1,0,0,1,-11642.267853949943,3242.592544363084) translate(0 17.77777777777777)"/><path d="M-11799.26 3202.5v100.1" stroke="#fff" stroke-width="2" fill="none"/><path d="M-11799.28 3201.5h1.02v1.03h-2v-1.06z" stroke="#fff" stroke-width=".05" fill="#fff"/><path d="M-11799.26 3317.87l-4.64-14.27h9.27z" stroke="#fff" stroke-width="2" fill="#fff"/><path d="M-11799.26 3601v233a6 6 0 0 0 6 6h713.26" stroke="#fff" stroke-width="2" fill="none"/><path d="M-11798.26 3601.03h-2V3600h2z" stroke="#fff" stroke-width=".05" fill="#fff"/><path d="M-11064.74 3840l-14.26 4.64v-9.28z" stroke="#fff" stroke-width="2" fill="#fff"/><path d="M-10900 3840c0 33.14-35.82 60-80 60s-80-26.86-80-60 35.82-60 80-60 80 26.86 80 60z" stroke="#5e5e5e" stroke-width="3" fill-opacity="0"/><use xlink:href="#v" transform="matrix(1,0,0,1,-11060,3780) translate(24.61086419753087 51.70555555555555)"/><use xlink:href="#w" transform="matrix(1,0,0,1,-11060,3780) translate(39.573827160493835 78.63888888888889)"/><path d="M-10980 3777.5V3436a6 6 0 0 0-6-6h-68.2" stroke="#fff" stroke-width="2" fill="none"/><path d="M-10979 3778.53l-.98-.03h-1.02v-1.03h2z" stroke="#fff" stroke-width=".05" fill="#fff"/><path d="M-11069.47 3430l14.27-4.64v9.28z" stroke="#fff" stroke-width="2" fill="#fff"/><use xlink:href="#x" transform="matrix(1,0,0,1,-11047.319690526907,3394.6980784177094) translate(0 17.77777777777778)"/><use xlink:href="#y" transform="matrix(1,0,0,1,-11047.319690526907,3394.6980784177094) translate(52.34567901234568 17.77777777777778)"/><path d="M-10980 3777.5v-110.03a6 6 0 0 1 6-6h156.47a6 6 0 0 0 6-6v-92.53" stroke="#fff" stroke-width="2" fill="none"/><path d="M-10979 3778.53l-.98-.03h-1.02v-1.03h2z" stroke="#fff" stroke-width=".05" fill="#fff"/><path d="M-10811.53 3547.68l4.64 14.26h-9.27z" stroke="#fff" stroke-width="2" fill="#fff"/><g><use xlink:href="#z" transform="matrix(1,0,0,1,-10946.741762081598,3630.8037022848453) translate(0 17.77777777777778)"/><use xlink:href="#A" transform="matrix(1,0,0,1,-10946.741762081598,3630.8037022848453) translate(40.123456790123456 17.77777777777778)"/></g><path d="M-11889.52 2790H-12024a6 6 0 0 1-6-6v-258a6 6 0 0 1 6-6h1608a6 6 0 0 1 6 6v923.1a6 6 0 0 1-6 6h-303.25M-11889.55 2790h1.03" stroke="#fff" stroke-width="2" fill="none"/><path d="M-10734.52 3455.1l14.27-4.65v9.27z" stroke="#fff" stroke-width="2" fill="#fff"/><g><use xlink:href="#B" transform="matrix(1,0,0,1,-11304.715474908413,2489.333333333333) translate(0 17.777777777777775)"/><use xlink:href="#C" transform="matrix(1,0,0,1,-11304.715474908413,2489.333333333333) translate(58.456790123456784 17.777777777777775)"/><use xlink:href="#D" transform="matrix(1,0,0,1,-11304.715474908413,2489.333333333333) translate(123.14814814814814 17.777777777777775)"/><use xlink:href="#E" transform="matrix(1,0,0,1,-11304.715474908413,2489.333333333333) translate(147.16049382716048 17.777777777777775)"/></g><path d="M-10900 2788.73c0 50.38-40.32 91.27-90 91.27s-90-40.9-90-91.27c0-50.38 40.32-91.27 90-91.27s90 40.9 90 91.27z" stroke="#000" stroke-opacity="0" stroke-width=".49" fill="#635bff"/><path d="M-10942.66 2789.46c0-6.94-3.24-12.23-9.36-12.23-6.3 0-10.08 5.3-10.08 12.05 0 8.03 4.5 12.23 10.8 12.23 3.24 0 5.58-.72 7.38-1.82v-5.3c-1.8.92-3.96 1.47-6.48 1.47-2.52 0-4.86-.9-5.04-4.02h12.78v-2.37zm-12.96-2.56c0-3.1 1.8-4.38 3.42-4.38 1.62 0 3.42 1.28 3.42 4.38zm-16.74-9.67c-1.98 0-3.6.55-5.04 2l-.36-1.64h-5.94v31.2l6.66-1.45v-7.67c.9.73 2.34 1.83 4.68 1.83 4.68 0 9-3.83 9-12.4 0-7.67-4.32-11.87-9-11.87zm-1.62 18.25c-1.44 0-2.34-.55-3.06-1.1v-10.03c.72-.73 1.62-1.28 3.06-1.28 2.52 0 4.14 2.74 4.14 6.2 0 3.66-1.62 6.2-4.14 6.2zm-18.72-19.9l6.66-1.45v-5.48l-6.66 1.46v5.5zm0 2h6.66v23.38h-6.66zm-7.02 2.02l-.54-2h-5.58v23.36h6.48v-15.88c1.62-2 4.32-1.65 5.04-1.28v-6.2c-.9-.37-3.96-.92-5.4 2zm-13.14-7.85l-6.48 1.46v21.37c0 4.02 2.88 6.94 6.84 6.94 2.16 0 3.6-.36 4.5-.9v-5.48c-.72.36-5.04 1.64-5.04-2.38v-9.5h5.04v-5.65h-5.04zm-17.82 12.6c0-.92.72-1.46 2.16-1.46 2.34.17 4.5.72 6.48 1.8v-6.38c-2.16-.73-4.14-1.1-6.48-1.1-5.4 0-8.82 2.75-8.82 7.5 0 7.3 9.9 6.2 9.9 9.3 0 1.28-1.08 1.64-2.52 1.64-2.16 0-4.86-.9-7.2-2v6.2c2.52 1.1 4.68 1.65 7.2 1.65 5.58 0 9.36-2.73 9.36-7.48-.18-8.03-10.08-6.57-10.08-9.67z" stroke="#000" stroke-opacity="0" stroke-width=".49" fill="#fff"/><path d="M-11793.73 2700.18h3.22l2.5.37 6.06 1.1 5.35 1.1 4.65 1.45 2.32.73 3.4 1.46 3.4 1.45 3.38 1.64 3.4 1.64 3.2 2 3.22 2 3.03 2.2 3.04 2.38 2.85 2.55 2.85 2.56 2.68 2.73 2.5 2.74 2.5 2.92 2.32 3.1 2.14 3.1 2.13 3.3 1.97 3.28 1.78 3.3 1.6 3.45 1.6 3.47 1.26 3.47 1.25 3.64 1.07 3.65.9 3.64.7 3.66.72 3.65.52 4.93.18 8.4-.18 7.3-.53 6.02-.55 2.55-.7 3.65-.73 3.65-1.07 3.66-1.25 3.66-1.25 3.46-1.43 3.47-1.6 3.46-1.8 3.47-1.77 3.3-2.15 3.1-2.14 3.27-2.32 2.92-2.32 3.1-2.14 2.2-3.93 4.2-4.28 3.83-4.3 3.47-3.74 2.74-.7.36-14.1-21.9-35.18-54.4-13.22-20.45-8.38-12.77-.54-.55-.35-.18-.7-.37-3.4-.18-3.4.18-.7.37-.37.18-.53.36-.36.38-.55.73v35.8l-.17 35.77.35.9.36.37.35.55.53.36.72.54h3.03l3.22-.18.53-.18.36-.18.36-.37.35-.37.54-.73v-.55l.17-.37v-.73l.18-25.74.17-26.1v-.54l18.03 27.02 17.86 27.02 14.3 19.9 10.16 13.87 4.3 6.02v.17l-.55.37-1.06.55-2.32 1.26-3.4 1.46-3.38 1.47-3.4 1.26-3.4 1.1-3.56.9-3.92.92-4.1.73-4.65.56h-.35l-3.57.18h-11.6l-1.6-.18-2.87-.36-5.88-.92-5.17-1.27-4.83-1.46-2.32-.73-3.4-1.26-3.38-1.65-3.4-1.47-3.38-1.82-3.22-2-3.2-2-3.05-2.2-3.03-2.37-2.86-2.37-2.85-2.74-2.68-2.56-2.5-2.92-2.5-2.92-2.32-3.1-2.14-3.1-2.16-3.1-1.96-3.3-1.78-3.46-1.6-3.47-1.62-3.48-1.25-3.47-1.25-3.65-1.07-3.47-.88-3.65-.72-3.83-.7-3.65-.55-4.93-.17-8.4.18-7.12.53-6.2.35-1.46.7-3.85.73-3.65 1.07-3.65 1.07-3.47 1.25-3.65 1.43-3.47 1.42-3.47 1.8-3.3 1.77-3.46 2.14-3.28 2.14-3.1 1.07-1.65 2.32-2.9 2.5-2.93 2.5-2.92 2.68-2.74 2.68-2.55 3.03-2.37 3.04-2.37 3.03-2.37 3.2-2 3.23-2 3.4-1.84 3.38-1.65 3.4-1.46 3.38-1.3 3.58-1.27 3.57-1.1 3.57-.72 3.4-.72 3.56-.55 3.57-.55 2.68-.18h.35zm18.57 54.77l-.72.36-.53.38-.37.36-.35.37-.36.55-.18.55v.38l-.18 23.72v23.18l5.53 8.76 5.53 8.58.18-31.94v-26.3l-.17-6v-.56l-.18-.37-.18-.54-.53-.36-.36-.55-.54-.2-.53-.17-3.03-.18z" stroke="#000" stroke-opacity="0" stroke-width="20.83" fill="#fff"/><path d="M-11715.67 3412.5c4.42-13.68 3.08-26.96-4.24-39.28-11-18.67-31.6-27.9-52.98-23.3-5.97-6.72-12.7-10.96-21.18-13.65-26-8.47-53.74 5.58-62.2 31-14.26 2.87-25.24 10.76-32.56 23.27-10.78 18.67-8.47 41 6.16 56.97-4.62 13.68-3.27 26.96 4.05 39.28 10.97 18.67 31.58 27.9 52.95 23.3 9.63 10.76 22.15 16.15 36.6 16.15 21.76 0 40.25-13.28 46.8-33.68 14.25-2.9 25.42-10.78 32.55-23.3 10.78-18.66 8.47-40.8-5.97-56.76zm-73.38 101.22c-8.86 0-16.57-2.7-23.3-8.46l1.15-.58 38.7-22.14c2.13-1.15 3.28-3.08 3.28-5.38v-54.1l16.37 9.44c.2 0 .2.2.4.4v44.64c-.2 20.02-16.38 36-36.6 36.18zm-78.4-33.1c-4.42-7.7-5.96-15.6-4.42-24.25l1.16.77 38.9 22.13c1.92 1.16 4.23 1.16 6.34 0l47.38-27.14v18.67c0 .2 0 .4-.2.58l-39.28 22.33c-17.52 10.02-39.87 4.05-49.88-13.08zm-10.2-83.53c4.43-7.7 10.8-12.9 19.07-15.8v45.43c0 2.3 1.15 4.43 3.27 5.58l47.18 26.76-16.37 9.43h-.57l-39.3-22.33c-17.32-10-23.3-31.95-13.28-49.28zm134.63 30.97l-47.2-27.13 16.38-9.43h.58l39.1 22.33c17.52 10 23.5 32.14 13.48 49.28-4.43 7.7-10.6 12.7-18.88 15.8v-45.63c-.2-2.3-1.35-4.23-3.46-5.2zm16.37-24.25l-1.16-.77-38.72-22.32c-2.12-1.16-4.43-1.16-6.36 0l-47.38 27.14V3389c0-.2 0-.38.2-.38l39.3-22.33c17.32-10.02 39.66-4.05 49.87 13.27 4.44 7.5 5.8 15.4 4.25 24.06zm-102.66 33.1l-16.38-9.42c-.2 0-.2-.2-.38-.4v-44.64c.2-19.82 16.56-36 36.6-36 9.04 0 16.55 2.7 23.3 8.28l-1.16.78-38.7 22.13c-1.94 1.15-3.1 3.08-3.3 5.4zm9.05-19.05l21-11.93 21.17 11.93v24.06l-21 12.13-21.17-12.13z" stroke="#a3a3a3" stroke-width="0" fill="#a3a3a3"/><defs><path fill="#fff" d="M92-112c43 4 61-13 61-54s-18-54-61-50v104zm118-54c0 63-50 78-118 74v74l39 5V0H8v-13l28-5v-200l-30-5v-13c88 3 205-20 204 70" id="F"/><path fill="#fff" d="M90-170c54-1 76 32 76 87 1 56-23 87-77 87-53 0-75-32-75-87s23-86 76-87zM89-14c28-2 26-38 26-69s3-69-26-69c-27 0-24 39-24 69s-3 66 24 69" id="G"/><path fill="#fff" d="M102-142c-14-17-68-15-54 18 24 26 83 17 83 72 0 62-72 62-120 47v-45h12c4 23 16 37 43 37 35 0 39-37 9-46-31-9-65-19-64-61 0-52 59-55 108-45v43h-11" id="H"/><path fill="#fff" d="M78-41c-2 24 21 26 40 20C122 3 98 2 77 4 5 10 32-84 27-147H6v-11l25-7 21-38h26v38h35v18H78v106" id="I"/><path fill="#fff" d="M9 41c2-18 18-26 32-33C29 1 16-9 16-28l29-33c-21-9-31-25-31-51-2-56 61-65 111-53l39-20c13 12-9 24-14 36 35 54-17 114-90 92-17 34 27 28 56 28 36-1 61 12 60 46-2 46-39 62-91 62-38 0-71-6-76-38zm35-3c6 35 97 29 94-9-2-28-50-14-78-17-8 7-15 14-16 26zm20-150c0 22 4 40 23 40 20 0 24-17 24-40 0-24-4-40-24-40-19 0-23 17-23 40" id="J"/><path fill="#fff" d="M132-132c-21 0-37 9-50 16v100l26 4V0H10v-12l21-4v-133l-21-5v-11h69l2 34c17-18 35-41 71-40v61c-17 3-14-14-20-22" id="K"/><path fill="#fff" d="M12-83c0-55 22-85 75-86 52-1 66 33 63 88H64c-1 37 6 64 44 63 14 0 28-4 39-6 3 28-28 25-55 27-57 4-80-31-80-86zm90-17c2-26 0-63-27-48-10 9-11 28-11 48h38" id="L"/><path fill="#fff" d="M185-72C185 13 82 14 19-9v-63h16c2 37 21 58 61 58 46 0 69-51 31-71-42-23-106-23-106-90 0-69 87-70 148-56v56h-16l-7-32c-26-25-110-13-82 35 39 34 121 26 121 100" id="M"/><path fill="#fff" d="M138 4C60 2 18-37 18-118s41-120 122-120c80 0 122 39 122 120 0 59-22 97-65 112 17 20 30 48 67 42v15c-34 14-83 3-102-19zm2-225c-55 0-64 47-64 103S8-14 140-14c56 0 64-48 64-104s-9-103-64-103" id="N"/><path fill="#fff" d="M128-223l-36 5v199l103-3 14-49h16l-7 71H6v-13l30-5v-200l-30-5v-13h122v13" id="O"/><g id="a"><use transform="matrix(0.10493827160493824,0,0,0.10493827160493824,0,0)" xlink:href="#F"/><use transform="matrix(0.10493827160493824,0,0,0.10493827160493824,22.981481481481474,0)" xlink:href="#G"/><use transform="matrix(0.10493827160493824,0,0,0.10493827160493824,41.87037037037035,0)" xlink:href="#H"/><use transform="matrix(0.10493827160493824,0,0,0.10493827160493824,56.561728395061714,0)" xlink:href="#I"/><use transform="matrix(0.10493827160493824,0,0,0.10493827160493824,69.04938271604935,0)" xlink:href="#J"/><use transform="matrix(0.10493827160493824,0,0,0.10493827160493824,87.93827160493824,0)" xlink:href="#K"/><use transform="matrix(0.10493827160493824,0,0,0.10493827160493824,103.88888888888884,0)" xlink:href="#L"/><use transform="matrix(0.10493827160493824,0,0,0.10493827160493824,120.574074074074,0)" xlink:href="#M"/><use transform="matrix(0.10493827160493824,0,0,0.10493827160493824,141.56172839506166,0)" xlink:href="#N"/><use transform="matrix(0.10493827160493824,0,0,0.10493827160493824,170.94444444444437,0)" xlink:href="#O"/></g><path fill="#fff" d="M108-123c37 3 59 22 60 59C169 8 81 11 16-4l-2-57h16c4 25 8 49 41 47 31-1 44-21 45-52 2-37-24-47-61-46v-22c33 1 52-9 50-44 6-38-35-53-61-33l-7 34H21v-54c52-13 140-14 136 51-2 33-19 52-49 57" id="P"/><g id="b"><use transform="matrix(0.10493827160493824,0,0,0.10493827160493824,0,0)" xlink:href="#M"/><use transform="matrix(0.10493827160493824,0,0,0.10493827160493824,20.987654320987648,0)" xlink:href="#P"/></g><path fill="#fff" d="M92-134c39 3 62-4 62-44 0-37-25-40-62-38v82zm0 115c49 5 80-2 80-50 0-44-34-49-80-46v96zm138-50C230 26 101-4 6 0v-13l30-5v-200l-30-5v-13c79 7 206-26 206 54 0 33-22 49-49 56 39 3 67 18 67 57" id="Q"/><path fill="#fff" d="M73-51c-3 31 27 38 51 25v-123l-16-5v-11h66v149l17 4V0h-65l-2-14C94 9 22 18 22-44v-105l-17-5v-11h68v114" id="R"/><path fill="#fff" d="M109-18c15 0 31-2 42-6v14c-11 9-31 13-51 13-59 0-86-28-88-86-3-75 66-101 135-80v48h-13c-3-20-7-40-34-37-51 7-55 138 9 134" id="S"/><path fill="#fff" d="M77-79l64-71-17-4v-11h63v11c-32 3-40 30-59 46l57 92 15 4V0h-80c-2-11 3-15 10-16L97-74 77-60v44l16 4V0H10v-12l16-4v-218l-17-4v-12h68v171" id="T"/><g id="c"><use transform="matrix(0.10493827160493824,0,0,0.10493827160493824,0,0)" xlink:href="#Q"/><use transform="matrix(0.10493827160493824,0,0,0.10493827160493824,25.185185185185176,0)" xlink:href="#R"/><use transform="matrix(0.10493827160493824,0,0,0.10493827160493824,46.17283950617282,0)" xlink:href="#S"/><use transform="matrix(0.10493827160493824,0,0,0.10493827160493824,62.85802469135799,0)" xlink:href="#T"/><use transform="matrix(0.10493827160493824,0,0,0.10493827160493824,83.84567901234564,0)" xlink:href="#L"/><use transform="matrix(0.10493827160493824,0,0,0.10493827160493824,100.53086419753082,0)" xlink:href="#I"/></g><path fill="#fff" d="M92-20c74 11 92-29 92-98 0-66-23-103-92-98v196zm150-99C242 9 136 6 6 0v-13l31-5v-200l-31-5v-13h112c81 0 124 34 124 117" id="U"/><path fill="#fff" d="M31-163c51-5 127-20 127 40v107l17 4V0h-61l-4-13C82 13 12 12 12-46c0-51 46-52 95-53 9-45-22-69-57-44l-7 20H31v-40zM62-47c0 30 26 34 45 23v-59c-28 0-45 6-45 36" id="V"/><g id="d"><use transform="matrix(0.10493827160493824,0,0,0.10493827160493824,0,0)" xlink:href="#U"/><use transform="matrix(0.10493827160493824,0,0,0.10493827160493824,27.179012345679002,0)" xlink:href="#V"/><use transform="matrix(0.10493827160493824,0,0,0.10493827160493824,46.067901234567884,0)" xlink:href="#I"/><use transform="matrix(0.10493827160493824,0,0,0.10493827160493824,58.555555555555536,0)" xlink:href="#V"/></g><g id="e"><use transform="matrix(0.10493827160493824,0,0,0.10493827160493824,0,0)" xlink:href="#M"/><use transform="matrix(0.10493827160493824,0,0,0.10493827160493824,20.987654320987648,0)" xlink:href="#I"/><use transform="matrix(0.10493827160493824,0,0,0.10493827160493824,33.475308641975296,0)" xlink:href="#G"/><use transform="matrix(0.10493827160493824,0,0,0.10493827160493824,52.364197530864175,0)" xlink:href="#K"/><use transform="matrix(0.10493827160493824,0,0,0.10493827160493824,69.04938271604935,0)" xlink:href="#V"/><use transform="matrix(0.10493827160493824,0,0,0.10493827160493824,87.93827160493824,0)" xlink:href="#J"/><use transform="matrix(0.10493827160493824,0,0,0.10493827160493824,106.82716049382712,0)" xlink:href="#L"/></g><path fill="#fff" d="M203-218l-32-5v-13h84v13l-30 5V0h-21L59-189v171l32 5V0H7v-13l30-5v-200l-30-5v-13h81L203-85v-133" id="W"/><path fill="#fff" d="M5-154v-11h89v11l-19 5 24 37 32-37-16-5v-11h56v11l-15 4-46 54 52 81 16 4V0H90v-11l18-4-29-45-38 45 17 4V0H1v-11l15-3 53-62-48-73" id="X"/><path fill="#fff" d="M74-24C74-7 62 5 45 5S16-7 16-24s12-29 29-29 29 12 29 29" id="Y"/><path fill="#fff" d="M70-250c17 0 27 11 27 27 0 17-10 27-27 27-16 0-27-10-27-27s10-27 27-27zM16 54c22 12 30-19 29-42v-160l-29-6v-11h80V7c2 56-46 80-99 66V34c16-3 14 12 19 20" id="Z"/><g id="f"><use transform="matrix(0.10493827160493824,0,0,0.10493827160493824,0,0)" xlink:href="#W"/><use transform="matrix(0.10493827160493824,0,0,0.10493827160493824,27.179012345679002,0)" xlink:href="#L"/><use transform="matrix(0.10493827160493824,0,0,0.10493827160493824,43.86419753086418,0)" xlink:href="#X"/><use transform="matrix(0.10493827160493824,0,0,0.10493827160493824,62.75308641975307,0)" xlink:href="#I"/><use transform="matrix(0.10493827160493824,0,0,0.10493827160493824,75.2407407407407,0)" xlink:href="#Y"/><use transform="matrix(0.10493827160493824,0,0,0.10493827160493824,84.68518518518515,0)" xlink:href="#Z"/><use transform="matrix(0.10493827160493824,0,0,0.10493827160493824,97.17283950617279,0)" xlink:href="#H"/><path fill="#8080ff" d="M-1.9 2.32h115.65v3.6H-1.9z"/></g><path fill="#fff" d="M75-13V0H4v-13l17-5 84-220h51l83 220 18 5V0H152v-13l28-5-23-61H67L45-18zm38-189L74-98h76" id="aa"/><g id="g"><use transform="matrix(0.10493827160493824,0,0,0.10493827160493824,0,0)" xlink:href="#aa"/><use transform="matrix(0.10493827160493824,0,0,0.10493827160493824,27.179012345679002,0)" xlink:href="#F"/><use transform="matrix(0.10493827160493824,0,0,0.10493827160493824,50.16049382716048,0)" xlink:href="#F"/></g><path fill="#fff" d="M13-69v-31h94v31H13" id="ab"/><path fill="#fff" d="M6-13l30-5v-200l-30-5v-13h201v60h-16l-6-38-93-2v86h61l6-26h16v73h-16l-6-27H92v91l104-3 10-44h16l-4 66H6v-13" id="ac"/><g id="h"><use transform="matrix(0.10493827160493824,0,0,0.10493827160493824,0,0)" xlink:href="#U"/><use transform="matrix(0.10493827160493824,0,0,0.10493827160493824,27.179012345679002,0)" xlink:href="#aa"/><use transform="matrix(0.10493827160493824,0,0,0.10493827160493824,54.358024691358004,0)" xlink:href="#O"/><use transform="matrix(0.10493827160493824,0,0,0.10493827160493824,79.54320987654319,0)" xlink:href="#O"/><use transform="matrix(0.10493827160493824,0,0,0.10493827160493824,104.72839506172836,0)" xlink:href="#ab"/><use transform="matrix(0.10493827160493824,0,0,0.10493827160493824,117.21604938271601,0)" xlink:href="#ac"/></g><path fill="#fff" d="M77-16l18 4V0H8v-12l18-4v-133l-17-5v-11h68v149zM51-196c-16 0-27-10-27-27s10-27 27-27 27 11 27 27c0 17-10 27-27 27" id="ad"/><path fill="#fff" d="M186-86c2 69-46 103-114 85l1 62 25 4v12H5V65l18-4v-210l-18-5v-11h67v8c12-8 26-13 46-13 49 2 67 30 68 84zm-83 71c28 0 31-33 31-69 0-34-2-66-30-66-12 0-23 3-31 7v124c9 2 20 4 30 4" id="ae"/><g id="i"><use transform="matrix(0.10493827160493824,0,0,0.10493827160493824,0,0)" xlink:href="#M"/><use transform="matrix(0.10493827160493824,0,0,0.10493827160493824,20.987654320987648,0)" xlink:href="#I"/><use transform="matrix(0.10493827160493824,0,0,0.10493827160493824,33.475308641975296,0)" xlink:href="#K"/><use transform="matrix(0.10493827160493824,0,0,0.10493827160493824,50.16049382716048,0)" xlink:href="#ad"/><use transform="matrix(0.10493827160493824,0,0,0.10493827160493824,60.6543209876543,0)" xlink:href="#ae"/><use transform="matrix(0.10493827160493824,0,0,0.10493827160493824,81.64197530864195,0)" xlink:href="#L"/></g><path fill="#fff" d="M81 5L15-149c-7-2-13-5-11-16h84v11l-20 5 39 91 35-91-19-5v-11h53c2 11-4 13-11 15C134-81 111-5 75 58 65 77 34 83 8 74V32h11c0 24 29 35 43 12 7-11 13-25 19-39" id="af"/><path fill="#fff" d="M126-114c3-31-27-37-49-25v123l15 4V0H10v-12l16-4v-133l-16-5v-11h64l2 14c24-16 81-33 96 3 30-24 105-39 105 27v105l17 4V0h-82v-12l14-4v-98c4-33-27-37-51-24 5 35 0 82 2 122l17 4V0h-83v-12l15-4v-98" id="ag"/><path fill="#fff" d="M127-114c3-31-26-38-50-25v123l15 4V0H10v-12l16-4v-133l-16-5v-11h64l2 14c31-23 102-32 102 30v105l17 4V0h-82v-12l14-4v-98" id="ah"/><g id="j"><use transform="matrix(0.10493827160493824,0,0,0.10493827160493824,0,0)" xlink:href="#F"/><use transform="matrix(0.10493827160493824,0,0,0.10493827160493824,22.981481481481474,0)" xlink:href="#V"/><use transform="matrix(0.10493827160493824,0,0,0.10493827160493824,41.87037037037035,0)" xlink:href="#af"/><use transform="matrix(0.10493827160493824,0,0,0.10493827160493824,60.75925925925924,0)" xlink:href="#ag"/><use transform="matrix(0.10493827160493824,0,0,0.10493827160493824,92.13580246913577,0)" xlink:href="#L"/><use transform="matrix(0.10493827160493824,0,0,0.10493827160493824,108.82098765432096,0)" xlink:href="#ah"/><use transform="matrix(0.10493827160493824,0,0,0.10493827160493824,129.8086419753086,0)" xlink:href="#I"/></g><g id="k"><use transform="matrix(0.06172839506172837,0,0,0.06172839506172837,0,0)" xlink:href="#Q"/><use transform="matrix(0.06172839506172837,0,0,0.06172839506172837,14.81481481481481,0)" xlink:href="#R"/><use transform="matrix(0.06172839506172837,0,0,0.06172839506172837,27.160493827160483,0)" xlink:href="#af"/></g><path fill="#fff" d="M76-116c0 86 71 126 135 84l6-39h16l-1 60C138 21 18 1 18-115c0-117 106-141 210-112l1 57h-16l-5-34c-13-9-32-16-54-16-60 0-78 42-78 104" id="ai"/><path fill="#fff" d="M15-82c-4-69 47-101 113-83l-1-69-17-4v-12h68v234l18 4V0h-63l-4-9C77 23 5-9 15-82zm112-66c-43-16-64 17-61 65 2 33 3 67 32 67 12 0 22-3 29-8v-124" id="aj"/><g id="l"><use transform="matrix(0.06172839506172837,0,0,0.06172839506172837,0,0)" xlink:href="#ai"/><use transform="matrix(0.06172839506172837,0,0,0.06172839506172837,15.987654320987648,0)" xlink:href="#K"/><use transform="matrix(0.06172839506172837,0,0,0.06172839506172837,25.37037037037036,0)" xlink:href="#L"/><use transform="matrix(0.06172839506172837,0,0,0.06172839506172837,35.18518518518517,0)" xlink:href="#aj"/><use transform="matrix(0.06172839506172837,0,0,0.06172839506172837,47.530864197530846,0)" xlink:href="#ad"/><use transform="matrix(0.06172839506172837,0,0,0.06172839506172837,53.70370370370368,0)" xlink:href="#I"/><use transform="matrix(0.06172839506172837,0,0,0.06172839506172837,61.04938271604936,0)" xlink:href="#H"/></g><g id="m"><use transform="matrix(0.06172839506172835,0,0,0.06172839506172835,0,0)" xlink:href="#aa"/><use transform="matrix(0.06172839506172835,0,0,0.06172839506172835,15.987654320987643,0)" xlink:href="#aj"/><use transform="matrix(0.06172839506172835,0,0,0.06172839506172835,28.333333333333314,0)" xlink:href="#aj"/></g><g id="n"><use transform="matrix(0.06172839506172835,0,0,0.06172839506172835,0,0)" xlink:href="#ai"/><use transform="matrix(0.06172839506172835,0,0,0.06172839506172835,15.987654320987643,0)" xlink:href="#K"/><use transform="matrix(0.06172839506172835,0,0,0.06172839506172835,25.370370370370352,0)" xlink:href="#L"/><use transform="matrix(0.06172839506172835,0,0,0.06172839506172835,35.18518518518516,0)" xlink:href="#aj"/><use transform="matrix(0.06172839506172835,0,0,0.06172839506172835,47.53086419753083,0)" xlink:href="#ad"/><use transform="matrix(0.06172839506172835,0,0,0.06172839506172835,53.70370370370367,0)" xlink:href="#I"/><use transform="matrix(0.06172839506172835,0,0,0.06172839506172835,61.04938271604934,0)" xlink:href="#H"/></g><path fill="#fff" d="M147 0H94L2-248h55l64 206c17-72 42-137 63-206h54" id="ak"/><path fill="#fff" d="M185-48c-13 30-37 53-82 52C43 2 14-33 14-96s30-98 90-98c62 0 83 45 84 108H66c0 31 8 55 39 56 18 0 30-7 34-22zm-45-69c5-46-57-63-70-21-2 6-4 13-4 21h74" id="al"/><path fill="#fff" d="M135-150c-39-12-60 13-60 57V0H25l-1-190h47c2 13-1 29 3 40 6-28 27-53 61-41v41" id="am"/><path fill="#fff" d="M25-224v-37h50v37H25zM25 0v-190h50V0H25" id="an"/><path fill="#fff" d="M121-226c-27-7-43 5-38 36h38v33H83V0H34v-157H6v-33h28c-9-59 32-81 87-68v32" id="ao"/><path fill="#fff" d="M123 10C108 53 80 86 19 72V37c35 8 53-11 59-39L3-190h52l48 148c12-52 28-100 44-148h51" id="ap"/><g id="o"><use transform="matrix(0.04999999999999999,0,0,0.04999999999999999,0,0)" xlink:href="#ak"/><use transform="matrix(0.04999999999999999,0,0,0.04999999999999999,10.999999999999996,0)" xlink:href="#al"/><use transform="matrix(0.04999999999999999,0,0,0.04999999999999999,20.999999999999993,0)" xlink:href="#am"/><use transform="matrix(0.04999999999999999,0,0,0.04999999999999999,27.999999999999993,0)" xlink:href="#an"/><use transform="matrix(0.04999999999999999,0,0,0.04999999999999999,32.99999999999999,0)" xlink:href="#ao"/><use transform="matrix(0.04999999999999999,0,0,0.04999999999999999,38.94999999999999,0)" xlink:href="#ap"/></g><g id="p"><use transform="matrix(0.04999999999999999,0,0,0.04999999999999999,0,0)" xlink:href="#an"/><use transform="matrix(0.04999999999999999,0,0,0.04999999999999999,4.999999999999999,0)" xlink:href="#ao"/></g><path fill="#fff" d="M85 4C-2 5 27-109 22-190h50c7 57-23 150 33 157 60-5 35-97 40-157h50l1 190h-47c-2-12 1-28-3-38-12 25-28 42-61 42" id="aq"/><path fill="#fff" d="M137-138c1-29-70-34-71-4 15 46 118 7 119 86 1 83-164 76-172 9l43-7c4 19 20 25 44 25 33 8 57-30 24-41C81-84 22-81 20-136c-2-80 154-74 161-7" id="ar"/><g id="q"><use transform="matrix(0.04999999999999999,0,0,0.04999999999999999,0,0)" xlink:href="#aq"/><use transform="matrix(0.04999999999999999,0,0,0.04999999999999999,10.949999999999998,0)" xlink:href="#ar"/><use transform="matrix(0.04999999999999999,0,0,0.04999999999999999,20.949999999999996,0)" xlink:href="#al"/><use transform="matrix(0.04999999999999999,0,0,0.04999999999999999,30.949999999999992,0)" xlink:href="#am"/></g><path fill="#fff" d="M114-157C55-157 80-60 75 0H25v-261h50l-1 109c12-26 28-41 61-42 86-1 58 113 63 194h-50c-7-57 23-157-34-157" id="as"/><path fill="#fff" d="M133-34C117-15 103 5 69 4 32 3 11-16 11-54c-1-60 55-63 116-61 1-26-3-47-28-47-18 1-26 9-28 27l-52-2c7-38 36-58 82-57s74 22 75 68l1 82c-1 14 12 18 25 15v27c-30 8-71 5-69-32zm-48 3c29 0 43-24 42-57-32 0-66-3-65 30 0 17 8 27 23 27" id="at"/><g id="r"><use transform="matrix(0.04999999999999999,0,0,0.04999999999999999,0,0)" xlink:href="#as"/><use transform="matrix(0.04999999999999999,0,0,0.04999999999999999,10.949999999999998,0)" xlink:href="#at"/><use transform="matrix(0.04999999999999999,0,0,0.04999999999999999,20.949999999999996,0)" xlink:href="#ar"/></g><path fill="#fff" d="M135-194c87-1 58 113 63 194h-50c-7-57 23-157-34-157-59 0-34 97-39 157H25l-1-190h47c2 12-1 28 3 38 12-26 28-41 61-42" id="au"/><path fill="#fff" d="M110-194c64 0 96 36 96 99 0 64-35 99-97 99-61 0-95-36-95-99 0-62 34-99 96-99zm-1 164c35 0 45-28 45-65 0-40-10-65-43-65-34 0-45 26-45 65 0 36 10 65 43 65" id="av"/><path fill="#fff" d="M195-6C206 82 75 100 31 46c-4-6-6-13-8-21l49-6c3 16 16 24 34 25 40 0 42-37 40-79-11 22-30 35-61 35-53 0-70-43-70-97 0-56 18-96 73-97 30 0 46 14 59 34l2-30h47zm-90-29c32 0 41-27 41-63 0-35-9-62-40-62-32 0-39 29-40 63 0 36 9 62 39 62" id="aw"/><g id="s"><use transform="matrix(0.04999999999999999,0,0,0.04999999999999999,0,0)" xlink:href="#al"/><use transform="matrix(0.04999999999999999,0,0,0.04999999999999999,9.999999999999998,0)" xlink:href="#au"/><use transform="matrix(0.04999999999999999,0,0,0.04999999999999999,20.949999999999996,0)" xlink:href="#av"/><use transform="matrix(0.04999999999999999,0,0,0.04999999999999999,31.89999999999999,0)" xlink:href="#aq"/><use transform="matrix(0.04999999999999999,0,0,0.04999999999999999,42.84999999999999,0)" xlink:href="#aw"/><use transform="matrix(0.04999999999999999,0,0,0.04999999999999999,53.79999999999999,0)" xlink:href="#as"/></g><path fill="#fff" d="M190-63c-7 42-38 67-86 67-59 0-84-38-90-98-12-110 154-137 174-36l-49 2c-2-19-15-32-35-32-30 0-35 28-38 64-6 74 65 87 74 30" id="ax"/><path fill="#fff" d="M88-194c31-1 46 15 58 34l-1-101h50l1 261h-48c-2-10 0-23-3-31C134-8 116 4 84 4 32 4 16-41 15-95c0-56 19-97 73-99zm17 164c33 0 40-30 41-66 1-37-9-64-41-64s-38 30-39 65c0 43 13 65 39 65" id="ay"/><path fill="#fff" d="M115-3C79 11 28 4 28-45v-112H4v-33h27l15-45h31v45h36v33H77v99c-1 23 16 31 38 25v30" id="az"/><g id="t"><use transform="matrix(0.04999999999999999,0,0,0.04999999999999999,0,0)" xlink:href="#ax"/><use transform="matrix(0.04999999999999999,0,0,0.04999999999999999,9.999999999999998,0)" xlink:href="#am"/><use transform="matrix(0.04999999999999999,0,0,0.04999999999999999,16.999999999999996,0)" xlink:href="#al"/><use transform="matrix(0.04999999999999999,0,0,0.04999999999999999,26.999999999999993,0)" xlink:href="#ay"/><use transform="matrix(0.04999999999999999,0,0,0.04999999999999999,37.94999999999999,0)" xlink:href="#an"/><use transform="matrix(0.04999999999999999,0,0,0.04999999999999999,42.94999999999999,0)" xlink:href="#az"/><use transform="matrix(0.04999999999999999,0,0,0.04999999999999999,48.899999999999984,0)" xlink:href="#ar"/></g><path fill="#fff" d="M107-230c-31-13-29 30-29 65h34v18H78v131l27 4V0H10v-12l18-4v-131H3v-12l25-7c-8-66 31-98 95-84v39h-11" id="aA"/><path fill="#fff" d="M127-114c3-31-26-38-50-25v123l15 4V0H10v-12l16-4v-218l-17-4v-12h68l-1 99c31-23 102-32 102 30v105l17 4V0h-82v-12l14-4v-98" id="aB"/><path fill="#fff" d="M91-218c7 77-29 197 56 197 84 0 47-121 55-197l-31-5v-13h80v13l-27 5v137c-1 56-32 84-91 84-59-1-96-26-97-85v-136l-27-5v-13h112v13" id="aC"/><g id="u"><use transform="matrix(0.06172839506172837,0,0,0.06172839506172837,0,0)" xlink:href="#aA"/><use transform="matrix(0.06172839506172837,0,0,0.06172839506172837,7.345679012345676,0)" xlink:href="#L"/><use transform="matrix(0.06172839506172837,0,0,0.06172839506172837,17.160493827160487,0)" xlink:href="#I"/><use transform="matrix(0.06172839506172837,0,0,0.06172839506172837,24.506172839506164,0)" xlink:href="#S"/><use transform="matrix(0.06172839506172837,0,0,0.06172839506172837,34.32098765432097,0)" xlink:href="#aB"/><use transform="matrix(0.06172839506172837,0,0,0.06172839506172837,46.66666666666664,0)" xlink:href="#aC"/><use transform="matrix(0.06172839506172837,0,0,0.06172839506172837,62.65432098765429,0)" xlink:href="#H"/><use transform="matrix(0.06172839506172837,0,0,0.06172839506172837,71.29629629629626,0)" xlink:href="#L"/><use transform="matrix(0.06172839506172837,0,0,0.06172839506172837,81.11111111111107,0)" xlink:href="#K"/><use transform="matrix(0.06172839506172837,0,0,0.06172839506172837,90.92592592592588,0)" xlink:href="#ai"/><use transform="matrix(0.06172839506172837,0,0,0.06172839506172837,106.91358024691353,0)" xlink:href="#K"/><use transform="matrix(0.06172839506172837,0,0,0.06172839506172837,116.29629629629623,0)" xlink:href="#L"/><use transform="matrix(0.06172839506172837,0,0,0.06172839506172837,126.11111111111104,0)" xlink:href="#aj"/><use transform="matrix(0.06172839506172837,0,0,0.06172839506172837,138.45679012345673,0)" xlink:href="#ad"/><use transform="matrix(0.06172839506172837,0,0,0.06172839506172837,144.62962962962956,0)" xlink:href="#I"/></g><path fill="#fff" d="M67-125c0 54 23 88 75 88 28 0 53-7 68-21v-34h-60v-39h108v91C232-14 192 4 140 4 58 4 20-42 15-125 8-236 126-280 215-234c19 10 29 26 37 47l-47 15c-11-23-29-39-63-39-53 1-75 33-75 86" id="aD"/><g id="v"><use transform="matrix(0.06234567901234567,0,0,0.06234567901234567,0,0)" xlink:href="#aD"/><use transform="matrix(0.06234567901234567,0,0,0.06234567901234567,17.456790123456788,0)" xlink:href="#al"/><use transform="matrix(0.06234567901234567,0,0,0.06234567901234567,29.92592592592592,0)" xlink:href="#au"/><use transform="matrix(0.06234567901234567,0,0,0.06234567901234567,43.57962962962962,0)" xlink:href="#al"/><use transform="matrix(0.06234567901234567,0,0,0.06234567901234567,56.048765432098755,0)" xlink:href="#am"/><use transform="matrix(0.06234567901234567,0,0,0.06234567901234567,64.77716049382715,0)" xlink:href="#at"/><use transform="matrix(0.06234567901234567,0,0,0.06234567901234567,77.2462962962963,0)" xlink:href="#az"/><use transform="matrix(0.06234567901234567,0,0,0.06234567901234567,84.66543209876542,0)" xlink:href="#al"/><use transform="matrix(0.06234567901234567,0,0,0.06234567901234567,97.13456790123456,0)" xlink:href="#ay"/></g><path fill="#fff" d="M240-174c0 40-23 61-54 70L253 0h-59l-57-94H76V0H24v-248c93 4 217-23 216 74zM76-134c48-2 112 12 112-38 0-48-66-32-112-35v73" id="aE"/><path fill="#fff" d="M25 0v-261h50V0H25" id="aF"/><g id="w"><use transform="matrix(0.06234567901234567,0,0,0.06234567901234567,0,0)" xlink:href="#aE"/><use transform="matrix(0.06234567901234567,0,0,0.06234567901234567,16.147530864197527,0)" xlink:href="#al"/><use transform="matrix(0.06234567901234567,0,0,0.06234567901234567,28.61666666666666,0)" xlink:href="#ar"/><use transform="matrix(0.06234567901234567,0,0,0.06234567901234567,41.08580246913579,0)" xlink:href="#aq"/><use transform="matrix(0.06234567901234567,0,0,0.06234567901234567,54.7395061728395,0)" xlink:href="#aF"/><use transform="matrix(0.06234567901234567,0,0,0.06234567901234567,60.97407407407407,0)" xlink:href="#az"/><use transform="matrix(0.06234567901234567,0,0,0.06234567901234567,68.3932098765432,0)" xlink:href="#ar"/></g><g id="x"><use transform="matrix(0.06172839506172839,0,0,0.06172839506172839,0,0)" xlink:href="#aC"/><use transform="matrix(0.06172839506172839,0,0,0.06172839506172839,15.987654320987653,0)" xlink:href="#H"/><use transform="matrix(0.06172839506172839,0,0,0.06172839506172839,24.629629629629626,0)" xlink:href="#L"/><use transform="matrix(0.06172839506172839,0,0,0.06172839506172839,34.44444444444444,0)" xlink:href="#aj"/></g><g id="y"><use transform="matrix(0.06172839506172839,0,0,0.06172839506172839,0,0)" xlink:href="#ae"/><use transform="matrix(0.06172839506172839,0,0,0.06172839506172839,12.345679012345679,0)" xlink:href="#K"/><use transform="matrix(0.06172839506172839,0,0,0.06172839506172839,21.728395061728396,0)" xlink:href="#G"/><use transform="matrix(0.06172839506172839,0,0,0.06172839506172839,32.839506172839506,0)" xlink:href="#ag"/><use transform="matrix(0.06172839506172839,0,0,0.06172839506172839,51.29629629629629,0)" xlink:href="#ae"/><use transform="matrix(0.06172839506172839,0,0,0.06172839506172839,63.641975308641975,0)" xlink:href="#I"/><use transform="matrix(0.06172839506172839,0,0,0.06172839506172839,70.98765432098764,0)" xlink:href="#H"/></g><path fill="#fff" d="M72-18c49 15 64-22 62-69-1-34-4-62-34-63-10-1-23 2-28 6v126zm33 22C77 4 48-3 21-8v-226l-16-4v-12h67c-1 31 2 66-2 94 11-8 28-14 47-14 51 0 70 31 69 83-1 55-26 91-81 91" id="aG"/><path fill="#fff" d="M64-135c49-21 105 0 105 62 0 50-26 77-73 77-64 0-82-53-84-120-2-89 54-142 143-115v54h-15c4-38-43-60-62-22-8 16-12 39-14 64zm54 65c3-37-19-64-54-46 3 43-3 92 31 102 23-3 21-26 23-56" id="aH"/><path fill="#fff" d="M150-47V0h-48v-47H5v-28l106-162h39v154h23v36h-23zm-48-36l2-107L34-83h68" id="aI"/><g id="z"><use transform="matrix(0.06172839506172839,0,0,0.06172839506172839,0,0)" xlink:href="#aG"/><use transform="matrix(0.06172839506172839,0,0,0.06172839506172839,12.345679012345679,0)" xlink:href="#aH"/><use transform="matrix(0.06172839506172839,0,0,0.06172839506172839,23.45679012345679,0)" xlink:href="#aI"/></g><path fill="#fff" d="M98-18l30 5V0H12v-13l30-5v-200l-30-5v-13h116v13l-30 5v200" id="aJ"/><g id="A"><use transform="matrix(0.06172839506172839,0,0,0.06172839506172839,0,0)" xlink:href="#aJ"/><use transform="matrix(0.06172839506172839,0,0,0.06172839506172839,8.641975308641975,0)" xlink:href="#ag"/><use transform="matrix(0.06172839506172839,0,0,0.06172839506172839,27.098765432098762,0)" xlink:href="#V"/><use transform="matrix(0.06172839506172839,0,0,0.06172839506172839,38.20987654320987,0)" xlink:href="#J"/><use transform="matrix(0.06172839506172839,0,0,0.06172839506172839,49.32098765432099,0)" xlink:href="#L"/></g><path fill="#fff" d="M168-150L102 4H81L12-149c-7-2-15-4-12-16h85v11l-20 5 42 94 38-94-19-5v-11h54v11" id="aK"/><g id="B"><use transform="matrix(0.061728395061728385,0,0,0.061728395061728385,0,0)" xlink:href="#M"/><use transform="matrix(0.061728395061728385,0,0,0.061728395061728385,12.345679012345677,0)" xlink:href="#L"/><use transform="matrix(0.061728395061728385,0,0,0.061728395061728385,22.16049382716049,0)" xlink:href="#K"/><use transform="matrix(0.061728395061728385,0,0,0.061728395061728385,31.975308641975303,0)" xlink:href="#aK"/><use transform="matrix(0.061728395061728385,0,0,0.061728395061728385,43.08641975308641,0)" xlink:href="#L"/></g><g id="C"><use transform="matrix(0.061728395061728385,0,0,0.061728395061728385,0,0)" xlink:href="#aJ"/><use transform="matrix(0.061728395061728385,0,0,0.061728395061728385,8.641975308641975,0)" xlink:href="#ag"/><use transform="matrix(0.061728395061728385,0,0,0.061728395061728385,27.098765432098762,0)" xlink:href="#V"/><use transform="matrix(0.061728395061728385,0,0,0.061728395061728385,38.20987654320987,0)" xlink:href="#J"/><use transform="matrix(0.061728395061728385,0,0,0.061728395061728385,49.32098765432098,0)" xlink:href="#L"/></g><g id="D"><use transform="matrix(0.061728395061728385,0,0,0.061728395061728385,0,0)" xlink:href="#I"/><use transform="matrix(0.061728395061728385,0,0,0.061728395061728385,7.345679012345678,0)" xlink:href="#G"/></g><g id="E"><use transform="matrix(0.061728395061728385,0,0,0.061728395061728385,0,0)" xlink:href="#aC"/><use transform="matrix(0.061728395061728385,0,0,0.061728395061728385,15.987654320987652,0)" xlink:href="#H"/><use transform="matrix(0.061728395061728385,0,0,0.061728395061728385,24.629629629629626,0)" xlink:href="#L"/><use transform="matrix(0.061728395061728385,0,0,0.061728395061728385,34.44444444444444,0)" xlink:href="#K"/></g></defs></g></svg>