<svg xmlns="http://www.w3.org/2000/svg" xmlns:xlink="http://www.w3.org/1999/xlink" xmlns:lucid="lucid" width="2574" height="1468"><g transform="translate(7572 -4859)" lucid:page-tab-id="wVSJqJP_zoFC"><path d="M-6720 5196a6 6 0 0 1 6-6h1108a6 6 0 0 1 6 6v898a6 6 0 0 1-6 6h-1108a6 6 0 0 1-6-6z" fill-opacity="0"/><path d="M-6699.1 5190h5.95m11.9 0h5.97m11.9 0h5.97m11.9 0h5.96m11.92 0h5.95m11.92 0h5.95m11.92 0h5.95m11.92 0h5.95m11.9 0h5.97m11.9 0h5.97m11.9 0h5.96m11.9 0h5.97m11.9 0h5.97m11.9 0h5.97m11.92 0h5.94m11.92 0h5.95m11.93 0h5.95m11.92 0h5.96m11.9 0h5.97m11.9 0h5.97m11.9 0h5.97m11.9 0h5.97m11.9 0h5.97m11.93 0h5.95m11.92 0h5.95m11.92 0h5.95m11.92 0h5.95m11.9 0h5.97m11.9 0h5.97m11.9 0h5.97m11.92 0h5.96m11.9 0h5.97m11.9 0h5.97m11.9 0h5.97m11.9 0h5.96m11.92 0h5.95m11.92 0h5.95m11.92 0h5.95m11.92 0h5.95m11.9 0h5.97m11.9 0h5.97m11.9 0h5.96m11.9 0h5.97m11.9 0h5.97m11.9 0h5.97m11.92 0h5.94m11.92 0h5.95m11.93 0h5.95m11.92 0h5.96m11.9 0h5.97m11.9 0h5.97m11.9 0h5.97m11.9 0h5.97m11.9 0h5.97m11.93 0h5.95m11.92 0h5.95m11.92 0h5.95m11.92 0h5.95m11.9 0h5.97m11.9 0h5.97m11.9 0h5.97m11.92 0h2.98l.94.07.9.22.88.35.8.5.72.6.6.72.5.8.37.88.23.9.07.95v3m0 11.97v5.98m0 11.98v5.98m0 12v5.97m0 11.98v5.98m0 11.98v6m0 11.97v5.98m0 11.98v5.98m0 12v5.97m0 11.98v5.98m0 11.98v6m0 11.97v5.98m0 11.98v5.98m0 12v5.97m0 11.98v5.98m0 11.98v6m0 11.97v5.98m0 11.98v5.98m0 12v5.97m0 11.98v5.98m0 11.98v6m0 11.97v5.98m0 11.98v5.98m0 12v5.97m0 11.98v5.98m0 11.98v6m0 11.97v5.98m0 11.98v5.98m0 12v5.97m0 11.98v5.98m0 11.98v6m0 11.97v5.98m0 11.98v5.98m0 12v5.97m0 11.98v5.98m0 11.98v6m0 11.97v5.98m0 11.98v5.98m0 12v5.97m0 11.98v5.98m0 11.98v6m0 11.97v5.98m0 11.98v5.98m0 12v5.97m0 11.98v5.98m0 11.98v6m0 11.97v5.98m0 11.98v5.98m0 12v5.97m0 11.98v5.98m0 11.98v3l-.07.94-.22.9-.35.88-.5.8-.6.72-.72.6-.8.5-.88.37-.9.23-.95.07h-2.98m-11.9 0h-5.97m-11.9 0h-5.97m-11.9 0h-5.97m-11.9 0h-5.96m-11.92 0h-5.95m-11.92 0h-5.95m-11.92 0h-5.95m-11.92 0h-5.95m-11.9 0h-5.97m-11.9 0h-5.97m-11.9 0h-5.96m-11.9 0h-5.97m-11.9 0h-5.97m-11.9 0h-5.97m-11.92 0h-5.94m-11.92 0h-5.95m-11.93 0h-5.95m-11.92 0h-5.96m-11.9 0h-5.97m-11.9 0h-5.97m-11.9 0h-5.97m-11.9 0h-5.97m-11.9 0h-5.97m-11.93 0h-5.95m-11.92 0h-5.95m-11.92 0h-5.95m-11.92 0h-5.95m-11.9 0h-5.97m-11.9 0h-5.97m-11.9 0h-5.97m-11.92 0h-5.96m-11.9 0h-5.97m-11.9 0h-5.97m-11.9 0h-5.97m-11.9 0h-5.96m-11.92 0h-5.95m-11.92 0h-5.95m-11.92 0h-5.95m-11.92 0h-5.95m-11.9 0h-5.97m-11.9 0h-5.97m-11.9 0h-5.96m-11.9 0h-5.97m-11.9 0h-5.97m-11.9 0h-5.97m-11.92 0h-5.94m-11.92 0h-5.95m-11.93 0h-5.95m-11.92 0h-5.96m-11.9 0h-5.97m-11.9 0h-5.97m-11.9 0h-5.97m-11.9 0h-5.97m-11.9 0h-5.97m-11.93 0h-5.95m-11.92 0h-5.95m-11.92 0h-5.95m-11.92 0h-5.95m-11.9 0h-5.97m-11.9 0h-5.97m-11.9 0h-5.97m-11.92 0h-2.98l-.94-.07-.9-.22-.88-.35-.8-.5-.72-.6-.6-.72-.5-.8-.37-.88-.23-.9-.07-.95v-3m0-11.97v-5.98m0-11.98v-5.98m0-12v-5.97m0-11.98v-5.98m0-11.98v-6m0-11.97v-5.98m0-11.98v-5.98m0-12v-5.97m0-11.98v-5.98m0-11.98v-6m0-11.97v-5.98m0-11.98v-5.98m0-12v-5.97m0-11.98v-5.98m0-11.98v-6m0-11.97v-5.98m0-11.98v-5.98m0-12v-5.97m0-11.98v-5.98m0-11.98v-6m0-11.97v-5.98m0-11.98v-5.98m0-12v-5.97m0-11.98v-5.98m0-11.98v-6m0-11.97v-5.98m0-11.98v-5.98m0-12v-5.97m0-11.98v-5.98m0-11.98v-6m0-11.97v-5.98m0-11.98v-5.98m0-12v-5.97m0-11.98v-5.98m0-11.98v-6m0-11.97v-5.98m0-11.98v-5.98m0-12v-5.97m0-11.98v-5.98m0-11.98v-6m0-11.97v-5.98m0-11.98v-5.98m0-12v-5.97m0-11.98v-5.98m0-11.98v-6m0-11.97v-5.98m0-11.98v-5.98m0-12v-5.97m0-11.98v-5.98m0-11.98v-3l.07-.94.22-.9.35-.88.5-.8.6-.72.72-.6.8-.5.88-.37.9-.23.95-.07h2.98" stroke="#fff" stroke-width="3" fill="none"/><path d="M-6700 5316a6 6 0 0 1 6-6h488a6 6 0 0 1 6 6v338a6 6 0 0 1-6 6h-488a6 6 0 0 1-6-6z" fill-opacity="0"/><path d="M-6678.94 5310h6.03m12.04 0h6.02m12.05 0h6.03m12.05 0h6.03m12.06 0h6.02m12.05 0h6.03m12.05 0h6.03m12.05 0h6.02m12.05 0h6.03m12.05 0h6.02m12.05 0h6.03m12.05 0h6.02m12.05 0h6.03m12.05 0h6.02m12.05 0h6.02m12.05 0h6.03m12.05 0h6.02m12.05 0h6.03m12.05 0h6.02m12.05 0h6.02m12.04 0h6.03m12.05 0h6.02m12.05 0h6.02m12.05 0h6.02m12.04 0h6.02m12.05 0h6.04m12.05 0h3l.94.07.9.22.88.35.8.5.72.6.6.72.5.8.37.88.23.9.07.95v2.97m0 11.85v5.93m0 11.86v5.94m0 11.86v5.93m0 11.86v5.92m0 11.86v5.93m0 11.87v5.93m0 11.86v5.93m0 11.85v5.93m0 11.86v5.93m0 11.86v5.93m0 11.86v5.93m0 11.86v5.94m0 11.86v5.93m0 11.86v5.92m0 11.86v5.93m0 11.87v5.93m0 11.86v5.93m0 11.85v5.93m0 11.85v2.97l-.07.94-.22.9-.35.88-.5.8-.6.72-.72.6-.8.5-.88.37-.9.23-.95.07h-3m-12.06 0h-6.03m-12.04 0h-6.02m-12.05 0h-6.03m-12.05 0h-6.03m-12.06 0h-6.02m-12.05 0h-6.03m-12.05 0h-6.03m-12.05 0h-6.02m-12.05 0h-6.03m-12.05 0h-6.02m-12.05 0h-6.03m-12.05 0h-6.02m-12.05 0h-6.03m-12.05 0h-6.02m-12.05 0h-6.02m-12.05 0h-6.03m-12.05 0h-6.02m-12.05 0h-6.03m-12.05 0h-6.02m-12.05 0h-6.02m-12.04 0h-6.03m-12.05 0h-6.02m-12.05 0h-6.02m-12.05 0h-6.02m-12.04 0h-6.02m-12.05 0h-6.04m-12.05 0h-3l-.94-.07-.9-.22-.88-.35-.8-.5-.72-.6-.6-.72-.5-.8-.37-.88-.23-.9-.07-.95v-2.97m0-11.85v-5.93m0-11.86v-5.94m0-11.86v-5.93m0-11.86v-5.92m0-11.86v-5.93m0-11.87v-5.93m0-11.86v-5.93m0-11.85v-5.93m0-11.86v-5.93m0-11.86v-5.93m0-11.86v-5.93m0-11.86v-5.94m0-11.86v-5.93m0-11.86V5402m0-11.86v-5.93m0-11.87v-5.93m0-11.86v-5.93m0-11.85v-5.93m0-11.85V5316l.07-.94.22-.9.35-.88.5-.8.6-.72.72-.6.8-.5.88-.37.9-.23.95-.07h3" stroke="#fff" stroke-width="3" fill="none"/><path d="M-7060 5530h121.48v121.48H-7060V5530z" stroke="#fff" stroke-opacity="0" fill="#693cc5"/><path d="M-6981.43 5629.63c-.37 0-.66-.15-.95-.3-.44-.32-.68-.8-.68-1.33v-74.52c0-.55.3-1.1.78-1.4.48-.3 1.1-.3 1.6-.08l21.08 10.34c.56.24.9.78.9 1.4V5621c.02.77-.42 1.4-1.12 1.63l-21.05 7h-.56zm1.63-73.5v69.6l17.8-5.9v-55.07zM-7017.1 5629.63h-.5l-21.06-7c-.68-.23-1.12-.94-1.1-1.64v-57.26c0-.62.35-1.16.9-1.4l21.06-10.34c.54-.23 1.12-.23 1.64.08.48.3.75.85.75 1.4V5628c0 .54-.25 1-.7 1.32-.28.23-.6.3-1 .3zm-19.42-9.72l17.82 5.92v-69.7l-17.82 8.7z" stroke="#fff" stroke-opacity="0" fill="#fff"/><path d="M-6983.06 5574.54h-4.87v-3.24h4.87zm-9.73 0h-4.86v-3.24h4.87zm-9.7 0h-4.85v-3.24h4.86zm-9.7 0h-4.88v-3.24h4.87zM-6983.06 5610.18h-4.87v-3.24h4.87zm-9.73 0h-4.86v-3.24h4.87zm-9.7 0h-4.85v-3.24h4.86zm-9.7 0h-4.88v-3.24h4.87zM-7006.37 5596.3l-6.1-5.2c-.67-.56-.75-1.6-.17-2.28l.18-.17 6.07-5.2 2.12 2.46-4.64 4.03 4.64 3.96zM-6992.14 5596.3l-2.1-2.45 4.63-3.92-4.66-3.96 2.1-2.52 6.1 5.18c.68.58.76 1.6.18 2.3l-.18.16z" stroke="#fff" stroke-opacity="0" fill="#fff"/><path d="M-7004.02 5599.72l6.43-19.04 3.08 1.05-6.43 19.03-3.07-1.04z" stroke="#fff" stroke-opacity="0" stroke-width=".32" fill="#fff"/><use xlink:href="#a" transform="matrix(1,0,0,1,-7090,5660.476851851852) translate(3.1604938271604937 17.77777777777778)"/><use xlink:href="#b" transform="matrix(1,0,0,1,-7090,5660.476851851852) translate(83.8395061728395 17.77777777777778)"/><use xlink:href="#c" transform="matrix(1,0,0,1,-7090,5660.476851851852) translate(143.1604938271605 17.77777777777778)"/><use xlink:href="#d" transform="matrix(1,0,0,1,-7090,5660.476851851852) translate(51.64814814814815 44.44444444444444)"/><path d="M-5490.65 5467.1a6 6 0 0 1 6-6h413a6 6 0 0 1 6 6v308a6 6 0 0 1-6 6h-413a6 6 0 0 1-6-6z" fill-opacity="0"/><path d="M-5469.7 5461.1h6m11.97 0h5.98m11.97 0h6m11.96 0h6m11.96 0h5.98m11.97 0h5.98m11.97 0h5.98m11.98 0h6m11.96 0h6m11.96 0h5.98m11.98 0h5.98m11.97 0h6m11.96 0h5.97m11.97 0h6m11.96 0h6m11.96 0h5.98m11.97 0h6m11.97 0h6m11.96 0h5.98m11.98 0h6m11.96 0h6m11.96 0h5.98m11.97 0h3l.94.1.9.2.87.37.8.5.72.6.6.72.5.8.35.86.22.9.08.95v3.03m0 12.08v6.05m0 12.08v6.04m0 12.07v6.04m0 12.08v6.04m0 12.08v6.04m0 12.08v6.04m0 12.07v6.05m0 12.08v6.04m0 12.08v6.04m0 12.07v6.04m0 12.1v6.03m0 12.07v6.04m0 12.08v6.04m0 12.08v6.04m0 12.08v6.04m0 12.07v6.04m0 12.1v3l-.08.95-.22.9-.36.9-.5.8-.6.7-.73.6-.8.5-.87.37-.9.22-.95.07h-3m-11.97 0h-5.98m-11.97 0h-6m-11.96 0h-6m-11.96 0h-5.97m-11.97 0h-6m-11.96 0h-6m-11.96 0h-5.98m-11.97 0h-6m-11.97 0h-5.98m-11.98 0h-5.98m-11.98 0h-6m-11.96 0h-5.98m-11.98 0h-5.98m-11.97 0h-6m-11.96 0h-6m-11.97 0h-5.98m-11.97 0h-6m-11.96 0h-5.98m-11.97 0h-6m-11.96 0h-5.98m-11.97 0h-5.98m-11.97 0h-6m-11.96 0h-3l-.93-.06-.9-.22-.88-.36-.8-.5-.72-.6-.6-.72-.5-.8-.36-.88-.22-.9-.07-.95v-3m0-12.1v-6.03m0-12.07v-6.04m0-12.08v-6.04m0-12.08v-6.04m0-12.08v-6.04m0-12.07v-6.04m0-12.1v-6.03m0-12.08v-6.05m0-12.08v-6.04m0-12.08v-6.03m0-12.08v-6.04m0-12.08v-6.04m0-12.08v-6.04m0-12.08v-6.03m0-12.08v-6.04m0-12.08v-6.04m0-12.07v-3.02l.07-.93.22-.9.36-.88.5-.8.6-.73.72-.6.8-.5.87-.37.9-.2.95-.1h3" stroke="#fff" stroke-width="3" fill="none"/><path d="M-7180 5046a6 6 0 0 1 6-6h2168a6 6 0 0 1 6 6v1188a6 6 0 0 1-6 6h-2168a6 6 0 0 1-6-6z" stroke="#fff" stroke-width="3" fill="#fff" fill-opacity="0"/><path d="M-7180 5040h56v56h-56v-56z" stroke="#fff" stroke-opacity="0" fill="#fff"/><path d="M-7139.12 5081.22h-25c-4.13.05-7.57-3.1-7.9-7.2v-.64c-.15-3.4 1.97-6.38 5.25-7.36v-.66c.12-4.22 2.44-7.75 6.24-9.57 4.13-1.86 8.73-.96 11.8 2.3 1.1 1.1 1.85 2.2 2.45 3.6 1.2-1 2.72-1.32 4.24-.9 2.24.8 3.68 2.74 3.76 5.1 3.68.65 6.32 3.8 6.28 7.56 0 7.07-7.04 7.73-7.12 7.76zm-26.7-13.88c-2.83.6-4.75 3.14-4.6 6.04v.53c.3 3.33 3.1 5.84 6.4 5.76h24.98c3.04-.3 5.4-2.64 5.68-5.7.28-3.43-2.24-6.5-5.68-6.78-.44-.05-.72-.45-.64-.87.08-1.83-1-3.44-2.72-4.13-1.32-.37-2.64.13-3.44 1.24-.2.25-.44.38-.76.33-.28-.05-.48-.24-.6-.5-.6-1.6-1.4-2.85-2.6-4.04-2.68-2.8-6.6-3.6-10.13-2-3.24 1.6-5.2 4.63-5.32 8.24-.04.4-.04.74 0 1.14.04.4-.2.76-.6.84z" stroke="#fff" stroke-opacity="0" fill="#fff"/><use xlink:href="#e" transform="matrix(1,0,0,1,-7109,5060) translate(0 14.4)"/><use xlink:href="#f" transform="matrix(1,0,0,1,-7109,5060) translate(45.3 14.4)"/><path d="M-7407.1 5635.16h14.96v11.1h-14.96v-11.1zM-7350.1 5510.27h59.45v145.17h-59.46v-145.17z" fill="#29aae1"/><path d="M-7479.05 5534.73h157.34v100.6h-157.35v-100.6z" fill="#29aae1"/><path d="M-7471.86 5540.85h143.53v89.96h-143.53v-89.95z" fill="#fff" fill-opacity=".98"/><path d="M-7472.8 5647.07h143.33l-7 23.98H-7480l7.2-23.98z" fill="#29aae1"/><path d="M-7473.75 5646.26H-7327l12.3 24.95h-146.74l-12.3-24.94z" fill="#29aae1"/><path d="M-7423.95 5664.77h52.26v5h-52.25v-5zM-7452.73 5650.13h3.97v3.22h-3.97v-3.22zM-7445.92 5650.3h3.98v3.2h-3.98v-3.2zM-7437.02 5656.08h3.8v3.22h-3.8v-3.22zM-7438.53 5649.97h3.97v3.22h-3.97v-3.23zM-7431.9 5650.13h3.97v3.22h-3.98v-3.22zM-7425.28 5649.97h3.8v3.22h-3.8v-3.23zM-7384.95 5650.45h3.98v3.22h-3.98v-3.22zM-7378.9 5650.45h3.8v3.22h-3.8v-3.22zM-7373.4 5650.45h3.98v3.22h-3.98v-3.22zM-7366.77 5650.45h3.98v3.22h-3.97v-3.22zM-7360.52 5650.45h3.8v3.22h-3.8v-3.22zM-7367.9 5655.76h3.97v3.22h-3.98v-3.22zM-7353.52 5650.45h3.98v3.22h-3.98v-3.22zM-7429.82 5655.92h3.97v3.22h-3.97v-3.22zM-7422.25 5655.92h3.8v3.22h-3.8v-3.22zM-7373.97 5655.6h3.4v3.22h-3.4v-3.22zM-7380.6 5655.6h3.8v3.22h-3.8v-3.22zM-7418.08 5650.13h3.78v3.22h-3.78v-3.22zM-7410.9 5650.3h4v3.2h-4v-3.2zM-7404.07 5650.13h3.97v3.22h-3.97v-3.22zM-7396.5 5650.13h3.8v3.22h-3.8v-3.22zM-7390.44 5650.3h3.98v3.2h-3.98v-3.2zM-7415.62 5655.76h3.78v3.22h-3.78v-3.22zM-7408.43 5655.76h3.98v3.22h-3.98v-3.22zM-7401.42 5655.92h3.8v3.22h-3.8v-3.22zM-7394.8 5655.92h3.98v3.22h-3.97v-3.22zM-7387.8 5655.6h3.8v3.22h-3.8v-3.22z" fill="#fff"/><path d="M-7479.8 5671.05l165.1-.48-11.74-24.3-146.18.15-7.2 24.63z" fill="none"/><path d="M-7308.07 5517.83h10.6c1.14 0 1.14 0 1.14 1.13 0 1.12 0 1.12-1.14 1.12h-10.6c-1.14 0-1.14 0-1.14-1.12 0-1.13 0-1.13 1.13-1.13zM-7308.07 5523.14h10.8c.94 0 .94 0 .94.97s0 .97-.95.97h-10.8c-1.13 0-1.13 0-1.13-.96s0-.96 1.13-.96zM-7349.92 5533.12h28.6v1.3h-28.6v-1.3z" fill="#fff"/><path d="M-7321.33 5533.12h1.33v102.52h-1.33v-102.52z" fill="#fff"/><path d="M-7350.1 5635.48h29.9v1.45h-29.9v-1.45zM-7349.92 5643.7h22.9c1.15 0 1.15 0 1.15 1.12 0 1.28 0 1.28-1.14 1.28h-22.92c-1.14 0-1.14 0-1.14-1.28 0-1.13 0-1.13 1.14-1.13z" fill="#fff"/><path d="M-7326.06 5644l6.44 11.12-1.9 1.12-6.24-11.26 1.7-.97zM-7407.86 5635.16h16.1v1.6h-16.1v-1.6zM-7407.3 5644.5h15.35v1.76h-15.34v-1.77z" fill="#fff"/><path d="M-6500 5461.1h100v100h-100v-100z" stroke="#fff" stroke-opacity="0" stroke-width="2" fill="#d86613"/><path d="M-6419.33 5544.44h-16.43c-.54 0-.97-.26-1.18-.73l-23.26-48.6h-9.8c-.76 0-1.35-.6-1.35-1.32v-14.67c0-.72.6-1.32 1.34-1.32h20.52c.54 0 .97.27 1.18.73l23.15 48.6h5.82c.74 0 1.33.6 1.33 1.34v14.67c0 .74-.6 1.34-1.33 1.34zm-15.58-2.66h14.23v-12h-5.33c-.53 0-.96-.27-1.18-.73l-23.15-48.6h-18.35v12h9.34c.53 0 .96.26 1.22.73z" stroke="#fff" stroke-opacity="0" stroke-width="2" fill="#fff"/><path d="M-6463.37 5544.44h-17.32c-.46 0-.87-.24-1.14-.6-.26-.45-.26-.94-.06-1.34l18.15-37.88c.2-.5.68-.77 1.18-.77.53 0 .97.28 1.2.72l8.68 17.87c.22.37.22.77 0 1.18l-9.46 19.97c-.18.52-.65.84-1.2.84zm-15.2-2.67h14.37l8.82-18.64-7.16-14.9z" stroke="#fff" stroke-opacity="0" stroke-width="2" fill="#fff"/><use xlink:href="#g" transform="matrix(1,0,0,1,-6530,5570.111333333333) translate(6.53086419753086 19.555555555555557)"/><use xlink:href="#h" transform="matrix(1,0,0,1,-6530,5570.111333333333) translate(92.56172839506172 19.555555555555557)"/><path d="M-6620 5326a6 6 0 0 1 6-6h328a6 6 0 0 1 6 6v115.33a6 6 0 0 1-6 6h-328a6 6 0 0 1-6-6z" stroke="#000" stroke-opacity="0" stroke-width="3" fill="#fff" fill-opacity="0"/><use xlink:href="#i" transform="matrix(1,0,0,1,-6615,5325) translate(104.85185185185188 65.31944444444443)"/><path d="M-5175.66 5572.6l50 8.6v5.1c0 7.54-22.4 13.64-50 13.64s-50-6.1-50-13.65v-5.53z" fill="#8c3123"/><path d="M-5175.64 5609.3c20.86 0 38.74-3.54 46.2-8.5l2.47-4.78 1-4.4v5.45l-16.4 81c0 5.07-14.9 9.1-33.27 9.1-18.37-.02-33.27-4.03-33.27-9.1l-16.4-81v-5.35l3.77 9.26c7.55 4.88 25.23 8.32 45.9 8.32z" fill="#8c3123"/><path d="M-5175.65 5567.17c27.6 0 50 6.1 50 13.62 0 7.5-22.4 13.56-50 13.56s-50-6-50-13.57 22.4-13.63 50-13.63z" fill="#e05243"/><path d="M-5175.66 5603.78c25.73 0 46.9-5.22 49.68-12.07l-16.4 81c0 5.06-14.9 9.1-33.28 9.1-18.38 0-33.28-4.04-33.28-9.1l-16.4-81c2.8 6.86 23.95 12.08 49.68 12.08z" fill="#e05243"/><path d="M-5187.42 5611.54h21.65v24.96h-21.65v-24.96zM-5193.97 5645.34c5.9 0 10.68 5.5 10.68 12.3 0 6.8-4.77 12.3-10.67 12.3s-10.67-5.5-10.67-12.3c0-6.8 4.78-12.3 10.67-12.3zM-5149.1 5669.37h-21.37l10.7-22.94 10.68 22.94z" fill="#fff"/><use xlink:href="#j" transform="matrix(1,0,0,1,-5225.65308012969,5687.166833333334) translate(4.074074074074076 17.77777777777778)"/><use xlink:href="#k" transform="matrix(1,0,0,1,-5225.65308012969,5687.166833333334) translate(33.086419753086425 17.77777777777778)"/><path d="M-5388.15 5483.17a6 6 0 0 1 6-6h228a6 6 0 0 1 6 6v48a6 6 0 0 1-6 6h-228a6 6 0 0 1-6-6z" stroke="#000" stroke-opacity="0" stroke-width="3" fill="#fff" fill-opacity="0"/><use xlink:href="#l" transform="matrix(1,0,0,1,-5383.15308012969,5482.166833333334) translate(53.117283950617285 30.27777777777778)"/><use xlink:href="#m" transform="matrix(1,0,0,1,-5383.15308012969,5482.166833333334) translate(104.2283950617284 30.27777777777778)"/><path d="M-6700 5706a6 6 0 0 1 6-6h488a6 6 0 0 1 6 6v348a6 6 0 0 1-6 6h-488a6 6 0 0 1-6-6z" fill-opacity="0"/><path d="M-6678.94 5700h6.03m12.04 0h6.02m12.05 0h6.03m12.05 0h6.03m12.06 0h6.02m12.05 0h6.03m12.05 0h6.03m12.05 0h6.02m12.05 0h6.03m12.05 0h6.02m12.05 0h6.03m12.05 0h6.02m12.05 0h6.03m12.05 0h6.02m12.05 0h6.02m12.05 0h6.03m12.05 0h6.02m12.05 0h6.03m12.05 0h6.02m12.05 0h6.02m12.04 0h6.03m12.05 0h6.02m12.05 0h6.02m12.05 0h6.02m12.04 0h6.02m12.05 0h6.04m12.05 0h3l.94.07.9.22.88.35.8.5.72.6.6.72.5.8.37.88.23.9.07.95v3.05m0 12.2v6.12m0 12.2v6.1m0 12.23v6.1m0 12.2v6.12m0 12.2v6.1m0 12.22v6.1m0 12.22v6.1m0 12.2v6.12m0 12.2v6.12m0 12.2v6.1m0 12.22v6.1m0 12.22v6.1m0 12.2v6.12m0 12.2v6.1m0 12.22v6.1m0 12.22v6.1m0 12.22v6.1m0 12.2v6.12m0 12.2v3.06l-.07.94-.22.9-.35.88-.5.8-.6.72-.72.6-.8.5-.88.37-.9.23-.95.07h-3m-12.06 0h-6.03m-12.04 0h-6.02m-12.05 0h-6.03m-12.05 0h-6.03m-12.06 0h-6.02m-12.05 0h-6.03m-12.05 0h-6.03m-12.05 0h-6.02m-12.05 0h-6.03m-12.05 0h-6.02m-12.05 0h-6.03m-12.05 0h-6.02m-12.05 0h-6.03m-12.05 0h-6.02m-12.05 0h-6.02m-12.05 0h-6.03m-12.05 0h-6.02m-12.05 0h-6.03m-12.05 0h-6.02m-12.05 0h-6.02m-12.04 0h-6.03m-12.05 0h-6.02m-12.05 0h-6.02m-12.05 0h-6.02m-12.04 0h-6.02m-12.05 0h-6.04m-12.05 0h-3l-.94-.07-.9-.22-.88-.35-.8-.5-.72-.6-.6-.72-.5-.8-.37-.88-.23-.9-.07-.95v-3.05m0-12.2v-6.12m0-12.2v-6.1m0-12.23v-6.1m0-12.2v-6.12m0-12.2v-6.1m0-12.22v-6.1m0-12.22v-6.1m0-12.2v-6.12m0-12.2v-6.12m0-12.2v-6.1m0-12.22v-6.1m0-12.22v-6.1m0-12.2v-6.12m0-12.2v-6.1m0-12.22v-6.1m0-12.22v-6.1m0-12.22v-6.1m0-12.2v-6.12m0-12.2V5706l.07-.94.22-.9.35-.88.5-.8.6-.72.72-.6.8-.5.88-.37.9-.23.95-.07h3" stroke="#fff" stroke-width="3" fill="none"/><path d="M-6101.5 5245.67a6 6 0 0 1 6-6h409.5a6 6 0 0 1 6 6v148a6 6 0 0 1-6 6h-409.5a6 6 0 0 1-6-6z" stroke="#000" stroke-opacity="0" stroke-width="3" fill="#fff" fill-opacity="0"/><use xlink:href="#n" transform="matrix(1,0,0,1,-6096.500082154002,5244.666666666667) translate(157.9135802469136 58.99305555555554)"/><use xlink:href="#o" transform="matrix(1,0,0,1,-6096.500082154002,5244.666666666667) translate(16.944444444444514 108.7708333333333)"/><use xlink:href="#p" transform="matrix(1,0,0,1,-6096.500082154002,5244.666666666667) translate(250.83333333333331 108.7708333333333)"/><path d="M-5960 5810h120v120h-120v-120z" stroke="#000" stroke-opacity="0" fill="url(#q)"/><path d="M-5862.35 5900.33c2.14 2 2.4 5.3.4 7.46-.98 1.06-2.47 1.68-3.87 1.68-1.24 0-2.56-.46-3.55-1.3l-9.66-8.78c-2.8 1.77-6.03 2.77-9.58 2.77-10.08 0-18.25-8.23-18.25-18.23 0-10.07 8.17-18.23 18.24-18.23 10.07 0 18.24 8.17 18.24 18.24 0 2.77-.58 5.3-1.65 7.7zm-26.26-1.93c8 0 14.52-6.46 14.52-14.46s-6.52-14.46-14.53-14.46c-7.93 0-14.45 6.46-14.45 14.46s6.52 14.46 14.44 14.46zm-38.23-44.22c0 .76 0 1.53.16 2.22 0 .54-.16 1.08-.5 1.47-.24.3-.65.53-1.07.6-3.46.93-9.32 3.7-9.32 11.93 0 6.24 3.46 9.62 6.35 11.47 1.23.77 2.4 1.15 3.3 1.15h16.92v3.77h-16.93c-1.66 0-3.47-.63-5.3-1.78-2.96-1.85-8.08-6.23-8.08-14.62 0-9.92 6.6-13.7 10.73-15.07 0-.4-.08-.77-.08-1.15 0-8.16 5.6-16.7 13.05-19.77 8.66-3.6 17.83-1.84 24.52 4.78 1.98 1.92 3.55 4.3 4.87 6.92 1.74-1.23 3.8-1.93 5.95-1.93 4.54 0 9.66 3.3 10.65 10.7 6.44 1.53 12.88 6.38 12.88 15.6 0 5.47-2.15 9.86-6.2 12.78l-2.14-3.08c3.06-2.15 4.63-5.46 4.63-9.7 0-9.3-7.93-11.68-11.32-12.22-.5-.08-.9-.38-1.23-.77-.25-.38-.34-.84-.25-1.3-.5-5.78-3.88-8.3-7.02-8.3-1.98 0-3.88 1-5.12 2.68-.4.54-1.07.84-1.73.7-.74-.1-1.32-.55-1.57-1.24-1.16-3.23-2.9-6-5.04-8.15-2.73-2.7-10.08-8.4-20.48-4-5.95 2.46-10.65 9.7-10.65 16.3zm49.7 29.76c0 6.3-5.12 11.4-11.48 11.4-6.28 0-11.4-5.1-11.4-11.4 0-6.3 5.12-11.38 11.4-11.38 6.35 0 11.47 5.07 11.47 11.38zm-3.8 0c0-4.23-3.38-7.7-7.68-7.7-4.22 0-7.68 3.47-7.68 7.7s3.46 7.62 7.67 7.62c4.3 0 7.67-3.4 7.67-7.62zm16.1 19.16l-9.16-8.24c-.65.77-1.3 1.54-1.98 2.24l9.17 8.23c.57.6 1.56.53 2.05-.08.58-.62.5-1.54-.08-2.15z" stroke="#000" stroke-opacity="0" fill="#fff"/><use xlink:href="#r" transform="matrix(1,0,0,1,-5990,5939) translate(5.924999999999997 14.4)"/><use xlink:href="#s" transform="matrix(1,0,0,1,-5990,5939) translate(76.875 14.4)"/><path d="M-6920.02 5590.74H-6720" stroke="#fff" stroke-width="2" fill="none"/><path d="M-6935.3 5590.74l14.28-4.64v9.27zM-6704.74 5590.74l-14.26 4.63v-9.27z" stroke="#fff" stroke-width="2" fill="#fff"/><use xlink:href="#t" transform="matrix(1,0,0,1,-6841.116471629826,5552.07175925926) translate(0 23.11111111111111)"/><path d="M-7272.15 5590.74h193.65" stroke="#fff" stroke-width="2" fill="none"/><path d="M-7287.42 5590.74l14.27-4.64v9.27zM-7063.24 5590.74l-14.26 4.63v-9.27z" stroke="#fff" stroke-width="2" fill="#fff"/><path d="M-5960 5461.1h120v120h-120v-120z" stroke="#000" stroke-opacity="0" fill="url(#u)"/><path d="M-5863.4 5557.72c-1.88 1.8-4 2.75-6.14 2.75-1.65 0-3.3-.63-4.56-1.9l-18.26-18.72c-4.65 2.75-10 4.33-15.75 4.33-17.25 0-31.26-14.02-31.26-31.26 0-17.16 14-31.17 31.25-31.17 17.15 0 31.16 14 31.16 31.17 0 5.83-1.57 11.18-4.33 15.83l18.74 18.18c2.84 2.84 2.44 7.48-.87 10.8zm-44.7-17.32c15.1 0 27.4-12.36 27.4-27.48 0-15.1-12.3-27.4-27.4-27.4-15.2 0-27.48 12.3-27.48 27.4 0 15.12 12.28 27.48 27.47 27.48zm22.82-27.48c0 12.9-10 22.9-22.83 22.9-12.92 0-22.92-9.98-22.92-22.9 0-12.83 10-22.82 22.9-22.82 12.84 0 22.84 10 22.84 22.82zm-3.78 0c0-10.7-8.34-19.05-19.05-19.05-10.8 0-19.14 8.35-19.14 19.05 0 10.8 8.35 19.13 19.13 19.13 10.7 0 19.04-8.34 19.04-19.13zm23.85 36.77l-18.2-17.8c-1.64 2.2-3.6 4.1-5.82 5.82l17.8 18.2c1.57 1.48 3.85.6 5.35-.88 1.57-1.57 2.36-3.94.86-5.35zm-53.14-41.5v-7.64h7.63v3.86h-3.78v3.78zm3.86 9.45v3.78h3.77v3.85h-7.64v-7.63zm13.22 0h3.78v7.63h-7.56v-3.85h3.78zm-3.78-13.23v-3.86h7.56v7.64h-3.78v-3.78z" stroke="#000" stroke-opacity="0" fill="#fff"/><use xlink:href="#r" transform="matrix(1,0,0,1,-5990,5590.111333333333) translate(7.099999999999994 14.4)"/><use xlink:href="#v" transform="matrix(1,0,0,1,-5990,5590.111333333333) translate(78.05 14.4)"/><path d="M-6620 5706a6 6 0 0 1 6-6h328a6 6 0 0 1 6 6v115.33a6 6 0 0 1-6 6h-328a6 6 0 0 1-6-6z" stroke="#000" stroke-opacity="0" stroke-width="3" fill="#fff" fill-opacity="0"/><use xlink:href="#w" transform="matrix(1,0,0,1,-6615,5705) translate(116.70370370370372 65.31944444444443)"/><path d="M-6500 5820h100v100h-100v-100z" stroke="#fff" stroke-opacity="0" stroke-width="2" fill="#d86613"/><path d="M-6419.33 5903.33h-16.43c-.54 0-.97-.26-1.18-.73l-23.26-48.6h-9.8c-.76 0-1.35-.6-1.35-1.33V5838c0-.73.6-1.33 1.34-1.33h20.52c.54 0 .97.26 1.18.73l23.15 48.6h5.82c.74 0 1.33.6 1.33 1.33V5902c0 .73-.6 1.33-1.33 1.33zm-15.58-2.66h14.23v-12h-5.33c-.53 0-.96-.27-1.18-.74l-23.15-48.6h-18.35v12h9.34c.53 0 .96.27 1.22.74z" stroke="#fff" stroke-opacity="0" stroke-width="2" fill="#fff"/><path d="M-6463.37 5903.33h-17.32c-.46 0-.87-.24-1.14-.6-.26-.45-.26-.94-.06-1.34l18.15-37.9c.2-.48.68-.77 1.18-.77.53 0 .97.3 1.2.73l8.68 17.87c.22.36.22.77 0 1.18l-9.46 19.98c-.18.53-.65.85-1.2.85zm-15.2-2.68h14.37l8.82-18.63-7.16-14.9z" stroke="#fff" stroke-opacity="0" stroke-width="2" fill="#fff"/><use xlink:href="#x" transform="matrix(1,0,0,1,-6530,5929) translate(16.037037037037038 19.555555555555557)"/><use xlink:href="#y" transform="matrix(1,0,0,1,-6530,5929) translate(83.05555555555556 19.555555555555557)"/><use xlink:href="#z" transform="matrix(1,0,0,1,-6530,5929) translate(5.444444444444443 48.88888888888889)"/><use xlink:href="#A" transform="matrix(1,0,0,1,-6530,5929) translate(67.09876543209876 48.88888888888889)"/><use xlink:href="#B" transform="matrix(1,0,0,1,-6530,5929) translate(97.65432098765432 48.88888888888889)"/><path d="M-5978.5 5521.1H-6180" stroke="#fff" stroke-width="2" fill="none"/><path d="M-5963.24 5521.1l-14.26 4.65v-9.27zM-6195.26 5521.1l14.26-4.62v9.27z" stroke="#fff" stroke-width="2" fill="#fff"/><use xlink:href="#C" transform="matrix(1,0,0,1,-6124.9815011395685,5487.777999999999) translate(0 19.555555555555557)"/><use xlink:href="#D" transform="matrix(1,0,0,1,-6124.9815011395685,5487.777999999999) translate(48.07407407407406 19.555555555555557)"/><path d="M-5978.5 5870h-219" stroke="#fff" stroke-width="2" fill="none"/><path d="M-5963.24 5870l-14.26 4.64v-9.28z" stroke="#fff" stroke-width="2" fill="#fff"/><path d="M-6197.47 5871h-1.03v-2h1.03z" stroke="#fff" stroke-width=".05" fill="#fff"/><use xlink:href="#E" transform="matrix(1,0,0,1,-6099.620396807152,5836.666666666667) translate(0 19.555555555555557)"/><path d="M-5900 5791.5v-150.65a6 6 0 0 0-6-6h-291.5" stroke="#fff" stroke-width="2" fill="none"/><path d="M-5900 5806.76l-4.64-14.26h9.28z" stroke="#fff" stroke-width="2" fill="#fff"/><path d="M-6197.47 5635.85h-1.03v-2h1.03z" stroke="#fff" stroke-width=".05" fill="#fff"/><use xlink:href="#E" transform="matrix(1,0,0,1,-6103.380325930312,5638.853000790858) translate(0 19.555555555555557)"/><path d="M-5425.65 5561.1h120v120h-120v-120z" stroke="#fff" stroke-opacity="0" stroke-width="2" fill="#3b48cc"/><path d="M-5345.24 5625.9l-10.6 10.54c2-.56 3.63-1.2 5.48-2.23 1.1.64 1.7 1.68 1.9 2.88 0 2.96-6.2 6.16-15.4 7.44-3.04.4-5.54.56-8.6.56h-1.57c-12.95-.24-22.42-4.32-22.42-8 .16-1.2.82-2.16 1.9-2.88 5 2.8 13.18 4.48 22.1 4.48h.16l.94-3.2h-1.1c-8.8 0-16.97-1.75-21.27-4.47-1.74-1.1-2.72-2.4-2.72-3.43v-7.43c4.9 3.75 14.64 5.67 24 5.67 1.25 0 2.5 0 3.75-.07l.93-3.2c-1.63.08-3.1.16-4.68.16-13.7 0-24-4.24-24-8 .16-1.28.82-2.24 1.9-2.88 4.4 2.48 11.22 4 18.9 4.4l.1-3.2c-7.57-.4-14.42-2-18.18-4.48-1.74-1.03-2.67-2.3-2.72-3.43v-7.35c4.9 3.76 14.64 5.68 24 5.68h.33l1.74-3.2h-2.07c-13.7 0-24-4.15-24-8 0-3.75 10.3-7.98 24-7.98 4.84 0 8.98.47 13.7 1.6h8.83c-4.84-2.96-13.12-4.8-22.53-4.8-13.17 0-27.2 3.9-27.2 11.2v12.86c.1 1.93.9 3.52 2.44 4.72-1.53 1.28-2.35 2.88-2.46 4.8v12.8c.1 2 .93 3.6 2.45 4.87-1.53 1.18-2.35 2.78-2.46 4.78V5650.18c.43 7.05 14.2 10.8 27.2 10.8 13.02 0 26.78-3.75 27.22-10.87V5637c-.06-1.92-.93-3.6-2.45-4.8 1.53-1.2 2.35-2.87 2.46-4.8zm-3.2 23.97c0 3.76-10.3 8-24 8-13.72 0-24-4.16-24-8v-7.35c4.9 3.67 14.63 5.67 24 5.67 9.35 0 19.1-2 24-5.68z" stroke="#fff" stroke-opacity="0" stroke-width="2" fill="#fff"/><path d="M-5389.65 5605.14c0 1.1-.9 2-2 2s-2-.9-2-2 .9-2 2-2 2 .9 2 2zM-5389.65 5627.54c0 1.1-.9 2-2 2s-2-.9-2-2 .9-2 2-2 2 .9 2 2zM-5389.65 5649.94c0 1.1-.9 2-2 2s-2-.9-2-2 .9-2 2-2 2 .9 2 2zM-5368.47 5643.48c-.28 0-.52-.05-.8-.22-.64-.38-.92-1.14-.72-1.85l9-29.94h-9.07c-.88.06-1.6-.65-1.6-1.58 0-.27.04-.54.2-.76l9.58-19.22c.3-.54.8-.87 1.45-.87h20.8c.9-.05 1.62.65 1.66 1.52.05.22 0 .4-.03.6l-4.13 12.25h8.98c.88.06 1.6.77 1.6 1.64 0 .43-.16.76-.44 1.1l-35.2 36.8c-.32.38-.72.54-1.25.54zm1-35.17h8.63c.52 0 .96.22 1.28.6.28.44.4.93.24 1.42l-7.7 25.6 28.03-29.25h-7.45c-.88 0-1.64-.65-1.68-1.52 0-.22 0-.44.08-.6l4.1-12.3h-17.6z" stroke="#fff" stroke-opacity="0" stroke-width="2" fill="#fff"/><g><use xlink:href="#F" transform="matrix(1,0,0,1,-5455.65308012969,5690.111333333333) translate(52.43827160493827 17.77777777777778)"/><use xlink:href="#G" transform="matrix(1,0,0,1,-5455.65308012969,5690.111333333333) translate(36.38888888888889 44.44444444444444)"/></g><path d="M-5490.65 5309.67a6 6 0 0 1 6-6h409.5a6 6 0 0 1 6 6v148a6 6 0 0 1-6 6h-409.5a6 6 0 0 1-6-6z" stroke="#000" stroke-opacity="0" stroke-width="3" fill="#fff" fill-opacity="0"/><g><use xlink:href="#H" transform="matrix(1,0,0,1,-5485.65308012969,5308.666666666667) translate(71.00000000000006 82.43055555555554)"/></g><path d="M-6450 5307.5V5126a6 6 0 0 1 6-6h1158.1a6 6 0 0 1 6 6v159.16" stroke="#fff" stroke-width="2" fill="none"/><path d="M-6449 5308.5h-2v-1.03h2z" stroke="#fff" stroke-width=".05" fill="#fff"/><path d="M-5279.9 5300.43l-4.64-14.27h9.27z" stroke="#fff" stroke-width="2" fill="#fff"/><g><use xlink:href="#I" transform="matrix(1,0,0,1,-5897.368186193012,5084) translate(0 21.333333333333332)"/></g><path d="M-6450 6062.5v91.5a6 6 0 0 0 6 6h1159.85a6 6 0 0 0 6-6v-352.9" stroke="#fff" stroke-width="2" fill="none"/><path d="M-6449 6062.53h-2v-1.03h2z" stroke="#fff" stroke-width=".05" fill="#fff"/><path d="M-5278.15 5785.85l4.63 14.26h-9.27z" stroke="#fff" stroke-width="2" fill="#fff"/><g><use xlink:href="#J" transform="matrix(1,0,0,1,-5921.671689775061,6164) translate(0 21.333333333333332)"/></g><path d="M-7560 5687.1a6 6 0 0 1 6-6h328a6 6 0 0 1 6 6v115.34a6 6 0 0 1-6 6h-328a6 6 0 0 1-6-6z" stroke="#000" stroke-opacity="0" stroke-width="3" fill="#fff" fill-opacity="0"/><g><use xlink:href="#K" transform="matrix(1,0,0,1,-7555,5686.111333333333) translate(94.43209876543213 65.31944444444443)"/></g><defs><path fill="#fff" d="M81-9v9H4v-9l26-5 81-224h33l83 224 30 5v9h-99v-9l31-5-23-68H73L49-14zm38-203L78-98h82" id="L"/><path fill="#fff" d="M126-118c4-37-42-32-68-25v131l24 4v8H8C5-13 21-9 28-12v-141c-7-3-23 1-20-12h48l1 13c22-15 77-30 92 2 32-22 104-36 104 29v109c8 3 24-2 21 12h-75v-8l25-4v-106c3-39-45-31-72-24 7 37 1 88 3 130l25 4v8h-78v-8l24-4v-106" id="M"/><path fill="#fff" d="M32-163c41-10 102-14 102 39v112c8 3 24-2 21 12h-45l-4-17C83 13 3 13 13-46c-2-50 45-50 92-51 4-36-5-70-42-56-6 2-12 4-16 6-4 7 0 23-15 20v-36zM42-47c0 41 41 33 63 22v-59c-34 1-63-1-63 37" id="N"/><path fill="#fff" d="M10 0v-8l90-143c-23 2-54-4-70 6-5 8 1 26-14 24v-44h122v8L47-14c29-2 65 3 86-8l9-35h8l-5 57H10" id="O"/><path fill="#fff" d="M90-170c52 0 76 32 76 87 0 54-24 87-77 87-51 0-75-34-75-87 0-54 24-87 76-87zM89-10c39 0 46-35 46-73 0-39-7-73-46-73-39 1-44 34-44 73s6 72 44 73" id="P"/><path fill="#fff" d="M125-118c4-37-41-34-68-26v132l23 4v8H8C5-13 21-9 28-12v-141c-7-3-23 1-20-12h47l2 13c31-23 98-29 98 31v109c7 3 23-1 20 12h-72v-8l22-4v-106" id="Q"/><g id="a"><use transform="matrix(0.06172839506172839,0,0,0.06172839506172839,0,0)" xlink:href="#L"/><use transform="matrix(0.06172839506172839,0,0,0.06172839506172839,15.987654320987653,0)" xlink:href="#M"/><use transform="matrix(0.06172839506172839,0,0,0.06172839506172839,33.2716049382716,0)" xlink:href="#N"/><use transform="matrix(0.06172839506172839,0,0,0.06172839506172839,43.08641975308642,0)" xlink:href="#O"/><use transform="matrix(0.06172839506172839,0,0,0.06172839506172839,52.901234567901234,0)" xlink:href="#P"/><use transform="matrix(0.06172839506172839,0,0,0.06172839506172839,64.01234567901234,0)" xlink:href="#Q"/></g><path fill="#fff" d="M199-173c-1 36-21 56-49 65l64 94 26 5v9h-57l-66-103H75v89l35 5v9H13v-9l28-5v-208l-31-4v-10c80 4 190-20 189 63zM75-119c50 2 89-1 89-51 0-49-39-52-89-50v101" id="R"/><path fill="#fff" d="M10-9l31-5v-208l-31-4v-10h177v57h-11l-6-38c-28-4-63-3-95-3v92h63l6-28h11v73h-11l-6-29H75v96l105-3 10-43h12l-3 62H10v-9" id="S"/><path fill="#fff" d="M178-68c0 79-95 82-154 59v-54h12c1 35 22 52 60 52 50 0 69-58 33-82-39-24-105-21-105-85 0-67 86-66 142-53v49h-12l-6-29c-31-27-121-7-89 42 28 43 119 24 119 101" id="T"/><path fill="#fff" d="M55 0v-9l38-5v-207c-22 1-53 0-70 4l-5 37H7v-56h207v56h-12l-5-37-70-3v206l37 5v9H55" id="U"/><g id="b"><use transform="matrix(0.06172839506172839,0,0,0.06172839506172839,0,0)" xlink:href="#R"/><use transform="matrix(0.06172839506172839,0,0,0.06172839506172839,14.814814814814813,0)" xlink:href="#S"/><use transform="matrix(0.06172839506172839,0,0,0.06172839506172839,28.33333333333333,0)" xlink:href="#T"/><use transform="matrix(0.06172839506172839,0,0,0.06172839506172839,40.679012345679006,0)" xlink:href="#U"/></g><path fill="#fff" d="M75-108c48 3 76-12 76-58s-28-57-76-54v112zm111-58c-1 60-46 78-111 74v78l37 5v9H13v-9l28-5v-208l-31-4v-10c81 1 178-14 176 70" id="V"/><path fill="#fff" d="M77-14l30 5v9H13v-9l30-5v-208l-30-4v-10h94v10l-30 4v208" id="W"/><g id="c"><use transform="matrix(0.06172839506172839,0,0,0.06172839506172839,0,0)" xlink:href="#L"/><use transform="matrix(0.06172839506172839,0,0,0.06172839506172839,15.987654320987653,0)" xlink:href="#V"/><use transform="matrix(0.06172839506172839,0,0,0.06172839506172839,28.333333333333332,0)" xlink:href="#W"/></g><path fill="#fff" d="M52-115c0 90 69 126 140 93v-67l-30-5v-9h87v9l-23 5v77c-27 8-56 16-90 16C59 2 15-37 15-115c-1-82 41-123 122-123 31 0 59 4 83 10v51h-12l-5-29c-15-12-38-18-65-18-66-1-86 42-86 109" id="X"/><path fill="#fff" d="M54-38c-1 25 24 26 44 20v12C71 10 25 9 25-35v-115H4c-2-14 14-10 21-15l18-38h11v38h38v15H54v112" id="Y"/><path fill="#fff" d="M84-170c49 0 66 33 63 87H46c-8 60 38 80 95 63v10C128-2 108 4 88 4 34 4 14-29 14-84c-1-54 22-86 70-86zm33 73c12-57-57-82-69-24-1 7-2 15-2 24h71" id="Z"/><path fill="#fff" d="M240-154L185 4h-14l-41-109L90 4H77L20-153c-7-3-23 1-20-12h79v8l-27 4L91-41l40-108h14l40 109 38-113-28-4v-8h63v8" id="aa"/><path fill="#fff" d="M161-154L85 37C75 66 49 86 8 75V39c18-2 6 24 29 21 30-4 38-32 47-58L21-153c-7-3-20 0-17-12h77v8l-26 4 45 116 43-116-26-4v-8h62v8" id="ab"/><g id="d"><use transform="matrix(0.06172839506172839,0,0,0.06172839506172839,0,0)" xlink:href="#X"/><use transform="matrix(0.06172839506172839,0,0,0.06172839506172839,15.987654320987653,0)" xlink:href="#N"/><use transform="matrix(0.06172839506172839,0,0,0.06172839506172839,25.80246913580247,0)" xlink:href="#Y"/><use transform="matrix(0.06172839506172839,0,0,0.06172839506172839,31.975308641975307,0)" xlink:href="#Z"/><use transform="matrix(0.06172839506172839,0,0,0.06172839506172839,41.79012345679012,0)" xlink:href="#aa"/><use transform="matrix(0.06172839506172839,0,0,0.06172839506172839,57.77777777777777,0)" xlink:href="#N"/><use transform="matrix(0.06172839506172839,0,0,0.06172839506172839,67.59259259259258,0)" xlink:href="#ab"/></g><path fill="#fff" d="M205 0l-28-72H64L36 0H1l101-248h38L239 0h-34zm-38-99l-47-123c-12 45-31 82-46 123h93" id="ac"/><path fill="#fff" d="M266 0h-40l-56-210L115 0H75L2-248h35L96-30l15-64 43-154h32l59 218 59-218h35" id="ad"/><path fill="#fff" d="M185-189c-5-48-123-54-124 2 14 75 158 14 163 119 3 78-121 87-175 55-17-10-28-26-33-46l33-7c5 56 141 63 141-1 0-78-155-14-162-118-5-82 145-84 179-34 5 7 8 16 11 25" id="ae"/><g id="e"><use transform="matrix(0.05,0,0,0.05,0,0)" xlink:href="#ac"/><use transform="matrix(0.05,0,0,0.05,11.35,0)" xlink:href="#ad"/><use transform="matrix(0.05,0,0,0.05,28.299999999999997,0)" xlink:href="#ae"/></g><path fill="#fff" d="M212-179c-10-28-35-45-73-45-59 0-87 40-87 99 0 60 29 101 89 101 43 0 62-24 78-52l27 14C228-24 195 4 139 4 59 4 22-46 18-125c-6-104 99-153 187-111 19 9 31 26 39 46" id="af"/><path fill="#fff" d="M24 0v-261h32V0H24" id="ag"/><path fill="#fff" d="M100-194c62-1 85 37 85 99 1 63-27 99-86 99S16-35 15-95c0-66 28-99 85-99zM99-20c44 1 53-31 53-75 0-43-8-75-51-75s-53 32-53 75 10 74 51 75" id="ah"/><path fill="#fff" d="M84 4C-5 8 30-112 23-190h32v120c0 31 7 50 39 49 72-2 45-101 50-169h31l1 190h-30c-1-10 1-25-2-33-11 22-28 36-60 37" id="ai"/><path fill="#fff" d="M85-194c31 0 48 13 60 33l-1-100h32l1 261h-30c-2-10 0-23-3-31C134-8 116 4 85 4 32 4 16-35 15-94c0-66 23-100 70-100zm9 24c-40 0-46 34-46 75 0 40 6 74 45 74 42 0 51-32 51-76 0-42-9-74-50-73" id="aj"/><g id="f"><use transform="matrix(0.05,0,0,0.05,0,0)" xlink:href="#af"/><use transform="matrix(0.05,0,0,0.05,12.950000000000001,0)" xlink:href="#ag"/><use transform="matrix(0.05,0,0,0.05,16.900000000000002,0)" xlink:href="#ah"/><use transform="matrix(0.05,0,0,0.05,26.900000000000002,0)" xlink:href="#ai"/><use transform="matrix(0.05,0,0,0.05,36.900000000000006,0)" xlink:href="#aj"/></g><path fill="#fff" d="M65-12l28 4v8H7v-8l28-4v-226l-28-4v-8h58v238" id="ak"/><path fill="#fff" d="M41-130c7 48 86 23 86 84 0 56-69 57-112 41v-40c20 0 9 29 31 31 35 19 77-26 41-50-27-18-72-13-72-59 0-50 58-52 100-41v36c-19 1-8-25-28-25-21-7-50-1-46 23" id="al"/><g id="g"><use transform="matrix(0.06790123456790123,0,0,0.06790123456790123,0,0)" xlink:href="#L"/><use transform="matrix(0.06790123456790123,0,0,0.06790123456790123,17.586419753086417,0)" xlink:href="#Q"/><use transform="matrix(0.06790123456790123,0,0,0.06790123456790123,29.80864197530864,0)" xlink:href="#N"/><use transform="matrix(0.06790123456790123,0,0,0.06790123456790123,40.60493827160494,0)" xlink:href="#ak"/><use transform="matrix(0.06790123456790123,0,0,0.06790123456790123,47.39506172839506,0)" xlink:href="#ab"/><use transform="matrix(0.06790123456790123,0,0,0.06790123456790123,59.617283950617285,0)" xlink:href="#al"/><use transform="matrix(0.06790123456790123,0,0,0.06790123456790123,69.12345679012346,0)" xlink:href="#Z"/></g><path fill="#fff" d="M141-152c28 39 5 97-54 97-9 0-20-2-27-3L49-35c29 22 130-14 124 52-4 45-38 57-88 61C21 83-8 26 45-2 33-6 22-15 21-31l28-31c-19-9-28-26-28-51-2-51 53-65 100-52l38-20 7 8zM85 64c35 0 61-11 61-42 0-35-57-17-89-21-9 8-16 19-17 34 0 25 19 29 45 29zM52-113c1 26 7 46 35 44 28-1 34-16 35-44 0-26-6-43-34-43s-36 17-36 43" id="am"/><g id="h"><use transform="matrix(0.06790123456790123,0,0,0.06790123456790123,0,0)" xlink:href="#W"/><use transform="matrix(0.06790123456790123,0,0,0.06790123456790123,8.080246913580247,0)" xlink:href="#M"/><use transform="matrix(0.06790123456790123,0,0,0.06790123456790123,27.09259259259259,0)" xlink:href="#N"/><use transform="matrix(0.06790123456790123,0,0,0.06790123456790123,37.888888888888886,0)" xlink:href="#am"/><use transform="matrix(0.06790123456790123,0,0,0.06790123456790123,50.11111111111111,0)" xlink:href="#Z"/></g><path fill="#fff" d="M75-13V0H4v-13l17-5 84-220h51l83 220 18 5V0H152v-13l28-5-23-61H67L45-18zm38-189L74-98h76" id="an"/><path fill="#fff" d="M127-114c3-31-26-38-50-25v123l15 4V0H10v-12l16-4v-133l-16-5v-11h64l2 14c31-23 102-32 102 30v105l17 4V0h-82v-12l14-4v-98" id="ao"/><path fill="#fff" d="M31-163c51-5 127-20 127 40v107l17 4V0h-61l-4-13C82 13 12 12 12-46c0-51 46-52 95-53 9-45-22-69-57-44l-7 20H31v-40zM62-47c0 30 26 34 45 23v-59c-28 0-45 6-45 36" id="ap"/><path fill="#fff" d="M76-16l18 4V0H7v-12l18-4v-218l-17-4v-12h68v234" id="aq"/><path fill="#fff" d="M81 5L15-149c-7-2-13-5-11-16h84v11l-20 5 39 91 35-91-19-5v-11h53c2 11-4 13-11 15C134-81 111-5 75 58 65 77 34 83 8 74V32h11c0 24 29 35 43 12 7-11 13-25 19-39" id="ar"/><path fill="#fff" d="M102-142c-14-17-68-15-54 18 24 26 83 17 83 72 0 62-72 62-120 47v-45h12c4 23 16 37 43 37 35 0 39-37 9-46-31-9-65-19-64-61 0-52 59-55 108-45v43h-11" id="as"/><path fill="#fff" d="M12-83c0-55 22-85 75-86 52-1 66 33 63 88H64c-1 37 6 64 44 63 14 0 28-4 39-6 3 28-28 25-55 27-57 4-80-31-80-86zm90-17c2-26 0-63-27-48-10 9-11 28-11 48h38" id="at"/><g id="i"><use transform="matrix(0.0987654320987654,0,0,0.0987654320987654,0,0)" xlink:href="#an"/><use transform="matrix(0.0987654320987654,0,0,0.0987654320987654,25.58024691358024,0)" xlink:href="#ao"/><use transform="matrix(0.0987654320987654,0,0,0.0987654320987654,45.333333333333314,0)" xlink:href="#ap"/><use transform="matrix(0.0987654320987654,0,0,0.0987654320987654,63.11111111111109,0)" xlink:href="#aq"/><use transform="matrix(0.0987654320987654,0,0,0.0987654320987654,72.98765432098763,0)" xlink:href="#ar"/><use transform="matrix(0.0987654320987654,0,0,0.0987654320987654,90.7654320987654,0)" xlink:href="#as"/><use transform="matrix(0.0987654320987654,0,0,0.0987654320987654,104.59259259259255,0)" xlink:href="#at"/></g><path fill="#fff" d="M104-123c39 3 61 21 62 59C167 7 83 12 19-4l-2-50h12c2 29 16 43 51 43 38 0 54-19 54-55 2-43-34-49-75-50v-14c37 0 64-7 64-48 0-47-47-56-81-36l-6 29H24v-46c51-13 135-13 131 51-2 34-20 52-51 57" id="au"/><g id="j"><use transform="matrix(0.06172839506172839,0,0,0.06172839506172839,0,0)" xlink:href="#T"/><use transform="matrix(0.06172839506172839,0,0,0.06172839506172839,12.345679012345679,0)" xlink:href="#au"/></g><path fill="#fff" d="M75-131c50 2 93 3 93-48 0-46-48-41-93-41v89zm0 115c55 4 111 6 111-51 0-53-58-48-111-48v99zm148-52C223 24 102-3 10 0v-9l31-5v-208l-31-4v-10c77 6 193-24 194 56 0 33-20 48-48 54 36 5 67 20 67 58" id="av"/><path fill="#fff" d="M124-13C89 8 26 15 26-45v-108c-8-3-24 2-21-12h50v118c-3 37 42 32 69 25v-131l-25-4v-8h54v153c8 3 24-2 21 12h-48" id="aw"/><path fill="#fff" d="M45-84c0 64 52 80 104 63 1 25-30 25-55 25-56 0-80-32-80-88 0-76 62-98 131-80v46h-10c-5-15-4-31-23-35-47-10-67 21-67 69" id="ax"/><path fill="#fff" d="M60-80l68-73c-7-3-20 0-17-12h58c3 13-13 9-20 12l-47 48 60 93c7 3 21-1 18 12h-68c-3-12 9-9 15-12L82-83 60-60v48c7 3 21-1 18 12H10v-8l21-4v-226l-24-4v-8h53v170" id="ay"/><g id="k"><use transform="matrix(0.06172839506172839,0,0,0.06172839506172839,0,0)" xlink:href="#av"/><use transform="matrix(0.06172839506172839,0,0,0.06172839506172839,14.814814814814813,0)" xlink:href="#aw"/><use transform="matrix(0.06172839506172839,0,0,0.06172839506172839,25.925925925925924,0)" xlink:href="#ax"/><use transform="matrix(0.06172839506172839,0,0,0.06172839506172839,35.74074074074074,0)" xlink:href="#ay"/><use transform="matrix(0.06172839506172839,0,0,0.06172839506172839,46.85185185185185,0)" xlink:href="#Z"/><use transform="matrix(0.06172839506172839,0,0,0.06172839506172839,56.666666666666664,0)" xlink:href="#Y"/></g><path fill="#fff" d="M92-20c74 11 92-29 92-98 0-66-23-103-92-98v196zm150-99C242 9 136 6 6 0v-13l31-5v-200l-31-5v-13h112c81 0 124 34 124 117" id="az"/><path fill="#fff" d="M78-41c-2 24 21 26 40 20C122 3 98 2 77 4 5 10 32-84 27-147H6v-11l25-7 21-38h26v38h35v18H78v106" id="aA"/><g id="l"><use transform="matrix(0.06172839506172839,0,0,0.06172839506172839,0,0)" xlink:href="#az"/><use transform="matrix(0.06172839506172839,0,0,0.06172839506172839,15.987654320987653,0)" xlink:href="#ap"/><use transform="matrix(0.06172839506172839,0,0,0.06172839506172839,27.098765432098766,0)" xlink:href="#aA"/><use transform="matrix(0.06172839506172839,0,0,0.06172839506172839,34.44444444444444,0)" xlink:href="#ap"/></g><path fill="#fff" d="M185-72C185 13 82 14 19-9v-63h16c2 37 21 58 61 58 46 0 69-51 31-71-42-23-106-23-106-90 0-69 87-70 148-56v56h-16l-7-32c-26-25-110-13-82 35 39 34 121 26 121 100" id="aB"/><path fill="#fff" d="M90-170c54-1 76 32 76 87 1 56-23 87-77 87-53 0-75-32-75-87s23-86 76-87zM89-14c28-2 26-38 26-69s3-69-26-69c-27 0-24 39-24 69s-3 66 24 69" id="aC"/><path fill="#fff" d="M132-132c-21 0-37 9-50 16v100l26 4V0H10v-12l21-4v-133l-21-5v-11h69l2 34c17-18 35-41 71-40v61c-17 3-14-14-20-22" id="aD"/><path fill="#fff" d="M9 41c2-18 18-26 32-33C29 1 16-9 16-28l29-33c-21-9-31-25-31-51-2-56 61-65 111-53l39-20c13 12-9 24-14 36 35 54-17 114-90 92-17 34 27 28 56 28 36-1 61 12 60 46-2 46-39 62-91 62-38 0-71-6-76-38zm35-3c6 35 97 29 94-9-2-28-50-14-78-17-8 7-15 14-16 26zm20-150c0 22 4 40 23 40 20 0 24-17 24-40 0-24-4-40-24-40-19 0-23 17-23 40" id="aE"/><g id="m"><use transform="matrix(0.06172839506172839,0,0,0.06172839506172839,0,0)" xlink:href="#aB"/><use transform="matrix(0.06172839506172839,0,0,0.06172839506172839,12.345679012345679,0)" xlink:href="#aA"/><use transform="matrix(0.06172839506172839,0,0,0.06172839506172839,19.691358024691358,0)" xlink:href="#aC"/><use transform="matrix(0.06172839506172839,0,0,0.06172839506172839,30.80246913580247,0)" xlink:href="#aD"/><use transform="matrix(0.06172839506172839,0,0,0.06172839506172839,40.617283950617285,0)" xlink:href="#ap"/><use transform="matrix(0.06172839506172839,0,0,0.06172839506172839,51.72839506172839,0)" xlink:href="#aE"/><use transform="matrix(0.06172839506172839,0,0,0.06172839506172839,62.839506172839506,0)" xlink:href="#at"/></g><path fill="#fff" d="M92-101v83l39 5V0H8v-13l28-5v-200l-30-5v-13h197v64h-17l-5-42c-27-3-59-2-89-2v96h57l6-30h15v80h-15l-6-31H92" id="aF"/><g id="n"><use transform="matrix(0.12345679012345674,0,0,0.12345679012345674,0,0)" xlink:href="#aF"/><use transform="matrix(0.12345679012345674,0,0,0.12345679012345674,27.037037037037027,0)" xlink:href="#ap"/><use transform="matrix(0.12345679012345674,0,0,0.12345679012345674,49.25925925925924,0)" xlink:href="#ap"/><use transform="matrix(0.12345679012345674,0,0,0.12345679012345674,71.48148148148145,0)" xlink:href="#aB"/></g><path fill="#fff" d="M6-13l30-5v-200l-30-5v-13h201v60h-16l-6-38-93-2v86h61l6-26h16v73h-16l-6-27H92v91l104-3 10-44h16l-4 66H6v-13" id="aG"/><path fill="#fff" d="M168-150L102 4H81L12-149c-7-2-15-4-12-16h85v11l-20 5 42 94 38-94-19-5v-11h54v11" id="aH"/><path fill="#fff" d="M13-69v-31h94v31H13" id="aI"/><path fill="#fff" d="M15-82c-4-69 47-101 113-83l-1-69-17-4v-12h68v234l18 4V0h-63l-4-9C77 23 5-9 15-82zm112-66c-43-16-64 17-61 65 2 33 3 67 32 67 12 0 22-3 29-8v-124" id="aJ"/><path fill="#fff" d="M77-16l18 4V0H8v-12l18-4v-133l-17-5v-11h68v149zM51-196c-16 0-27-10-27-27s10-27 27-27 27 11 27 27c0 17-10 27-27 27" id="aK"/><g id="o"><use transform="matrix(0.11111111111111108,0,0,0.11111111111111108,0,0)" xlink:href="#aG"/><use transform="matrix(0.11111111111111108,0,0,0.11111111111111108,26.666666666666657,0)" xlink:href="#aH"/><use transform="matrix(0.11111111111111108,0,0,0.11111111111111108,46.66666666666665,0)" xlink:href="#at"/><use transform="matrix(0.11111111111111108,0,0,0.11111111111111108,64.33333333333331,0)" xlink:href="#ao"/><use transform="matrix(0.11111111111111108,0,0,0.11111111111111108,86.55555555555553,0)" xlink:href="#aA"/><use transform="matrix(0.11111111111111108,0,0,0.11111111111111108,99.77777777777774,0)" xlink:href="#aI"/><use transform="matrix(0.11111111111111108,0,0,0.11111111111111108,112.99999999999996,0)" xlink:href="#aJ"/><use transform="matrix(0.11111111111111108,0,0,0.11111111111111108,135.22222222222217,0)" xlink:href="#aD"/><use transform="matrix(0.11111111111111108,0,0,0.11111111111111108,152.88888888888883,0)" xlink:href="#aK"/><use transform="matrix(0.11111111111111108,0,0,0.11111111111111108,163.99999999999994,0)" xlink:href="#aH"/><use transform="matrix(0.11111111111111108,0,0,0.11111111111111108,183.99999999999994,0)" xlink:href="#at"/><use transform="matrix(0.11111111111111108,0,0,0.11111111111111108,201.6666666666666,0)" xlink:href="#ao"/></g><path fill="#fff" d="M72-18c49 15 64-22 62-69-1-34-4-62-34-63-10-1-23 2-28 6v126zm33 22C77 4 48-3 21-8v-226l-16-4v-12h67c-1 31 2 66-2 94 11-8 28-14 47-14 51 0 70 31 69 83-1 55-26 91-81 91" id="aL"/><path fill="#fff" d="M109-18c15 0 31-2 42-6v14c-11 9-31 13-51 13-59 0-86-28-88-86-3-75 66-101 135-80v48h-13c-3-20-7-40-34-37-51 7-55 138 9 134" id="aM"/><path fill="#fff" d="M77-79l64-71-17-4v-11h63v11c-32 3-40 30-59 46l57 92 15 4V0h-80c-2-11 3-15 10-16L97-74 77-60v44l16 4V0H10v-12l16-4v-218l-17-4v-12h68v171" id="aN"/><g id="p"><use transform="matrix(0.11111111111111108,0,0,0.11111111111111108,0,0)" xlink:href="#aL"/><use transform="matrix(0.11111111111111108,0,0,0.11111111111111108,22.222222222222214,0)" xlink:href="#ap"/><use transform="matrix(0.11111111111111108,0,0,0.11111111111111108,42.22222222222221,0)" xlink:href="#aM"/><use transform="matrix(0.11111111111111108,0,0,0.11111111111111108,59.88888888888887,0)" xlink:href="#aN"/><use transform="matrix(0.11111111111111108,0,0,0.11111111111111108,82.11111111111109,0)" xlink:href="#at"/><use transform="matrix(0.11111111111111108,0,0,0.11111111111111108,99.77777777777774,0)" xlink:href="#ao"/><use transform="matrix(0.11111111111111108,0,0,0.11111111111111108,121.99999999999996,0)" xlink:href="#aJ"/></g><linearGradient gradientUnits="userSpaceOnUse" id="q" x1="-5960" y1="5930" x2="-5840" y2="5810"><stop offset="0%" stop-color="#b0084d"/><stop offset="100%" stop-color="#ff4f8b"/></linearGradient><path fill="#fff" d="M210-169c-67 3-38 105-44 169h-31v-121c0-29-5-50-35-48C34-165 62-65 56 0H25l-1-190h30c1 10-1 24 2 32 10-44 99-50 107 0 11-21 27-35 58-36 85-2 47 119 55 194h-31v-121c0-29-5-49-35-48" id="aO"/><path fill="#fff" d="M141-36C126-15 110 5 73 4 37 3 15-17 15-53c-1-64 63-63 125-63 3-35-9-54-41-54-24 1-41 7-42 31l-33-3c5-37 33-52 76-52 45 0 72 20 72 64v82c-1 20 7 32 28 27v20c-31 9-61-2-59-35zM48-53c0 20 12 33 32 33 41-3 63-29 60-74-43 2-92-5-92 41" id="aP"/><path fill="#fff" d="M9 0v-24l116-142H16v-24h144v24L44-24h123V0H9" id="aQ"/><path fill="#fff" d="M117-194c89-4 53 116 60 194h-32v-121c0-31-8-49-39-48C34-167 62-67 57 0H25l-1-190h30c1 10-1 24 2 32 11-22 29-35 61-36" id="aR"/><g id="r"><use transform="matrix(0.05,0,0,0.05,0,0)" xlink:href="#ac"/><use transform="matrix(0.05,0,0,0.05,12,0)" xlink:href="#aO"/><use transform="matrix(0.05,0,0,0.05,26.950000000000003,0)" xlink:href="#aP"/><use transform="matrix(0.05,0,0,0.05,36.95,0)" xlink:href="#aQ"/><use transform="matrix(0.05,0,0,0.05,45.95,0)" xlink:href="#ah"/><use transform="matrix(0.05,0,0,0.05,55.95,0)" xlink:href="#aR"/></g><path fill="#fff" d="M59-47c-2 24 18 29 38 22v24C64 9 27 4 27-40v-127H5v-23h24l9-43h21v43h35v23H59v120" id="aS"/><path fill="#fff" d="M96-169c-40 0-48 33-48 73s9 75 48 75c24 0 41-14 43-38l32 2c-6 37-31 61-74 61-59 0-76-41-82-99-10-93 101-131 147-64 4 7 5 14 7 22l-32 3c-4-21-16-35-41-35" id="aT"/><path fill="#fff" d="M106-169C34-169 62-67 57 0H25v-261h32l-1 103c12-21 28-36 61-36 89 0 53 116 60 194h-32v-121c2-32-8-49-39-48" id="aU"/><g id="s"><use transform="matrix(0.05,0,0,0.05,0,0)" xlink:href="#af"/><use transform="matrix(0.05,0,0,0.05,12.950000000000001,0)" xlink:href="#ag"/><use transform="matrix(0.05,0,0,0.05,16.900000000000002,0)" xlink:href="#ah"/><use transform="matrix(0.05,0,0,0.05,26.900000000000002,0)" xlink:href="#ai"/><use transform="matrix(0.05,0,0,0.05,36.900000000000006,0)" xlink:href="#aj"/><use transform="matrix(0.05,0,0,0.05,46.900000000000006,0)" xlink:href="#ad"/><use transform="matrix(0.05,0,0,0.05,63.2,0)" xlink:href="#aP"/><use transform="matrix(0.05,0,0,0.05,73.2,0)" xlink:href="#aS"/><use transform="matrix(0.05,0,0,0.05,78.2,0)" xlink:href="#aT"/><use transform="matrix(0.05,0,0,0.05,87.2,0)" xlink:href="#aU"/></g><path fill="#fff" d="M256-236v13l-22 5L143 5h-24L23-218l-19-5v-13h103v13l-25 5 66 154 62-154-23-5v-13h69" id="aV"/><g id="t"><use transform="matrix(0.08024691358024691,0,0,0.08024691358024691,0,0)" xlink:href="#aV"/><use transform="matrix(0.08024691358024691,0,0,0.08024691358024691,19.74074074074074,0)" xlink:href="#aK"/><use transform="matrix(0.08024691358024691,0,0,0.08024691358024691,27.76543209876543,0)" xlink:href="#ap"/></g><linearGradient gradientUnits="userSpaceOnUse" id="u" x1="-5960" y1="5581.11" x2="-5840" y2="5461.11"><stop offset="0%" stop-color="#055f4e"/><stop offset="100%" stop-color="#56c0a7"/></linearGradient><path fill="#fff" d="M233-177c-1 41-23 64-60 70L243 0h-38l-65-103H63V0H30v-248c88 3 205-21 203 71zM63-129c60-2 137 13 137-47 0-61-80-42-137-45v92" id="aW"/><path fill="#fff" d="M100-194c63 0 86 42 84 106H49c0 40 14 67 53 68 26 1 43-12 49-29l28 8c-11 28-37 45-77 45C44 4 14-33 15-96c1-61 26-98 85-98zm52 81c6-60-76-77-97-28-3 7-6 17-6 28h103" id="aX"/><path fill="#fff" d="M143 0L79-87 56-68V0H24v-261h32v163l83-92h37l-77 82L181 0h-38" id="aY"/><path fill="#fff" d="M177-190C167-65 218 103 67 71c-23-6-38-20-44-43l32-5c15 47 100 32 89-28v-30C133-14 115 1 83 1 29 1 15-40 15-95c0-56 16-97 71-98 29-1 48 16 59 35 1-10 0-23 2-32h30zM94-22c36 0 50-32 50-73 0-42-14-75-50-75-39 0-46 34-46 75s6 73 46 73" id="aZ"/><path fill="#fff" d="M24-231v-30h32v30H24zM24 0v-190h32V0H24" id="ba"/><g id="v"><use transform="matrix(0.05,0,0,0.05,0,0)" xlink:href="#aW"/><use transform="matrix(0.05,0,0,0.05,12.950000000000001,0)" xlink:href="#aX"/><use transform="matrix(0.05,0,0,0.05,22.950000000000003,0)" xlink:href="#aY"/><use transform="matrix(0.05,0,0,0.05,31.950000000000003,0)" xlink:href="#ah"/><use transform="matrix(0.05,0,0,0.05,41.95,0)" xlink:href="#aZ"/><use transform="matrix(0.05,0,0,0.05,51.95,0)" xlink:href="#aR"/><use transform="matrix(0.05,0,0,0.05,61.95,0)" xlink:href="#ba"/><use transform="matrix(0.05,0,0,0.05,65.9,0)" xlink:href="#aS"/><use transform="matrix(0.05,0,0,0.05,70.9,0)" xlink:href="#ba"/><use transform="matrix(0.05,0,0,0.05,74.85000000000001,0)" xlink:href="#ah"/><use transform="matrix(0.05,0,0,0.05,84.85000000000001,0)" xlink:href="#aR"/></g><path fill="#fff" d="M138 4C60 2 18-37 18-118s41-120 122-120c80 0 122 39 122 120 0 59-22 97-65 112 17 20 30 48 67 42v15c-34 14-83 3-102-19zm2-225c-55 0-64 47-64 103S8-14 140-14c56 0 64-48 64-104s-9-103-64-103" id="bb"/><path fill="#fff" d="M73-51c-3 31 27 38 51 25v-123l-16-5v-11h66v149l17 4V0h-65l-2-14C94 9 22 18 22-44v-105l-17-5v-11h68v114" id="bc"/><g id="w"><use transform="matrix(0.0987654320987654,0,0,0.0987654320987654,0,0)" xlink:href="#bb"/><use transform="matrix(0.0987654320987654,0,0,0.0987654320987654,27.654320987654312,0)" xlink:href="#bc"/><use transform="matrix(0.0987654320987654,0,0,0.0987654320987654,47.40740740740739,0)" xlink:href="#at"/><use transform="matrix(0.0987654320987654,0,0,0.0987654320987654,63.11111111111109,0)" xlink:href="#aD"/><use transform="matrix(0.0987654320987654,0,0,0.0987654320987654,78.81481481481478,0)" xlink:href="#ar"/></g><path fill="#fff" d="M130-224c-62 0-78 43-78 106 0 64 16 108 78 108s78-44 78-108c0-63-16-106-78-106zM145 3C61 9 15-34 15-118c0-80 37-120 115-120 77 0 115 42 115 120 1 59-21 95-62 112 19 19 30 53 71 46v12c-30 12-67 2-84-19" id="bd"/><path fill="#fff" d="M57-145c16-10 35-24 60-25v45c-19 1-8-30-40-17l-20 6v124l29 4v8H7v-8l21-4v-141c-8-3-24 2-21-12h48" id="be"/><g id="x"><use transform="matrix(0.06790123456790123,0,0,0.06790123456790123,0,0)" xlink:href="#bd"/><use transform="matrix(0.06790123456790123,0,0,0.06790123456790123,17.586419753086417,0)" xlink:href="#aw"/><use transform="matrix(0.06790123456790123,0,0,0.06790123456790123,29.80864197530864,0)" xlink:href="#Z"/><use transform="matrix(0.06790123456790123,0,0,0.06790123456790123,40.60493827160494,0)" xlink:href="#be"/><use transform="matrix(0.06790123456790123,0,0,0.06790123456790123,48.68518518518518,0)" xlink:href="#ab"/></g><g id="y"><use transform="matrix(0.06790123456790123,0,0,0.06790123456790123,0,0)" xlink:href="#W"/><use transform="matrix(0.06790123456790123,0,0,0.06790123456790123,8.080246913580247,0)" xlink:href="#M"/><use transform="matrix(0.06790123456790123,0,0,0.06790123456790123,27.09259259259259,0)" xlink:href="#N"/><use transform="matrix(0.06790123456790123,0,0,0.06790123456790123,37.888888888888886,0)" xlink:href="#am"/><use transform="matrix(0.06790123456790123,0,0,0.06790123456790123,50.11111111111111,0)" xlink:href="#Z"/></g><path fill="#fff" d="M53-14c58 12 82-15 82-73 0-52-35-77-82-58v131zM89 4C64 4 42-2 24-9v-229l-24-4v-8h53l-1 94c48-33 114-4 114 69 0 57-23 91-77 91" id="bf"/><path fill="#fff" d="M13-81c0-71 46-101 114-85l-1-72-28-4v-8h57v238c8 3 24-2 21 12h-47l-2-12C80 23 13-1 13-81zm77-74c-37 1-44 33-45 74 0 38 9 66 45 66 14 0 27-3 36-7v-130c-10-1-24-3-36-3" id="bg"/><g id="z"><use transform="matrix(0.06790123456790123,0,0,0.06790123456790123,0,0)" xlink:href="#bf"/><use transform="matrix(0.06790123456790123,0,0,0.06790123456790123,12.222222222222221,0)" xlink:href="#N"/><use transform="matrix(0.06790123456790123,0,0,0.06790123456790123,23.018518518518515,0)" xlink:href="#al"/><use transform="matrix(0.06790123456790123,0,0,0.06790123456790123,32.52469135802469,0)" xlink:href="#Z"/><use transform="matrix(0.06790123456790123,0,0,0.06790123456790123,43.32098765432099,0)" xlink:href="#bg"/></g><g id="A"><use transform="matrix(0.06790123456790123,0,0,0.06790123456790123,0,0)" xlink:href="#P"/><use transform="matrix(0.06790123456790123,0,0,0.06790123456790123,12.222222222222221,0)" xlink:href="#Q"/></g><g id="B"><use transform="matrix(0.06790123456790123,0,0,0.06790123456790123,0,0)" xlink:href="#ak"/><use transform="matrix(0.06790123456790123,0,0,0.06790123456790123,6.790123456790123,0)" xlink:href="#N"/><use transform="matrix(0.06790123456790123,0,0,0.06790123456790123,17.586419753086417,0)" xlink:href="#bf"/><use transform="matrix(0.06790123456790123,0,0,0.06790123456790123,29.80864197530864,0)" xlink:href="#Z"/><use transform="matrix(0.06790123456790123,0,0,0.06790123456790123,40.60493827160494,0)" xlink:href="#ak"/><use transform="matrix(0.06790123456790123,0,0,0.06790123456790123,47.39506172839506,0)" xlink:href="#al"/></g><path fill="#fff" d="M92-112c43 4 61-13 61-54s-18-54-61-50v104zm118-54c0 63-50 78-118 74v74l39 5V0H8v-13l28-5v-200l-30-5v-13c88 3 205-20 204 70" id="bh"/><path fill="#fff" d="M98-18l30 5V0H12v-13l30-5v-200l-30-5v-13h116v13l-30 5v200" id="bi"/><g id="C"><use transform="matrix(0.06790123456790123,0,0,0.06790123456790123,0,0)" xlink:href="#an"/><use transform="matrix(0.06790123456790123,0,0,0.06790123456790123,17.586419753086417,0)" xlink:href="#bh"/><use transform="matrix(0.06790123456790123,0,0,0.06790123456790123,32.456790123456784,0)" xlink:href="#bi"/></g><path fill="#fff" d="M76-116c0 86 71 126 135 84l6-39h16l-1 60C138 21 18 1 18-115c0-117 106-141 210-112l1 57h-16l-5-34c-13-9-32-16-54-16-60 0-78 42-78 104" id="bj"/><g id="D"><use transform="matrix(0.06790123456790123,0,0,0.06790123456790123,0,0)" xlink:href="#bj"/><use transform="matrix(0.06790123456790123,0,0,0.06790123456790123,17.586419753086417,0)" xlink:href="#ap"/><use transform="matrix(0.06790123456790123,0,0,0.06790123456790123,29.80864197530864,0)" xlink:href="#aq"/><use transform="matrix(0.06790123456790123,0,0,0.06790123456790123,36.59876543209876,0)" xlink:href="#aq"/></g><path fill="#fff" d="M128-223l-36 5v199l103-3 14-49h16l-7 71H6v-13l30-5v-200l-30-5v-13h122v13" id="bk"/><g id="E"><use transform="matrix(0.06790123456790123,0,0,0.06790123456790123,0,0)" xlink:href="#bk"/><use transform="matrix(0.06790123456790123,0,0,0.06790123456790123,16.296296296296294,0)" xlink:href="#aC"/><use transform="matrix(0.06790123456790123,0,0,0.06790123456790123,28.518518518518515,0)" xlink:href="#aE"/></g><g id="F"><use transform="matrix(0.06172839506172839,0,0,0.06172839506172839,0,0)" xlink:href="#L"/><use transform="matrix(0.06172839506172839,0,0,0.06172839506172839,15.987654320987653,0)" xlink:href="#M"/><use transform="matrix(0.06172839506172839,0,0,0.06172839506172839,33.2716049382716,0)" xlink:href="#N"/><use transform="matrix(0.06172839506172839,0,0,0.06172839506172839,43.08641975308642,0)" xlink:href="#O"/><use transform="matrix(0.06172839506172839,0,0,0.06172839506172839,52.901234567901234,0)" xlink:href="#P"/><use transform="matrix(0.06172839506172839,0,0,0.06172839506172839,64.01234567901234,0)" xlink:href="#Q"/></g><path fill="#fff" d="M75-17c87 13 134-18 134-103 0-78-51-106-134-100v203zm171-102C246 5 139 7 10 0v-9l31-5v-208l-31-4v-10h107c82 0 129 35 129 117" id="bl"/><g id="G"><use transform="matrix(0.06172839506172839,0,0,0.06172839506172839,0,0)" xlink:href="#bl"/><use transform="matrix(0.06172839506172839,0,0,0.06172839506172839,15.987654320987653,0)" xlink:href="#ab"/><use transform="matrix(0.06172839506172839,0,0,0.06172839506172839,27.098765432098766,0)" xlink:href="#Q"/><use transform="matrix(0.06172839506172839,0,0,0.06172839506172839,38.20987654320987,0)" xlink:href="#N"/><use transform="matrix(0.06172839506172839,0,0,0.06172839506172839,48.02469135802469,0)" xlink:href="#M"/><use transform="matrix(0.06172839506172839,0,0,0.06172839506172839,65.30864197530863,0)" xlink:href="#P"/><use transform="matrix(0.06172839506172839,0,0,0.06172839506172839,76.41975308641975,0)" xlink:href="#bl"/><use transform="matrix(0.06172839506172839,0,0,0.06172839506172839,92.4074074074074,0)" xlink:href="#av"/></g><path fill="#fff" d="M54 0v-13l38-5v-199l-66 3-4 44H6v-66h229v66h-17l-4-44c-17-2-44-3-67-3v199l38 5V0H54" id="bm"/><g id="H"><use transform="matrix(0.12345679012345674,0,0,0.12345679012345674,0,0)" xlink:href="#az"/><use transform="matrix(0.12345679012345674,0,0,0.12345679012345674,31.975308641975296,0)" xlink:href="#ap"/><use transform="matrix(0.12345679012345674,0,0,0.12345679012345674,54.19753086419751,0)" xlink:href="#aA"/><use transform="matrix(0.12345679012345674,0,0,0.12345679012345674,68.88888888888886,0)" xlink:href="#ap"/><use transform="matrix(0.12345679012345674,0,0,0.12345679012345674,91.11111111111107,0)" xlink:href="#aL"/><use transform="matrix(0.12345679012345674,0,0,0.12345679012345674,115.80246913580243,0)" xlink:href="#ap"/><use transform="matrix(0.12345679012345674,0,0,0.12345679012345674,138.02469135802465,0)" xlink:href="#as"/><use transform="matrix(0.12345679012345674,0,0,0.12345679012345674,155.3086419753086,0)" xlink:href="#at"/><use transform="matrix(0.12345679012345674,0,0,0.12345679012345674,174.93827160493822,0)" xlink:href="#aI"/><use transform="matrix(0.12345679012345674,0,0,0.12345679012345674,189.62962962962956,0)" xlink:href="#bm"/><use transform="matrix(0.12345679012345674,0,0,0.12345679012345674,218.39506172839498,0)" xlink:href="#aK"/><use transform="matrix(0.12345679012345674,0,0,0.12345679012345674,230.74074074074065,0)" xlink:href="#at"/><use transform="matrix(0.12345679012345674,0,0,0.12345679012345674,250.37037037037027,0)" xlink:href="#aD"/></g><g id="I"><use transform="matrix(0.07407407407407407,0,0,0.07407407407407407,0,0)" xlink:href="#aB"/><use transform="matrix(0.07407407407407407,0,0,0.07407407407407407,14.814814814814813,0)" xlink:href="#aA"/><use transform="matrix(0.07407407407407407,0,0,0.07407407407407407,23.629629629629623,0)" xlink:href="#aC"/><use transform="matrix(0.07407407407407407,0,0,0.07407407407407407,36.96296296296296,0)" xlink:href="#aD"/><use transform="matrix(0.07407407407407407,0,0,0.07407407407407407,48.22222222222222,0)" xlink:href="#at"/></g><path fill="#fff" d="M222-170c0 37-18 56-47 65l63 87 25 5V0h-76l-66-100H92v82l30 5V0H8v-13l28-5v-200l-30-5v-13c89 5 214-24 216 66zM92-119c45 2 75-3 75-50s-30-49-75-47v97" id="bn"/><g id="J"><use transform="matrix(0.07407407407407407,0,0,0.07407407407407407,0,0)" xlink:href="#bn"/><use transform="matrix(0.07407407407407407,0,0,0.07407407407407407,19.185185185185183,0)" xlink:href="#at"/><use transform="matrix(0.07407407407407407,0,0,0.07407407407407407,30.962962962962962,0)" xlink:href="#aA"/><use transform="matrix(0.07407407407407407,0,0,0.07407407407407407,39.77777777777778,0)" xlink:href="#aD"/><use transform="matrix(0.07407407407407407,0,0,0.07407407407407407,51.555555555555564,0)" xlink:href="#aK"/><use transform="matrix(0.07407407407407407,0,0,0.07407407407407407,58.96296296296296,0)" xlink:href="#at"/><use transform="matrix(0.07407407407407407,0,0,0.07407407407407407,70.74074074074073,0)" xlink:href="#aH"/><use transform="matrix(0.07407407407407407,0,0,0.07407407407407407,84.07407407407408,0)" xlink:href="#at"/></g><g id="K"><use transform="matrix(0.0987654320987654,0,0,0.0987654320987654,0,0)" xlink:href="#aF"/><use transform="matrix(0.0987654320987654,0,0,0.0987654320987654,21.629629629629623,0)" xlink:href="#aD"/><use transform="matrix(0.0987654320987654,0,0,0.0987654320987654,36.64197530864196,0)" xlink:href="#aC"/><use transform="matrix(0.0987654320987654,0,0,0.0987654320987654,54.41975308641973,0)" xlink:href="#ao"/><use transform="matrix(0.0987654320987654,0,0,0.0987654320987654,74.1728395061728,0)" xlink:href="#aA"/><use transform="matrix(0.0987654320987654,0,0,0.0987654320987654,85.9259259259259,0)" xlink:href="#at"/><use transform="matrix(0.0987654320987654,0,0,0.0987654320987654,101.62962962962959,0)" xlink:href="#ao"/><use transform="matrix(0.0987654320987654,0,0,0.0987654320987654,121.38271604938268,0)" xlink:href="#aJ"/></g></defs></g></svg>